<ttFont>
<head>
    <!-- Most of this table will be recalculated by the compiler -->
    <tableVersion value="1.0"/>
    <fontRevision value="1.0"/>
    <checkSumAdjustment value="0xc6ff1618"/>
    <magicNumber value="0x5f0f3cf5"/>
    <flags value="00000000 00011011"/>
    <unitsPerEm value="1000"/>
    <created value="Sat Dec  6 13:43:38 2025"/>
    <modified value="Sat Dec  6 13:48:40 2025"/>
    <xMin value="-65"/>
    <yMin value="-250"/>
    <xMax value="1062"/>
    <yMax value="761"/>
    <macStyle value="00000000 00000000"/>
    <lowestRecPPEM value="6"/>
    <fontDirectionHint value="2"/>
    <indexToLocFormat value="0"/>
    <glyphDataFormat value="0"/>
  </head>
    <TTGlyph name="A" xMin="30" yMin="0" xMax="677" yMax="694">
      <contour>
        <pt x="677" y="0" on="1"/>
        <pt x="572" y="0" on="1"/>
        <pt x="494" y="198" on="1"/>
        <pt x="190" y="198" on="1"/>
        <pt x="112" y="0" on="1"/>
        <pt x="30" y="0" on="1"/>
        <pt x="305" y="694" on="1"/>
        <pt x="402" y="694" on="1"/>
      </contour>
      <contour>
        <pt x="215" y="257" on="1"/>
        <pt x="469" y="257" on="1"/>
        <pt x="343" y="618" on="1"/>
      </contour>
    </TTGlyph>
    <TTGlyph name="AE" xMin="30" yMin="0" xMax="870" yMax="694">
      <contour>
        <pt x="113" y="0" on="1"/>
        <pt x="30" y="0" on="1"/>
        <pt x="330" y="694" on="1"/>
        <pt x="855" y="694" on="1"/>
        <pt x="855" y="624" on="1"/>
        <pt x="693" y="624" on="1"/>
        <pt x="684" y="624" on="0"/>
        <pt x="666" y="625" on="0"/>
        <pt x="657" y="625" on="1"/>
        <pt x="545" y="625" on="1"/>
        <pt x="545" y="394" on="1"/>
        <pt x="825" y="394" on="1"/>
        <pt x="825" y="328" on="1"/>
        <pt x="545" y="328" on="1"/>
        <pt x="545" y="76" on="1"/>
        <pt x="579" y="76" on="1"/>
        <pt x="633" y="76" on="0"/>
        <pt x="743" y="78" on="0"/>
        <pt x="797" y="78" on="1"/>
        <pt x="870" y="78" on="1"/>
        <pt x="870" y="0" on="1"/>
        <pt x="445" y="0" on="1"/>
        <pt x="445" y="219" on="1"/>
        <pt x="208" y="219" on="1"/>
      </contour>
      <contour>
        <pt x="233" y="278" on="1"/>
        <pt x="445" y="278" on="1"/>
        <pt x="445" y="625" on="1"/>
        <pt x="384" y="625" on="1"/>
      </contour>
    </TTGlyph>
    <TTGlyph name="B" xMin="100" yMin="0" xMax="648" yMax="694">
      <contour>
        <pt x="356" y="694" on="1"/>
        <pt x="411" y="694" on="0"/>
        <pt x="507" y="666" on="0"/>
        <pt x="577" y="618" on="0"/>
        <pt x="618" y="555" on="0"/>
        <pt x="618" y="520" on="1"/>
        <pt x="618" y="466" on="0"/>
        <pt x="522" y="382" on="0"/>
        <pt x="444" y="363" on="1"/>
        <pt x="486" y="357" on="0"/>
        <pt x="560" y="326" on="0"/>
        <pt x="615" y="279" on="0"/>
        <pt x="648" y="221" on="0"/>
        <pt x="648" y="188" on="1"/>
        <pt x="648" y="151" on="0"/>
        <pt x="607" y="82" on="0"/>
        <pt x="537" y="31" on="0"/>
        <pt x="441" y="0" on="0"/>
        <pt x="385" y="0" on="1"/>
        <pt x="100" y="0" on="1"/>
        <pt x="100" y="694" on="1"/>
      </contour>
      <contour>
        <pt x="327" y="394" on="1"/>
        <pt x="369" y="394" on="0"/>
        <pt x="444" y="414" on="0"/>
        <pt x="499" y="449" on="0"/>
        <pt x="531" y="494" on="0"/>
        <pt x="531" y="519" on="1"/>
        <pt x="531" y="543" on="0"/>
        <pt x="498" y="585" on="0"/>
        <pt x="443" y="617" on="0"/>
        <pt x="368" y="635" on="0"/>
        <pt x="326" y="635" on="1"/>
        <pt x="194" y="635" on="1"/>
        <pt x="194" y="394" on="1"/>
      </contour>
      <contour>
        <pt x="354" y="59" on="1"/>
        <pt x="395" y="59" on="0"/>
        <pt x="469" y="79" on="0"/>
        <pt x="525" y="114" on="0"/>
        <pt x="557" y="161" on="0"/>
        <pt x="557" y="189" on="1"/>
        <pt x="557" y="217" on="0"/>
        <pt x="524" y="268" on="0"/>
        <pt x="465" y="306" on="0"/>
        <pt x="384" y="328" on="0"/>
        <pt x="337" y="328" on="1"/>
        <pt x="194" y="328" on="1"/>
        <pt x="194" y="59" on="1"/>
      </contour>
    </TTGlyph>
    <TTGlyph name="C" xMin="68" yMin="-10" xMax="625" yMax="705">
      <contour>
        <pt x="625" y="46" on="1"/>
        <pt x="600" y="33" on="0"/>
        <pt x="558" y="12" on="0"/>
        <pt x="511" y="-3" on="0"/>
        <pt x="457" y="-10" on="0"/>
        <pt x="420" y="-10" on="1"/>
        <pt x="347" y="-10" on="0"/>
        <pt x="219" y="44" on="0"/>
        <pt x="123" y="140" on="0"/>
        <pt x="68" y="271" on="0"/>
        <pt x="68" y="348" on="1"/>
        <pt x="68" y="420" on="0"/>
        <pt x="120" y="550" on="0"/>
        <pt x="213" y="648" on="0"/>
        <pt x="340" y="705" on="0"/>
        <pt x="414" y="705" on="1"/>
        <pt x="469" y="705" on="0"/>
        <pt x="561" y="691" on="0"/>
        <pt x="613" y="671" on="1"/>
        <pt x="597" y="580" on="1"/>
        <pt x="562" y="606" on="0"/>
        <pt x="467" y="636" on="0"/>
        <pt x="417" y="636" on="1"/>
        <pt x="362" y="636" on="0"/>
        <pt x="271" y="588" on="0"/>
        <pt x="205" y="508" on="0"/>
        <pt x="168" y="405" on="0"/>
        <pt x="168" y="349" on="1"/>
        <pt x="168" y="295" on="0"/>
        <pt x="202" y="191" on="0"/>
        <pt x="267" y="110" on="0"/>
        <pt x="359" y="60" on="0"/>
        <pt x="417" y="60" on="1"/>
        <pt x="455" y="60" on="0"/>
        <pt x="507" y="67" on="0"/>
        <pt x="551" y="82" on="0"/>
        <pt x="593" y="106" on="0"/>
        <pt x="619" y="122" on="1"/>
      </contour>
    </TTGlyph>
    <TTGlyph name="D" xMin="98" yMin="0" xMax="707" yMax="694">
      <contour>
        <pt x="382" y="694" on="1"/>
        <pt x="449" y="694" on="0"/>
        <pt x="567" y="639" on="0"/>
        <pt x="656" y="543" on="0"/>
        <pt x="707" y="415" on="0"/>
        <pt x="707" y="341" on="1"/>
        <pt x="707" y="270" on="0"/>
        <pt x="656" y="146" on="0"/>
        <pt x="568" y="53" on="0"/>
        <pt x="450" y="0" on="0"/>
        <pt x="382" y="0" on="1"/>
        <pt x="98" y="0" on="1"/>
        <pt x="98" y="694" on="1"/>
      </contour>
      <contour>
        <pt x="355" y="59" on="1"/>
        <pt x="405" y="59" on="0"/>
        <pt x="496" y="95" on="0"/>
        <pt x="567" y="166" on="0"/>
        <pt x="609" y="272" on="0"/>
        <pt x="609" y="342" on="1"/>
        <pt x="609" y="411" on="0"/>
        <pt x="568" y="520" on="0"/>
        <pt x="499" y="595" on="0"/>
        <pt x="406" y="635" on="0"/>
        <pt x="355" y="635" on="1"/>
        <pt x="196" y="635" on="1"/>
        <pt x="196" y="59" on="1"/>
      </contour>
    </TTGlyph>
    <TTGlyph name="E" xMin="97" yMin="0" xMax="592" yMax="691">
      <contour>
        <pt x="198" y="326" on="1"/>
        <pt x="198" y="76" on="1"/>
        <pt x="250" y="76" on="1"/>
        <pt x="313" y="76" on="0"/>
        <pt x="439" y="78" on="0"/>
        <pt x="502" y="78" on="1"/>
        <pt x="592" y="78" on="1"/>
        <pt x="592" y="0" on="1"/>
        <pt x="97" y="0" on="1"/>
        <pt x="97" y="691" on="1"/>
        <pt x="577" y="691" on="1"/>
        <pt x="577" y="621" on="1"/>
        <pt x="380" y="621" on="1"/>
        <pt x="371" y="621" on="0"/>
        <pt x="353" y="622" on="0"/>
        <pt x="344" y="622" on="1"/>
        <pt x="198" y="622" on="1"/>
        <pt x="198" y="392" on="1"/>
        <pt x="547" y="392" on="1"/>
        <pt x="547" y="326" on="1"/>
      </contour>
    </TTGlyph>
    <TTGlyph name="F" xMin="97" yMin="0" xMax="563" yMax="691">
      <contour>
        <pt x="198" y="313" on="1"/>
        <pt x="198" y="0" on="1"/>
        <pt x="97" y="0" on="1"/>
        <pt x="97" y="691" on="1"/>
        <pt x="563" y="691" on="1"/>
        <pt x="563" y="621" on="1"/>
        <pt x="373" y="621" on="1"/>
        <pt x="364" y="621" on="0"/>
        <pt x="346" y="622" on="0"/>
        <pt x="337" y="622" on="1"/>
        <pt x="198" y="622" on="1"/>
        <pt x="198" y="379" on="1"/>
        <pt x="518" y="379" on="1"/>
        <pt x="518" y="313" on="1"/>
      </contour>
    </TTGlyph>
    <TTGlyph name="G" xMin="68" yMin="-10" xMax="637" yMax="706">
      <contour>
        <pt x="637" y="39" on="1"/>
        <pt x="589" y="14" on="0"/>
        <pt x="470" y="-10" on="0"/>
        <pt x="416" y="-10" on="1"/>
        <pt x="342" y="-10" on="0"/>
        <pt x="215" y="47" on="0"/>
        <pt x="121" y="145" on="0"/>
        <pt x="68" y="275" on="0"/>
        <pt x="68" y="348" on="1"/>
        <pt x="68" y="423" on="0"/>
        <pt x="122" y="554" on="0"/>
        <pt x="217" y="650" on="0"/>
        <pt x="346" y="706" on="0"/>
        <pt x="422" y="706" on="1"/>
        <pt x="479" y="706" on="0"/>
        <pt x="576" y="682" on="0"/>
        <pt x="628" y="657" on="1"/>
        <pt x="612" y="566" on="1"/>
        <pt x="574" y="598" on="0"/>
        <pt x="481" y="636" on="0"/>
        <pt x="412" y="636" on="1"/>
        <pt x="355" y="636" on="0"/>
        <pt x="265" y="585" on="0"/>
        <pt x="202" y="502" on="0"/>
        <pt x="168" y="399" on="0"/>
        <pt x="168" y="348" on="1"/>
        <pt x="168" y="294" on="0"/>
        <pt x="203" y="191" on="0"/>
        <pt x="267" y="110" on="0"/>
        <pt x="359" y="60" on="0"/>
        <pt x="417" y="60" on="1"/>
        <pt x="451" y="60" on="0"/>
        <pt x="516" y="72" on="0"/>
        <pt x="549" y="80" on="1"/>
        <pt x="549" y="233" on="1"/>
        <pt x="413" y="233" on="1"/>
        <pt x="413" y="299" on="1"/>
        <pt x="637" y="299" on="1"/>
      </contour>
    </TTGlyph>
    <TTGlyph name="Gamma" xMin="97" yMin="0" xMax="533" yMax="691">
      <contour>
        <pt x="198" y="622" on="1"/>
        <pt x="198" y="0" on="1"/>
        <pt x="97" y="0" on="1"/>
        <pt x="97" y="691" on="1"/>
        <pt x="533" y="691" on="1"/>
        <pt x="533" y="621" on="1"/>
        <pt x="358" y="621" on="1"/>
        <pt x="349" y="621" on="0"/>
        <pt x="331" y="622" on="0"/>
        <pt x="322" y="622" on="1"/>
      </contour>
    </TTGlyph>
    <TTGlyph name="H" xMin="97" yMin="0" xMax="652" yMax="694">
      <contour>
        <pt x="652" y="0" on="1"/>
        <pt x="551" y="0" on="1"/>
        <pt x="551" y="328" on="1"/>
        <pt x="198" y="328" on="1"/>
        <pt x="198" y="0" on="1"/>
        <pt x="97" y="0" on="1"/>
        <pt x="97" y="694" on="1"/>
        <pt x="198" y="694" on="1"/>
        <pt x="198" y="394" on="1"/>
        <pt x="551" y="394" on="1"/>
        <pt x="551" y="694" on="1"/>
        <pt x="652" y="694" on="1"/>
      </contour>
    </TTGlyph>
    <TTGlyph name="I" xMin="97" yMin="0" xMax="198" yMax="694">
      <contour>
        <pt x="198" y="0" on="1"/>
        <pt x="97" y="0" on="1"/>
        <pt x="97" y="694" on="1"/>
        <pt x="198" y="694" on="1"/>
      </contour>
    </TTGlyph>
    <TTGlyph name="J" xMin="44" yMin="-21" xMax="413" yMax="694">
      <contour>
        <pt x="413" y="149" on="1"/>
        <pt x="413" y="106" on="0"/>
        <pt x="384" y="42" on="0"/>
        <pt x="334" y="-1" on="0"/>
        <pt x="266" y="-21" on="0"/>
        <pt x="226" y="-21" on="1"/>
        <pt x="179" y="-21" on="0"/>
        <pt x="85" y="1" on="0"/>
        <pt x="44" y="21" on="1"/>
        <pt x="59" y="103" on="1"/>
        <pt x="67" y="95" on="0"/>
        <pt x="90" y="75" on="0"/>
        <pt x="123" y="58" on="0"/>
        <pt x="166" y="46" on="0"/>
        <pt x="193" y="46" on="1"/>
        <pt x="239" y="46" on="0"/>
        <pt x="288" y="74" on="0"/>
        <pt x="311" y="110" on="0"/>
        <pt x="315" y="145" on="0"/>
        <pt x="315" y="153" on="1"/>
        <pt x="315" y="694" on="1"/>
        <pt x="413" y="694" on="1"/>
      </contour>
    </TTGlyph>
    <TTGlyph name="K" xMin="100" yMin="0" xMax="693" yMax="694">
      <contour>
        <pt x="693" y="0" on="1"/>
        <pt x="590" y="0" on="1"/>
        <pt x="333" y="361" on="1"/>
        <pt x="194" y="228" on="1"/>
        <pt x="194" y="0" on="1"/>
        <pt x="100" y="0" on="1"/>
        <pt x="100" y="694" on="1"/>
        <pt x="194" y="694" on="1"/>
        <pt x="194" y="326" on="1"/>
        <pt x="576" y="694" on="1"/>
        <pt x="678" y="694" on="1"/>
        <pt x="394" y="420" on="1"/>
      </contour>
    </TTGlyph>
    <TTGlyph name="L" xMin="97" yMin="0" xMax="533" yMax="694">
      <contour>
        <pt x="198" y="69" on="1"/>
        <pt x="248" y="69" on="1"/>
        <pt x="320" y="69" on="0"/>
        <pt x="461" y="71" on="0"/>
        <pt x="533" y="71" on="1"/>
        <pt x="533" y="0" on="1"/>
        <pt x="97" y="0" on="1"/>
        <pt x="97" y="694" on="1"/>
        <pt x="198" y="694" on="1"/>
      </contour>
    </TTGlyph>
    <TTGlyph name="Lambda" xMin="30" yMin="0" xMax="618" yMax="694">
      <contour>
        <pt x="618" y="0" on="1"/>
        <pt x="511" y="0" on="1"/>
        <pt x="387" y="354" on="1"/>
        <pt x="379" y="378" on="0"/>
        <pt x="356" y="452" on="0"/>
        <pt x="345" y="484" on="1"/>
        <pt x="332" y="525" on="0"/>
        <pt x="314" y="596" on="0"/>
        <pt x="312" y="613" on="1"/>
        <pt x="311" y="613" on="1"/>
        <pt x="310" y="599" on="0"/>
        <pt x="299" y="555" on="0"/>
        <pt x="285" y="508" on="0"/>
        <pt x="270" y="463" on="0"/>
        <pt x="265" y="448" on="1"/>
        <pt x="251" y="403" on="0"/>
        <pt x="223" y="316" on="0"/>
        <pt x="207" y="272" on="1"/>
        <pt x="111" y="0" on="1"/>
        <pt x="30" y="0" on="1"/>
        <pt x="276" y="694" on="1"/>
        <pt x="372" y="694" on="1"/>
      </contour>
    </TTGlyph>
    <TTGlyph name="M" xMin="105" yMin="0" xMax="821" yMax="694">
      <contour>
        <pt x="698" y="694" on="1"/>
        <pt x="821" y="694" on="1"/>
        <pt x="821" y="0" on="1"/>
        <pt x="737" y="0" on="1"/>
        <pt x="737" y="615" on="1"/>
        <pt x="736" y="615" on="1"/>
        <pt x="730" y="594" on="0"/>
        <pt x="701" y="519" on="0"/>
        <pt x="672" y="445" on="0"/>
        <pt x="650" y="389" on="0"/>
        <pt x="650" y="389" on="1"/>
        <pt x="501" y="21" on="1"/>
        <pt x="422" y="21" on="1"/>
        <pt x="255" y="436" on="1"/>
        <pt x="253" y="440" on="0"/>
        <pt x="235" y="487" on="0"/>
        <pt x="213" y="545" on="0"/>
        <pt x="193" y="601" on="0"/>
        <pt x="190" y="614" on="1"/>
        <pt x="189" y="614" on="1"/>
        <pt x="189" y="0" on="1"/>
        <pt x="105" y="0" on="1"/>
        <pt x="105" y="694" on="1"/>
        <pt x="227" y="694" on="1"/>
        <pt x="399" y="269" on="1"/>
        <pt x="403" y="259" on="0"/>
        <pt x="421" y="212" on="0"/>
        <pt x="442" y="158" on="0"/>
        <pt x="459" y="110" on="0"/>
        <pt x="462" y="99" on="1"/>
        <pt x="463" y="99" on="1"/>
        <pt x="466" y="110" on="0"/>
        <pt x="480" y="150" on="0"/>
        <pt x="499" y="200" on="0"/>
        <pt x="520" y="255" on="0"/>
        <pt x="539" y="303" on="0"/>
        <pt x="554" y="340" on="0"/>
        <pt x="557" y="347" on="1"/>
      </contour>
    </TTGlyph>
    <TTGlyph name="N" xMin="100" yMin="0" xMax="649" yMax="694">
      <contour>
        <pt x="564" y="79" on="1"/>
        <pt x="565" y="79" on="1"/>
        <pt x="565" y="694" on="1"/>
        <pt x="649" y="694" on="1"/>
        <pt x="649" y="0" on="1"/>
        <pt x="513" y="0" on="1"/>
        <pt x="185" y="615" on="1"/>
        <pt x="184" y="615" on="1"/>
        <pt x="184" y="0" on="1"/>
        <pt x="100" y="0" on="1"/>
        <pt x="100" y="694" on="1"/>
        <pt x="236" y="694" on="1"/>
      </contour>
    </TTGlyph>
    <TTGlyph name="O" xMin="59" yMin="-21" xMax="725" yMax="715">
      <contour>
        <pt x="725" y="344" on="1"/>
        <pt x="725" y="267" on="0"/>
        <pt x="672" y="133" on="0"/>
        <pt x="580" y="35" on="0"/>
        <pt x="460" y="-21" on="0"/>
        <pt x="392" y="-21" on="1"/>
        <pt x="325" y="-21" on="0"/>
        <pt x="204" y="35" on="0"/>
        <pt x="113" y="133" on="0"/>
        <pt x="59" y="266" on="0"/>
        <pt x="59" y="344" on="1"/>
        <pt x="59" y="422" on="0"/>
        <pt x="112" y="557" on="0"/>
        <pt x="203" y="657" on="0"/>
        <pt x="324" y="715" on="0"/>
        <pt x="392" y="715" on="1"/>
        <pt x="460" y="715" on="0"/>
        <pt x="581" y="657" on="0"/>
        <pt x="672" y="557" on="0"/>
        <pt x="725" y="422" on="0"/>
      </contour>
      <contour>
        <pt x="392" y="50" on="1"/>
        <pt x="437" y="50" on="0"/>
        <pt x="521" y="93" on="0"/>
        <pt x="586" y="174" on="0"/>
        <pt x="624" y="289" on="0"/>
        <pt x="624" y="360" on="1"/>
        <pt x="624" y="426" on="0"/>
        <pt x="585" y="532" on="0"/>
        <pt x="521" y="606" on="0"/>
        <pt x="437" y="646" on="0"/>
        <pt x="392" y="646" on="1"/>
        <pt x="347" y="646" on="0"/>
        <pt x="263" y="606" on="0"/>
        <pt x="199" y="532" on="0"/>
        <pt x="160" y="426" on="0"/>
        <pt x="160" y="360" on="1"/>
        <pt x="160" y="289" on="0"/>
        <pt x="198" y="175" on="0"/>
        <pt x="263" y="94" on="0"/>
        <pt x="347" y="50" on="0"/>
      </contour>
    </TTGlyph>
    <TTGlyph name="OE" xMin="29" yMin="-21" xMax="988" yMax="715">
      <contour>
        <pt x="599" y="76" on="1"/>
        <pt x="651" y="76" on="1"/>
        <pt x="713" y="76" on="0"/>
        <pt x="837" y="78" on="0"/>
        <pt x="899" y="78" on="1"/>
        <pt x="988" y="78" on="1"/>
        <pt x="988" y="0" on="1"/>
        <pt x="553" y="0" on="1"/>
        <pt x="540" y="0" on="0"/>
        <pt x="503" y="-4" on="0"/>
        <pt x="462" y="-11" on="1"/>
        <pt x="438" y="-16" on="0"/>
        <pt x="401" y="-21" on="0"/>
        <pt x="381" y="-21" on="1"/>
        <pt x="311" y="-21" on="0"/>
        <pt x="184" y="35" on="0"/>
        <pt x="87" y="132" on="0"/>
        <pt x="29" y="266" on="0"/>
        <pt x="29" y="344" on="1"/>
        <pt x="29" y="422" on="0"/>
        <pt x="86" y="558" on="0"/>
        <pt x="183" y="658" on="0"/>
        <pt x="311" y="715" on="0"/>
        <pt x="381" y="715" on="1"/>
        <pt x="389" y="715" on="0"/>
        <pt x="425" y="713" on="0"/>
        <pt x="461" y="706" on="1"/>
        <pt x="503" y="697" on="0"/>
        <pt x="540" y="694" on="0"/>
        <pt x="553" y="694" on="1"/>
        <pt x="973" y="694" on="1"/>
        <pt x="973" y="624" on="1"/>
        <pt x="779" y="624" on="1"/>
        <pt x="770" y="624" on="0"/>
        <pt x="752" y="625" on="0"/>
        <pt x="743" y="625" on="1"/>
        <pt x="599" y="625" on="1"/>
        <pt x="599" y="394" on="1"/>
        <pt x="943" y="394" on="1"/>
        <pt x="943" y="328" on="1"/>
        <pt x="599" y="328" on="1"/>
      </contour>
      <contour>
        <pt x="501" y="492" on="1"/>
        <pt x="501" y="543" on="0"/>
        <pt x="489" y="604" on="0"/>
        <pt x="462" y="638" on="0"/>
        <pt x="418" y="649" on="0"/>
        <pt x="387" y="649" on="1"/>
        <pt x="330" y="649" on="0"/>
        <pt x="235" y="603" on="0"/>
        <pt x="166" y="523" on="0"/>
        <pt x="127" y="419" on="0"/>
        <pt x="127" y="360" on="1"/>
        <pt x="127" y="297" on="0"/>
        <pt x="166" y="183" on="0"/>
        <pt x="235" y="96" on="0"/>
        <pt x="330" y="45" on="0"/>
        <pt x="387" y="45" on="1"/>
        <pt x="418" y="45" on="0"/>
        <pt x="462" y="56" on="0"/>
        <pt x="489" y="90" on="0"/>
        <pt x="501" y="151" on="0"/>
        <pt x="501" y="202" on="1"/>
      </contour>
    </TTGlyph>
    <TTGlyph name="Oslash" xMin="59" yMin="-67" xMax="766" yMax="761">
      <contour>
        <pt x="629" y="637" on="1"/>
        <pt x="645" y="625" on="0"/>
        <pt x="692" y="575" on="0"/>
        <pt x="735" y="502" on="0"/>
        <pt x="766" y="404" on="0"/>
        <pt x="766" y="344" on="1"/>
        <pt x="766" y="268" on="0"/>
        <pt x="710" y="135" on="0"/>
        <pt x="614" y="36" on="0"/>
        <pt x="485" y="-21" on="0"/>
        <pt x="412" y="-21" on="1"/>
        <pt x="352" y="-21" on="0"/>
        <pt x="271" y="9" on="0"/>
        <pt x="253" y="18" on="1"/>
        <pt x="201" y="-67" on="1"/>
        <pt x="143" y="-31" on="1"/>
        <pt x="195" y="56" on="1"/>
        <pt x="176" y="71" on="0"/>
        <pt x="128" y="123" on="0"/>
        <pt x="87" y="195" on="0"/>
        <pt x="59" y="288" on="0"/>
        <pt x="59" y="344" on="1"/>
        <pt x="59" y="421" on="0"/>
        <pt x="115" y="556" on="0"/>
        <pt x="211" y="656" on="0"/>
        <pt x="340" y="715" on="0"/>
        <pt x="413" y="715" on="1"/>
        <pt x="442" y="715" on="0"/>
        <pt x="492" y="706" on="0"/>
        <pt x="532" y="694" on="0"/>
        <pt x="563" y="680" on="0"/>
        <pt x="572" y="675" on="1"/>
        <pt x="624" y="761" on="1"/>
        <pt x="682" y="725" on="1"/>
      </contour>
      <contour>
        <pt x="535" y="616" on="1"/>
        <pt x="519" y="626" on="0"/>
        <pt x="455" y="649" on="0"/>
        <pt x="412" y="649" on="1"/>
        <pt x="361" y="649" on="0"/>
        <pt x="268" y="608" on="0"/>
        <pt x="196" y="529" on="0"/>
        <pt x="153" y="416" on="0"/>
        <pt x="153" y="344" on="1"/>
        <pt x="153" y="291" on="0"/>
        <pt x="176" y="210" on="0"/>
        <pt x="205" y="154" on="0"/>
        <pt x="231" y="123" on="0"/>
        <pt x="234" y="120" on="1"/>
      </contour>
      <contour>
        <pt x="290" y="78" on="1"/>
        <pt x="324" y="58" on="0"/>
        <pt x="390" y="45" on="0"/>
        <pt x="413" y="45" on="1"/>
        <pt x="463" y="45" on="0"/>
        <pt x="556" y="85" on="0"/>
        <pt x="628" y="161" on="0"/>
        <pt x="672" y="272" on="0"/>
        <pt x="672" y="344" on="1"/>
        <pt x="672" y="419" on="0"/>
        <pt x="627" y="534" on="0"/>
        <pt x="590" y="572" on="1"/>
      </contour>
    </TTGlyph>
    <TTGlyph name="P" xMin="98" yMin="0" xMax="619" yMax="694">
      <contour>
        <pt x="199" y="285" on="1"/>
        <pt x="199" y="0" on="1"/>
        <pt x="98" y="0" on="1"/>
        <pt x="98" y="694" on="1"/>
        <pt x="368" y="694" on="1"/>
        <pt x="422" y="694" on="0"/>
        <pt x="514" y="661" on="0"/>
        <pt x="581" y="605" on="0"/>
        <pt x="619" y="531" on="0"/>
        <pt x="619" y="491" on="1"/>
        <pt x="619" y="448" on="0"/>
        <pt x="579" y="373" on="0"/>
        <pt x="512" y="317" on="0"/>
        <pt x="423" y="285" on="0"/>
        <pt x="375" y="285" on="1"/>
      </contour>
      <contour>
        <pt x="196" y="635" on="1"/>
        <pt x="196" y="347" on="1"/>
        <pt x="343" y="347" on="1"/>
        <pt x="387" y="347" on="0"/>
        <pt x="456" y="369" on="0"/>
        <pt x="503" y="408" on="0"/>
        <pt x="528" y="460" on="0"/>
        <pt x="528" y="491" on="1"/>
        <pt x="528" y="523" on="0"/>
        <pt x="502" y="575" on="0"/>
        <pt x="454" y="614" on="0"/>
        <pt x="385" y="635" on="0"/>
        <pt x="343" y="635" on="1"/>
      </contour>
    </TTGlyph>
    <TTGlyph name="Phi" xMin="59" yMin="0" xMax="707" yMax="694">
      <contour>
        <pt x="427" y="588" on="1"/>
        <pt x="488" y="582" on="0"/>
        <pt x="590" y="539" on="0"/>
        <pt x="665" y="474" on="0"/>
        <pt x="707" y="392" on="0"/>
        <pt x="707" y="347" on="1"/>
        <pt x="707" y="302" on="0"/>
        <pt x="665" y="220" on="0"/>
        <pt x="590" y="155" on="0"/>
        <pt x="488" y="112" on="0"/>
        <pt x="427" y="106" on="1"/>
        <pt x="427" y="0" on="1"/>
        <pt x="333" y="0" on="1"/>
        <pt x="333" y="107" on="1"/>
        <pt x="275" y="113" on="0"/>
        <pt x="175" y="156" on="0"/>
        <pt x="101" y="221" on="0"/>
        <pt x="59" y="302" on="0"/>
        <pt x="59" y="347" on="1"/>
        <pt x="59" y="392" on="0"/>
        <pt x="101" y="473" on="0"/>
        <pt x="175" y="538" on="0"/>
        <pt x="275" y="581" on="0"/>
        <pt x="333" y="587" on="1"/>
        <pt x="333" y="694" on="1"/>
        <pt x="427" y="694" on="1"/>
      </contour>
      <contour>
        <pt x="333" y="520" on="1"/>
        <pt x="293" y="515" on="0"/>
        <pt x="227" y="484" on="0"/>
        <pt x="182" y="438" on="0"/>
        <pt x="157" y="380" on="0"/>
        <pt x="157" y="347" on="1"/>
        <pt x="157" y="314" on="0"/>
        <pt x="182" y="256" on="0"/>
        <pt x="228" y="210" on="0"/>
        <pt x="293" y="179" on="0"/>
        <pt x="333" y="174" on="1"/>
      </contour>
      <contour>
        <pt x="427" y="173" on="1"/>
        <pt x="473" y="179" on="0"/>
        <pt x="542" y="212" on="0"/>
        <pt x="587" y="260" on="0"/>
        <pt x="609" y="317" on="0"/>
        <pt x="609" y="347" on="1"/>
        <pt x="609" y="377" on="0"/>
        <pt x="587" y="435" on="0"/>
        <pt x="542" y="482" on="0"/>
        <pt x="473" y="515" on="0"/>
        <pt x="427" y="521" on="1"/>
      </contour>
    </TTGlyph>
    <TTGlyph name="Pi" xMin="97" yMin="0" xMax="652" yMax="691">
      <contour>
        <pt x="652" y="0" on="1"/>
        <pt x="551" y="0" on="1"/>
        <pt x="551" y="625" on="1"/>
        <pt x="198" y="625" on="1"/>
        <pt x="198" y="0" on="1"/>
        <pt x="97" y="0" on="1"/>
        <pt x="97" y="691" on="1"/>
        <pt x="652" y="691" on="1"/>
      </contour>
    </TTGlyph>
    <TTGlyph name="Psi" xMin="59" yMin="0" xMax="766" yMax="694">
      <contour>
        <pt x="456" y="176" on="1"/>
        <pt x="510" y="190" on="0"/>
        <pt x="569" y="254" on="0"/>
        <pt x="596" y="332" on="0"/>
        <pt x="601" y="412" on="0"/>
        <pt x="601" y="440" on="1"/>
        <pt x="601" y="501" on="0"/>
        <pt x="613" y="571" on="0"/>
        <pt x="635" y="607" on="0"/>
        <pt x="665" y="616" on="0"/>
        <pt x="682" y="616" on="1"/>
        <pt x="766" y="616" on="1"/>
        <pt x="766" y="550" on="1"/>
        <pt x="742" y="549" on="0"/>
        <pt x="713" y="519" on="0"/>
        <pt x="699" y="479" on="0"/>
        <pt x="695" y="439" on="0"/>
        <pt x="695" y="428" on="1"/>
        <pt x="695" y="411" on="0"/>
        <pt x="693" y="355" on="0"/>
        <pt x="679" y="289" on="0"/>
        <pt x="650" y="219" on="0"/>
        <pt x="597" y="159" on="0"/>
        <pt x="515" y="115" on="0"/>
        <pt x="456" y="107" on="1"/>
        <pt x="456" y="0" on="1"/>
        <pt x="362" y="0" on="1"/>
        <pt x="362" y="107" on="1"/>
        <pt x="304" y="115" on="0"/>
        <pt x="217" y="166" on="0"/>
        <pt x="159" y="244" on="0"/>
        <pt x="130" y="344" on="0"/>
        <pt x="130" y="402" on="1"/>
        <pt x="130" y="420" on="0"/>
        <pt x="128" y="470" on="0"/>
        <pt x="114" y="516" on="0"/>
        <pt x="85" y="549" on="0"/>
        <pt x="59" y="550" on="1"/>
        <pt x="59" y="616" on="1"/>
        <pt x="143" y="616" on="1"/>
        <pt x="167" y="616" on="0"/>
        <pt x="199" y="597" on="0"/>
        <pt x="217" y="553" on="0"/>
        <pt x="224" y="479" on="0"/>
        <pt x="224" y="423" on="1"/>
        <pt x="224" y="398" on="0"/>
        <pt x="230" y="324" on="0"/>
        <pt x="257" y="251" on="0"/>
        <pt x="313" y="190" on="0"/>
        <pt x="362" y="176" on="1"/>
        <pt x="362" y="694" on="1"/>
        <pt x="456" y="694" on="1"/>
      </contour>
    </TTGlyph>
    <TTGlyph name="Q" xMin="59" yMin="-128" xMax="725" yMax="715">
      <contour>
        <pt x="695" y="-128" on="1"/>
        <pt x="577" y="-128" on="1"/>
        <pt x="488" y="-6" on="1"/>
        <pt x="480" y="-8" on="0"/>
        <pt x="426" y="-21" on="0"/>
        <pt x="392" y="-21" on="1"/>
        <pt x="325" y="-21" on="0"/>
        <pt x="204" y="35" on="0"/>
        <pt x="113" y="133" on="0"/>
        <pt x="59" y="266" on="0"/>
        <pt x="59" y="344" on="1"/>
        <pt x="59" y="422" on="0"/>
        <pt x="112" y="557" on="0"/>
        <pt x="203" y="657" on="0"/>
        <pt x="324" y="715" on="0"/>
        <pt x="392" y="715" on="1"/>
        <pt x="460" y="715" on="0"/>
        <pt x="581" y="657" on="0"/>
        <pt x="672" y="557" on="0"/>
        <pt x="725" y="422" on="0"/>
        <pt x="725" y="344" on="1"/>
        <pt x="725" y="247" on="0"/>
        <pt x="642" y="86" on="0"/>
        <pt x="568" y="33" on="1"/>
      </contour>
      <contour>
        <pt x="343" y="194" on="1"/>
        <pt x="441" y="194" on="1"/>
        <pt x="521" y="94" on="1"/>
        <pt x="569" y="132" on="0"/>
        <pt x="627" y="259" on="0"/>
        <pt x="627" y="344" on="1"/>
        <pt x="627" y="413" on="0"/>
        <pt x="588" y="525" on="0"/>
        <pt x="523" y="603" on="0"/>
        <pt x="438" y="646" on="0"/>
        <pt x="392" y="646" on="1"/>
        <pt x="346" y="646" on="0"/>
        <pt x="261" y="603" on="0"/>
        <pt x="196" y="525" on="0"/>
        <pt x="157" y="413" on="0"/>
        <pt x="157" y="344" on="1"/>
        <pt x="157" y="276" on="0"/>
        <pt x="196" y="166" on="0"/>
        <pt x="261" y="89" on="0"/>
        <pt x="346" y="48" on="0"/>
        <pt x="392" y="48" on="1"/>
        <pt x="402" y="48" on="0"/>
        <pt x="431" y="51" on="0"/>
        <pt x="444" y="55" on="1"/>
      </contour>
    </TTGlyph>
    <TTGlyph name="R" xMin="98" yMin="0" xMax="657" yMax="694">
      <contour>
        <pt x="657" y="0" on="1"/>
        <pt x="556" y="0" on="1"/>
        <pt x="361" y="314" on="1"/>
        <pt x="196" y="314" on="1"/>
        <pt x="196" y="0" on="1"/>
        <pt x="98" y="0" on="1"/>
        <pt x="98" y="694" on="1"/>
        <pt x="361" y="694" on="1"/>
        <pt x="415" y="694" on="0"/>
        <pt x="512" y="665" on="0"/>
        <pt x="585" y="614" on="0"/>
        <pt x="628" y="546" on="0"/>
        <pt x="628" y="507" on="1"/>
        <pt x="628" y="487" on="0"/>
        <pt x="612" y="436" on="0"/>
        <pt x="572" y="386" on="0"/>
        <pt x="503" y="340" on="0"/>
        <pt x="449" y="324" on="1"/>
      </contour>
      <contour>
        <pt x="348" y="380" on="1"/>
        <pt x="393" y="380" on="0"/>
        <pt x="463" y="400" on="0"/>
        <pt x="512" y="435" on="0"/>
        <pt x="537" y="481" on="0"/>
        <pt x="537" y="507" on="1"/>
        <pt x="537" y="563" on="0"/>
        <pt x="435" y="635" on="0"/>
        <pt x="348" y="635" on="1"/>
        <pt x="196" y="635" on="1"/>
        <pt x="196" y="380" on="1"/>
      </contour>
    </TTGlyph>
    <TTGlyph name="S" xMin="47" yMin="-21" xMax="530" yMax="715">
      <contour>
        <pt x="478" y="576" on="1"/>
        <pt x="440" y="608" on="0"/>
        <pt x="355" y="643" on="0"/>
        <pt x="298" y="643" on="1"/>
        <pt x="262" y="643" on="0"/>
        <pt x="205" y="623" on="0"/>
        <pt x="166" y="591" on="0"/>
        <pt x="145" y="550" on="0"/>
        <pt x="145" y="529" on="1"/>
        <pt x="145" y="500" on="0"/>
        <pt x="171" y="465" on="0"/>
        <pt x="181" y="455" on="1"/>
        <pt x="199" y="438" on="0"/>
        <pt x="252" y="421" on="0"/>
        <pt x="298" y="410" on="1"/>
        <pt x="327" y="403" on="0"/>
        <pt x="374" y="391" on="0"/>
        <pt x="413" y="376" on="0"/>
        <pt x="447" y="355" on="0"/>
        <pt x="463" y="340" on="1"/>
        <pt x="471" y="332" on="0"/>
        <pt x="493" y="307" on="0"/>
        <pt x="515" y="270" on="0"/>
        <pt x="530" y="222" on="0"/>
        <pt x="530" y="192" on="1"/>
        <pt x="530" y="150" on="0"/>
        <pt x="495" y="73" on="0"/>
        <pt x="432" y="14" on="0"/>
        <pt x="344" y="-21" on="0"/>
        <pt x="292" y="-21" on="1"/>
        <pt x="250" y="-21" on="0"/>
        <pt x="177" y="-8" on="0"/>
        <pt x="116" y="13" on="0"/>
        <pt x="66" y="37" on="0"/>
        <pt x="47" y="48" on="1"/>
        <pt x="63" y="138" on="1"/>
        <pt x="93" y="113" on="0"/>
        <pt x="155" y="80" on="0"/>
        <pt x="215" y="61" on="0"/>
        <pt x="270" y="54" on="0"/>
        <pt x="291" y="54" on="1"/>
        <pt x="327" y="54" on="0"/>
        <pt x="384" y="76" on="0"/>
        <pt x="423" y="112" on="0"/>
        <pt x="444" y="157" on="0"/>
        <pt x="444" y="180" on="1"/>
        <pt x="444" y="206" on="0"/>
        <pt x="423" y="247" on="0"/>
        <pt x="409" y="261" on="1"/>
        <pt x="398" y="272" on="0"/>
        <pt x="377" y="287" on="0"/>
        <pt x="347" y="298" on="0"/>
        <pt x="305" y="309" on="0"/>
        <pt x="273" y="316" on="1"/>
        <pt x="226" y="327" on="0"/>
        <pt x="154" y="351" on="0"/>
        <pt x="121" y="382" on="1"/>
        <pt x="84" y="417" on="0"/>
        <pt x="59" y="486" on="0"/>
        <pt x="59" y="517" on="1"/>
        <pt x="59" y="553" on="0"/>
        <pt x="92" y="624" on="0"/>
        <pt x="153" y="680" on="0"/>
        <pt x="242" y="715" on="0"/>
        <pt x="299" y="715" on="1"/>
        <pt x="355" y="715" on="0"/>
        <pt x="446" y="691" on="0"/>
        <pt x="494" y="666" on="1"/>
      </contour>
    </TTGlyph>
    <TTGlyph name="Sigma" xMin="59" yMin="0" xMax="707" yMax="694">
      <contour>
        <pt x="224" y="75" on="1"/>
        <pt x="419" y="75" on="1"/>
        <pt x="428" y="75" on="0"/>
        <pt x="446" y="76" on="0"/>
        <pt x="455" y="76" on="1"/>
        <pt x="707" y="76" on="1"/>
        <pt x="707" y="0" on="1"/>
        <pt x="59" y="0" on="1"/>
        <pt x="307" y="332" on="1"/>
        <pt x="59" y="625" on="1"/>
        <pt x="59" y="694" on="1"/>
        <pt x="707" y="694" on="1"/>
        <pt x="707" y="624" on="1"/>
        <pt x="434" y="624" on="1"/>
        <pt x="425" y="624" on="0"/>
        <pt x="407" y="625" on="0"/>
        <pt x="398" y="625" on="1"/>
        <pt x="191" y="625" on="1"/>
        <pt x="427" y="347" on="1"/>
      </contour>
    </TTGlyph>
    <TTGlyph name="T" xMin="38" yMin="0" xMax="687" yMax="687">
      <contour>
        <pt x="413" y="0" on="1"/>
        <pt x="312" y="0" on="1"/>
        <pt x="312" y="618" on="1"/>
        <pt x="218" y="618" on="1"/>
        <pt x="209" y="618" on="0"/>
        <pt x="191" y="617" on="0"/>
        <pt x="182" y="617" on="1"/>
        <pt x="38" y="617" on="1"/>
        <pt x="38" y="687" on="1"/>
        <pt x="687" y="687" on="1"/>
        <pt x="687" y="617" on="1"/>
        <pt x="543" y="617" on="1"/>
        <pt x="534" y="617" on="0"/>
        <pt x="516" y="618" on="0"/>
        <pt x="507" y="618" on="1"/>
        <pt x="413" y="618" on="1"/>
      </contour>
    </TTGlyph>
    <TTGlyph name="Theta" xMin="59" yMin="-21" xMax="766" yMax="715">
      <contour>
        <pt x="766" y="344" on="1"/>
        <pt x="766" y="268" on="0"/>
        <pt x="710" y="135" on="0"/>
        <pt x="614" y="36" on="0"/>
        <pt x="485" y="-21" on="0"/>
        <pt x="412" y="-21" on="1"/>
        <pt x="340" y="-21" on="0"/>
        <pt x="212" y="35" on="0"/>
        <pt x="116" y="134" on="0"/>
        <pt x="59" y="267" on="0"/>
        <pt x="59" y="344" on="1"/>
        <pt x="59" y="421" on="0"/>
        <pt x="115" y="556" on="0"/>
        <pt x="211" y="656" on="0"/>
        <pt x="340" y="715" on="0"/>
        <pt x="413" y="715" on="1"/>
        <pt x="485" y="715" on="0"/>
        <pt x="614" y="657" on="0"/>
        <pt x="710" y="557" on="0"/>
        <pt x="766" y="421" on="0"/>
      </contour>
      <contour>
        <pt x="413" y="47" on="1"/>
        <pt x="464" y="47" on="0"/>
        <pt x="558" y="89" on="0"/>
        <pt x="630" y="167" on="0"/>
        <pt x="672" y="277" on="0"/>
        <pt x="672" y="344" on="1"/>
        <pt x="672" y="412" on="0"/>
        <pt x="630" y="524" on="0"/>
        <pt x="559" y="604" on="0"/>
        <pt x="465" y="649" on="0"/>
        <pt x="412" y="649" on="1"/>
        <pt x="361" y="649" on="0"/>
        <pt x="267" y="605" on="0"/>
        <pt x="195" y="525" on="0"/>
        <pt x="153" y="413" on="0"/>
        <pt x="153" y="344" on="1"/>
        <pt x="153" y="278" on="0"/>
        <pt x="195" y="169" on="0"/>
        <pt x="266" y="90" on="0"/>
        <pt x="360" y="47" on="0"/>
      </contour>
      <contour>
        <pt x="612" y="395" on="1"/>
        <pt x="612" y="301" on="1"/>
        <pt x="213" y="301" on="1"/>
        <pt x="213" y="395" on="1"/>
      </contour>
    </TTGlyph>
    <TTGlyph name="U" xMin="97" yMin="-21" xMax="631" yMax="694">
      <contour>
        <pt x="631" y="234" on="1"/>
        <pt x="631" y="179" on="0"/>
        <pt x="589" y="86" on="0"/>
        <pt x="517" y="18" on="0"/>
        <pt x="421" y="-21" on="0"/>
        <pt x="367" y="-21" on="1"/>
        <pt x="313" y="-21" on="0"/>
        <pt x="215" y="17" on="0"/>
        <pt x="141" y="85" on="0"/>
        <pt x="97" y="179" on="0"/>
        <pt x="97" y="234" on="1"/>
        <pt x="97" y="694" on="1"/>
        <pt x="198" y="694" on="1"/>
        <pt x="198" y="232" on="1"/>
        <pt x="198" y="183" on="0"/>
        <pt x="227" y="110" on="0"/>
        <pt x="275" y="62" on="0"/>
        <pt x="336" y="38" on="0"/>
        <pt x="368" y="38" on="1"/>
        <pt x="400" y="38" on="0"/>
        <pt x="463" y="61" on="0"/>
        <pt x="513" y="109" on="0"/>
        <pt x="544" y="183" on="0"/>
        <pt x="544" y="233" on="1"/>
        <pt x="544" y="694" on="1"/>
        <pt x="631" y="694" on="1"/>
      </contour>
    </TTGlyph>
    <TTGlyph name="Upsilon" xMin="59" yMin="0" xMax="766" yMax="715">
      <contour>
        <pt x="463" y="0" on="1"/>
        <pt x="362" y="0" on="1"/>
        <pt x="362" y="370" on="1"/>
        <pt x="362" y="498" on="0"/>
        <pt x="299" y="639" on="0"/>
        <pt x="230" y="639" on="1"/>
        <pt x="195" y="639" on="0"/>
        <pt x="148" y="593" on="0"/>
        <pt x="146" y="555" on="1"/>
        <pt x="59" y="555" on="1"/>
        <pt x="60" y="593" on="0"/>
        <pt x="89" y="652" on="0"/>
        <pt x="137" y="693" on="0"/>
        <pt x="197" y="715" on="0"/>
        <pt x="228" y="715" on="1"/>
        <pt x="281" y="715" on="0"/>
        <pt x="348" y="663" on="0"/>
        <pt x="388" y="591" on="0"/>
        <pt x="408" y="515" on="0"/>
        <pt x="412" y="491" on="1"/>
        <pt x="413" y="491" on="1"/>
        <pt x="415" y="503" on="0"/>
        <pt x="423" y="545" on="0"/>
        <pt x="440" y="595" on="0"/>
        <pt x="466" y="646" on="0"/>
        <pt x="506" y="688" on="0"/>
        <pt x="560" y="715" on="0"/>
        <pt x="597" y="715" on="1"/>
        <pt x="628" y="715" on="0"/>
        <pt x="688" y="693" on="0"/>
        <pt x="736" y="652" on="0"/>
        <pt x="765" y="593" on="0"/>
        <pt x="766" y="555" on="1"/>
        <pt x="679" y="555" on="1"/>
        <pt x="677" y="593" on="0"/>
        <pt x="630" y="639" on="0"/>
        <pt x="595" y="639" on="1"/>
        <pt x="559" y="639" on="0"/>
        <pt x="509" y="600" on="0"/>
        <pt x="477" y="530" on="0"/>
        <pt x="463" y="430" on="0"/>
        <pt x="463" y="370" on="1"/>
      </contour>
    </TTGlyph>
    <TTGlyph name="V" xMin="15" yMin="0" xMax="692" yMax="694">
      <contour>
        <pt x="404" y="0" on="1"/>
        <pt x="303" y="0" on="1"/>
        <pt x="15" y="694" on="1"/>
        <pt x="121" y="694" on="1"/>
        <pt x="249" y="382" on="1"/>
        <pt x="250" y="380" on="0"/>
        <pt x="266" y="340" on="0"/>
        <pt x="290" y="281" on="0"/>
        <pt x="318" y="211" on="0"/>
        <pt x="342" y="145" on="0"/>
        <pt x="360" y="92" on="0"/>
        <pt x="363" y="79" on="1"/>
        <pt x="364" y="79" on="1"/>
        <pt x="366" y="92" on="0"/>
        <pt x="384" y="144" on="0"/>
        <pt x="408" y="210" on="0"/>
        <pt x="436" y="281" on="0"/>
        <pt x="460" y="341" on="0"/>
        <pt x="477" y="383" on="0"/>
        <pt x="479" y="387" on="1"/>
        <pt x="605" y="694" on="1"/>
        <pt x="692" y="694" on="1"/>
      </contour>
    </TTGlyph>
    <TTGlyph name="W" xMin="15" yMin="0" xMax="987" yMax="694">
      <contour>
        <pt x="770" y="0" on="1"/>
        <pt x="678" y="0" on="1"/>
        <pt x="630" y="153" on="1"/>
        <pt x="547" y="426" on="1"/>
        <pt x="540" y="448" on="0"/>
        <pt x="525" y="499" on="0"/>
        <pt x="511" y="550" on="0"/>
        <pt x="500" y="596" on="0"/>
        <pt x="498" y="614" on="1"/>
        <pt x="497" y="614" on="1"/>
        <pt x="494" y="594" on="0"/>
        <pt x="481" y="542" on="0"/>
        <pt x="469" y="502" on="1"/>
        <pt x="420" y="335" on="1"/>
        <pt x="317" y="0" on="1"/>
        <pt x="232" y="0" on="1"/>
        <pt x="15" y="694" on="1"/>
        <pt x="110" y="694" on="1"/>
        <pt x="203" y="392" on="1"/>
        <pt x="204" y="389" on="0"/>
        <pt x="216" y="350" on="0"/>
        <pt x="233" y="291" on="0"/>
        <pt x="254" y="220" on="0"/>
        <pt x="271" y="153" on="0"/>
        <pt x="284" y="96" on="0"/>
        <pt x="286" y="81" on="1"/>
        <pt x="287" y="81" on="1"/>
        <pt x="289" y="97" on="0"/>
        <pt x="301" y="151" on="0"/>
        <pt x="318" y="215" on="0"/>
        <pt x="337" y="283" on="0"/>
        <pt x="355" y="341" on="0"/>
        <pt x="368" y="386" on="0"/>
        <pt x="371" y="394" on="1"/>
        <pt x="464" y="694" on="1"/>
        <pt x="548" y="694" on="1"/>
        <pt x="648" y="372" on="1"/>
        <pt x="649" y="371" on="0"/>
        <pt x="660" y="333" on="0"/>
        <pt x="677" y="277" on="0"/>
        <pt x="696" y="209" on="0"/>
        <pt x="714" y="145" on="0"/>
        <pt x="726" y="93" on="0"/>
        <pt x="728" y="80" on="1"/>
        <pt x="729" y="80" on="1"/>
        <pt x="731" y="94" on="0"/>
        <pt x="744" y="145" on="0"/>
        <pt x="761" y="208" on="0"/>
        <pt x="781" y="275" on="0"/>
        <pt x="798" y="333" on="0"/>
        <pt x="810" y="374" on="0"/>
        <pt x="812" y="379" on="1"/>
        <pt x="909" y="694" on="1"/>
        <pt x="987" y="694" on="1"/>
      </contour>
    </TTGlyph>
    <TTGlyph name="X" xMin="15" yMin="0" xMax="692" yMax="694">
      <contour>
        <pt x="692" y="0" on="1"/>
        <pt x="573" y="0" on="1"/>
        <pt x="346" y="301" on="1"/>
        <pt x="124" y="0" on="1"/>
        <pt x="15" y="0" on="1"/>
        <pt x="297" y="366" on="1"/>
        <pt x="30" y="694" on="1"/>
        <pt x="149" y="694" on="1"/>
        <pt x="346" y="438" on="1"/>
        <pt x="539" y="694" on="1"/>
        <pt x="648" y="694" on="1"/>
        <pt x="395" y="366" on="1"/>
      </contour>
    </TTGlyph>
    <TTGlyph name="Xi" xMin="44" yMin="0" xMax="663" yMax="687">
      <contour>
        <pt x="50" y="602" on="1"/>
        <pt x="50" y="687" on="1"/>
        <pt x="657" y="687" on="1"/>
        <pt x="657" y="602" on="1"/>
        <pt x="523" y="602" on="1"/>
        <pt x="481" y="602" on="0"/>
        <pt x="395" y="603" on="0"/>
        <pt x="353" y="603" on="1"/>
        <pt x="311" y="603" on="0"/>
        <pt x="226" y="602" on="0"/>
        <pt x="184" y="602" on="1"/>
      </contour>
      <contour>
        <pt x="663" y="85" on="1"/>
        <pt x="663" y="0" on="1"/>
        <pt x="44" y="0" on="1"/>
        <pt x="44" y="85" on="1"/>
        <pt x="181" y="85" on="1"/>
        <pt x="224" y="85" on="0"/>
        <pt x="311" y="84" on="0"/>
        <pt x="354" y="84" on="1"/>
        <pt x="397" y="84" on="0"/>
        <pt x="483" y="85" on="0"/>
        <pt x="526" y="85" on="1"/>
      </contour>
      <contour>
        <pt x="589" y="399" on="1"/>
        <pt x="589" y="315" on="1"/>
        <pt x="118" y="315" on="1"/>
        <pt x="118" y="399" on="1"/>
      </contour>
    </TTGlyph>
    <TTGlyph name="Y" xMin="3" yMin="0" xMax="704" yMax="694">
      <contour>
        <pt x="403" y="278" on="1"/>
        <pt x="403" y="0" on="1"/>
        <pt x="305" y="0" on="1"/>
        <pt x="305" y="278" on="1"/>
        <pt x="3" y="694" on="1"/>
        <pt x="124" y="694" on="1"/>
        <pt x="365" y="358" on="1"/>
        <pt x="604" y="694" on="1"/>
        <pt x="704" y="694" on="1"/>
      </contour>
    </TTGlyph>
    <TTGlyph name="Z" xMin="59" yMin="0" xMax="595" yMax="694">
      <contour>
        <pt x="189" y="69" on="1"/>
        <pt x="266" y="69" on="0"/>
        <pt x="418" y="71" on="0"/>
        <pt x="495" y="71" on="1"/>
        <pt x="595" y="71" on="1"/>
        <pt x="595" y="0" on="1"/>
        <pt x="59" y="0" on="1"/>
        <pt x="59" y="46" on="1"/>
        <pt x="460" y="628" on="1"/>
        <pt x="323" y="628" on="1"/>
        <pt x="312" y="628" on="0"/>
        <pt x="294" y="627" on="0"/>
        <pt x="283" y="627" on="1"/>
        <pt x="74" y="627" on="1"/>
        <pt x="74" y="694" on="1"/>
        <pt x="589" y="694" on="1"/>
        <pt x="589" y="650" on="1"/>
      </contour>
    </TTGlyph>
    <TTGlyph name="a" xMin="45" yMin="-10" xMax="426" yMax="459">
      <contour>
        <pt x="426" y="0" on="1"/>
        <pt x="342" y="0" on="1"/>
        <pt x="342" y="38" on="1"/>
        <pt x="322" y="23" on="0"/>
        <pt x="275" y="5" on="0"/>
        <pt x="227" y="-6" on="0"/>
        <pt x="183" y="-10" on="0"/>
        <pt x="167" y="-10" on="1"/>
        <pt x="134" y="-10" on="0"/>
        <pt x="88" y="16" on="0"/>
        <pt x="58" y="55" on="0"/>
        <pt x="45" y="99" on="0"/>
        <pt x="45" y="118" on="1"/>
        <pt x="45" y="153" on="0"/>
        <pt x="95" y="201" on="0"/>
        <pt x="178" y="231" on="0"/>
        <pt x="284" y="245" on="0"/>
        <pt x="339" y="247" on="1"/>
        <pt x="339" y="287" on="1"/>
        <pt x="339" y="315" on="0"/>
        <pt x="323" y="356" on="0"/>
        <pt x="298" y="382" on="0"/>
        <pt x="266" y="395" on="0"/>
        <pt x="249" y="395" on="1"/>
        <pt x="190" y="395" on="0"/>
        <pt x="113" y="360" on="0"/>
        <pt x="88" y="343" on="1"/>
        <pt x="82" y="416" on="1"/>
        <pt x="124" y="439" on="0"/>
        <pt x="201" y="459" on="0"/>
        <pt x="249" y="459" on="1"/>
        <pt x="286" y="459" on="0"/>
        <pt x="351" y="434" on="0"/>
        <pt x="399" y="389" on="0"/>
        <pt x="426" y="326" on="0"/>
        <pt x="426" y="288" on="1"/>
      </contour>
      <contour>
        <pt x="339" y="191" on="1"/>
        <pt x="322" y="190" on="0"/>
        <pt x="251" y="186" on="0"/>
        <pt x="179" y="171" on="0"/>
        <pt x="125" y="143" on="0"/>
        <pt x="125" y="119" on="1"/>
        <pt x="125" y="90" on="0"/>
        <pt x="180" y="56" on="0"/>
        <pt x="222" y="56" on="1"/>
        <pt x="230" y="56" on="0"/>
        <pt x="280" y="61" on="0"/>
        <pt x="304" y="75" on="1"/>
        <pt x="330" y="91" on="0"/>
        <pt x="339" y="127" on="0"/>
        <pt x="339" y="142" on="1"/>
      </contour>
    </TTGlyph>
    <TTGlyph name="acute" xMin="217" yMin="527" xMax="441" yMax="694">
      <contour>
        <pt x="283" y="527" on="1"/>
        <pt x="217" y="527" on="1"/>
        <pt x="354" y="694" on="1"/>
        <pt x="441" y="694" on="1"/>
      </contour>
    </TTGlyph>
    <TTGlyph name="ae" xMin="49" yMin="-10" xMax="736" yMax="459">
      <contour>
        <pt x="731" y="38" on="1"/>
        <pt x="721" y="31" on="0"/>
        <pt x="691" y="15" on="0"/>
        <pt x="651" y="0" on="0"/>
        <pt x="603" y="-10" on="0"/>
        <pt x="576" y="-10" on="1"/>
        <pt x="542" y="-10" on="0"/>
        <pt x="486" y="6" on="0"/>
        <pt x="443" y="29" on="0"/>
        <pt x="413" y="54" on="0"/>
        <pt x="404" y="63" on="1"/>
        <pt x="385" y="36" on="0"/>
        <pt x="315" y="6" on="0"/>
        <pt x="243" y="-8" on="0"/>
        <pt x="183" y="-10" on="0"/>
        <pt x="172" y="-10" on="1"/>
        <pt x="132" y="-10" on="0"/>
        <pt x="83" y="23" on="0"/>
        <pt x="57" y="66" on="0"/>
        <pt x="49" y="109" on="0"/>
        <pt x="49" y="118" on="1"/>
        <pt x="49" y="178" on="0"/>
        <pt x="202" y="245" on="0"/>
        <pt x="340" y="249" on="1"/>
        <pt x="340" y="273" on="0"/>
        <pt x="339" y="304" on="0"/>
        <pt x="336" y="326" on="0"/>
        <pt x="329" y="343" on="0"/>
        <pt x="323" y="353" on="1"/>
        <pt x="313" y="369" on="0"/>
        <pt x="291" y="386" on="0"/>
        <pt x="270" y="394" on="0"/>
        <pt x="253" y="395" on="0"/>
        <pt x="249" y="395" on="1"/>
        <pt x="218" y="395" on="0"/>
        <pt x="168" y="384" on="0"/>
        <pt x="128" y="368" on="0"/>
        <pt x="99" y="350" on="0"/>
        <pt x="88" y="343" on="1"/>
        <pt x="82" y="416" on="1"/>
        <pt x="124" y="438" on="0"/>
        <pt x="202" y="459" on="0"/>
        <pt x="249" y="459" on="1"/>
        <pt x="279" y="459" on="0"/>
        <pt x="327" y="445" on="0"/>
        <pt x="364" y="423" on="0"/>
        <pt x="390" y="396" on="0"/>
        <pt x="398" y="384" on="1"/>
        <pt x="405" y="391" on="0"/>
        <pt x="433" y="416" on="0"/>
        <pt x="473" y="441" on="0"/>
        <pt x="527" y="459" on="0"/>
        <pt x="560" y="459" on="1"/>
        <pt x="611" y="459" on="0"/>
        <pt x="679" y="416" on="0"/>
        <pt x="719" y="347" on="0"/>
        <pt x="736" y="262" on="0"/>
        <pt x="736" y="219" on="1"/>
        <pt x="427" y="219" on="1"/>
        <pt x="429" y="182" on="0"/>
        <pt x="455" y="122" on="0"/>
        <pt x="496" y="79" on="0"/>
        <pt x="549" y="56" on="0"/>
        <pt x="578" y="56" on="1"/>
        <pt x="613" y="56" on="0"/>
        <pt x="691" y="81" on="0"/>
        <pt x="725" y="109" on="1"/>
      </contour>
      <contour>
        <pt x="672" y="279" on="1"/>
        <pt x="666" y="317" on="0"/>
        <pt x="638" y="362" on="0"/>
        <pt x="605" y="386" on="0"/>
        <pt x="572" y="393" on="0"/>
        <pt x="561" y="393" on="1"/>
        <pt x="519" y="393" on="0"/>
        <pt x="448" y="332" on="0"/>
        <pt x="434" y="279" on="1"/>
      </contour>
      <contour>
        <pt x="342" y="189" on="1"/>
        <pt x="326" y="189" on="0"/>
        <pt x="255" y="184" on="0"/>
        <pt x="183" y="170" on="0"/>
        <pt x="129" y="143" on="0"/>
        <pt x="129" y="120" on="1"/>
        <pt x="129" y="94" on="0"/>
        <pt x="179" y="56" on="0"/>
        <pt x="225" y="56" on="1"/>
        <pt x="234" y="56" on="0"/>
        <pt x="275" y="58" on="0"/>
        <pt x="316" y="71" on="0"/>
        <pt x="347" y="99" on="0"/>
        <pt x="347" y="124" on="1"/>
        <pt x="347" y="135" on="0"/>
        <pt x="344" y="177" on="0"/>
      </contour>
    </TTGlyph>
    <TTGlyph name="ampersand" xMin="44" yMin="-21" xMax="746" yMax="715">
      <contour>
        <pt x="708" y="387" on="1"/>
        <pt x="690" y="324" on="0"/>
        <pt x="639" y="224" on="0"/>
        <pt x="585" y="149" on="0"/>
        <pt x="533" y="97" on="0"/>
        <pt x="513" y="82" on="1"/>
        <pt x="550" y="58" on="0"/>
        <pt x="607" y="48" on="0"/>
        <pt x="623" y="48" on="1"/>
        <pt x="643" y="48" on="0"/>
        <pt x="706" y="55" on="0"/>
        <pt x="746" y="67" on="1"/>
        <pt x="746" y="-6" on="1"/>
        <pt x="704" y="-17" on="0"/>
        <pt x="636" y="-21" on="0"/>
        <pt x="623" y="-21" on="1"/>
        <pt x="610" y="-21" on="0"/>
        <pt x="575" y="-18" on="0"/>
        <pt x="530" y="-6" on="0"/>
        <pt x="478" y="17" on="0"/>
        <pt x="449" y="37" on="1"/>
        <pt x="387" y="1" on="0"/>
        <pt x="276" y="-21" on="0"/>
        <pt x="239" y="-21" on="1"/>
        <pt x="197" y="-21" on="0"/>
        <pt x="126" y="6" on="0"/>
        <pt x="73" y="52" on="0"/>
        <pt x="44" y="114" on="0"/>
        <pt x="44" y="149" on="1"/>
        <pt x="44" y="178" on="0"/>
        <pt x="60" y="221" on="0"/>
        <pt x="85" y="255" on="0"/>
        <pt x="114" y="281" on="0"/>
        <pt x="127" y="291" on="1"/>
        <pt x="203" y="351" on="1"/>
        <pt x="172" y="436" on="0"/>
        <pt x="172" y="512" on="1"/>
        <pt x="172" y="552" on="0"/>
        <pt x="192" y="626" on="0"/>
        <pt x="231" y="682" on="0"/>
        <pt x="286" y="715" on="0"/>
        <pt x="320" y="715" on="1"/>
        <pt x="351" y="715" on="0"/>
        <pt x="401" y="688" on="0"/>
        <pt x="437" y="643" on="0"/>
        <pt x="457" y="586" on="0"/>
        <pt x="457" y="556" on="1"/>
        <pt x="457" y="525" on="0"/>
        <pt x="428" y="468" on="0"/>
        <pt x="381" y="414" on="0"/>
        <pt x="324" y="364" on="0"/>
        <pt x="296" y="341" on="1"/>
        <pt x="314" y="307" on="0"/>
        <pt x="358" y="241" on="0"/>
        <pt x="403" y="185" on="0"/>
        <pt x="444" y="140" on="0"/>
        <pt x="459" y="126" on="1"/>
        <pt x="511" y="166" on="0"/>
        <pt x="609" y="301" on="0"/>
        <pt x="641" y="406" on="1"/>
      </contour>
      <contour>
        <pt x="268" y="404" on="1"/>
        <pt x="303" y="432" on="0"/>
        <pt x="348" y="477" on="0"/>
        <pt x="373" y="514" on="0"/>
        <pt x="383" y="544" on="0"/>
        <pt x="383" y="557" on="1"/>
        <pt x="383" y="569" on="0"/>
        <pt x="377" y="601" on="0"/>
        <pt x="362" y="630" on="0"/>
        <pt x="337" y="649" on="0"/>
        <pt x="319" y="649" on="1"/>
        <pt x="290" y="649" on="0"/>
        <pt x="242" y="597" on="0"/>
        <pt x="242" y="550" on="1"/>
        <pt x="242" y="526" on="0"/>
        <pt x="252" y="453" on="0"/>
      </contour>
      <contour>
        <pt x="232" y="289" on="1"/>
        <pt x="205" y="269" on="0"/>
        <pt x="167" y="239" on="0"/>
        <pt x="143" y="210" on="0"/>
        <pt x="131" y="178" on="0"/>
        <pt x="131" y="156" on="1"/>
        <pt x="131" y="139" on="0"/>
        <pt x="144" y="101" on="0"/>
        <pt x="171" y="69" on="0"/>
        <pt x="212" y="48" on="0"/>
        <pt x="241" y="48" on="1"/>
        <pt x="258" y="48" on="0"/>
        <pt x="341" y="59" on="0"/>
        <pt x="391" y="84" on="1"/>
        <pt x="374" y="100" on="0"/>
        <pt x="331" y="147" on="0"/>
        <pt x="287" y="201" on="0"/>
        <pt x="246" y="261" on="0"/>
      </contour>
    </TTGlyph>
    <TTGlyph name="asterisk" xMin="68" yMin="306" xMax="462" yMax="750">
      <contour>
        <pt x="303" y="344" on="1"/>
        <pt x="303" y="323" on="0"/>
        <pt x="276" y="306" on="0"/>
        <pt x="265" y="306" on="1"/>
        <pt x="254" y="306" on="0"/>
        <pt x="227" y="323" on="0"/>
        <pt x="227" y="344" on="1"/>
        <pt x="236" y="477" on="1"/>
        <pt x="214" y="462" on="0"/>
        <pt x="186" y="444" on="0"/>
        <pt x="166" y="430" on="0"/>
        <pt x="150" y="420" on="0"/>
        <pt x="139" y="413" on="1"/>
        <pt x="122" y="401" on="0"/>
        <pt x="113" y="397" on="0"/>
        <pt x="106" y="397" on="1"/>
        <pt x="94" y="397" on="0"/>
        <pt x="68" y="417" on="0"/>
        <pt x="68" y="437" on="1"/>
        <pt x="68" y="454" on="0"/>
        <pt x="85" y="467" on="0"/>
        <pt x="94" y="472" on="1"/>
        <pt x="206" y="528" on="1"/>
        <pt x="94" y="584" on="1"/>
        <pt x="85" y="589" on="0"/>
        <pt x="68" y="602" on="0"/>
        <pt x="68" y="619" on="1"/>
        <pt x="68" y="639" on="0"/>
        <pt x="94" y="659" on="0"/>
        <pt x="106" y="659" on="1"/>
        <pt x="114" y="659" on="0"/>
        <pt x="124" y="653" on="0"/>
        <pt x="132" y="648" on="1"/>
        <pt x="236" y="579" on="1"/>
        <pt x="227" y="712" on="1"/>
        <pt x="227" y="733" on="0"/>
        <pt x="254" y="750" on="0"/>
        <pt x="265" y="750" on="1"/>
        <pt x="276" y="750" on="0"/>
        <pt x="303" y="733" on="0"/>
        <pt x="303" y="712" on="1"/>
        <pt x="294" y="579" on="1"/>
        <pt x="398" y="648" on="1"/>
        <pt x="406" y="653" on="0"/>
        <pt x="416" y="659" on="0"/>
        <pt x="424" y="659" on="1"/>
        <pt x="436" y="659" on="0"/>
        <pt x="462" y="639" on="0"/>
        <pt x="462" y="619" on="1"/>
        <pt x="462" y="602" on="0"/>
        <pt x="445" y="589" on="0"/>
        <pt x="436" y="584" on="1"/>
        <pt x="324" y="528" on="1"/>
        <pt x="436" y="472" on="1"/>
        <pt x="445" y="467" on="0"/>
        <pt x="462" y="454" on="0"/>
        <pt x="462" y="437" on="1"/>
        <pt x="462" y="417" on="0"/>
        <pt x="436" y="397" on="0"/>
        <pt x="424" y="397" on="1"/>
        <pt x="416" y="397" on="0"/>
        <pt x="406" y="403" on="0"/>
        <pt x="398" y="408" on="1"/>
        <pt x="294" y="477" on="1"/>
      </contour>
    </TTGlyph>
    <TTGlyph name="at" xMin="59" yMin="-10" xMax="648" yMax="704">
      <contour>
        <pt x="648" y="88" on="1"/>
        <pt x="604" y="43" on="0"/>
        <pt x="481" y="-10" on="0"/>
        <pt x="412" y="-10" on="1"/>
        <pt x="340" y="-10" on="0"/>
        <pt x="211" y="46" on="0"/>
        <pt x="115" y="143" on="0"/>
        <pt x="59" y="273" on="0"/>
        <pt x="59" y="347" on="1"/>
        <pt x="59" y="422" on="0"/>
        <pt x="116" y="552" on="0"/>
        <pt x="212" y="649" on="0"/>
        <pt x="340" y="704" on="0"/>
        <pt x="411" y="704" on="1"/>
        <pt x="469" y="704" on="0"/>
        <pt x="548" y="667" on="0"/>
        <pt x="601" y="608" on="0"/>
        <pt x="631" y="533" on="0"/>
        <pt x="645" y="457" on="0"/>
        <pt x="648" y="386" on="0"/>
        <pt x="648" y="361" on="1"/>
        <pt x="648" y="294" on="0"/>
        <pt x="608" y="202" on="0"/>
        <pt x="549" y="145" on="0"/>
        <pt x="480" y="120" on="0"/>
        <pt x="451" y="120" on="1"/>
        <pt x="412" y="120" on="0"/>
        <pt x="341" y="154" on="0"/>
        <pt x="287" y="215" on="0"/>
        <pt x="255" y="298" on="0"/>
        <pt x="255" y="347" on="1"/>
        <pt x="255" y="395" on="0"/>
        <pt x="286" y="477" on="0"/>
        <pt x="340" y="539" on="0"/>
        <pt x="412" y="574" on="0"/>
        <pt x="452" y="574" on="1"/>
        <pt x="472" y="574" on="0"/>
        <pt x="516" y="563" on="0"/>
        <pt x="537" y="551" on="1"/>
        <pt x="525" y="581" on="0"/>
        <pt x="490" y="616" on="0"/>
        <pt x="454" y="633" on="0"/>
        <pt x="421" y="638" on="0"/>
        <pt x="410" y="638" on="1"/>
        <pt x="358" y="638" on="0"/>
        <pt x="260" y="594" on="0"/>
        <pt x="185" y="517" on="0"/>
        <pt x="140" y="410" on="0"/>
        <pt x="140" y="347" on="1"/>
        <pt x="140" y="289" on="0"/>
        <pt x="181" y="183" on="0"/>
        <pt x="254" y="103" on="0"/>
        <pt x="356" y="56" on="0"/>
        <pt x="416" y="56" on="1"/>
        <pt x="456" y="56" on="0"/>
        <pt x="532" y="71" on="0"/>
        <pt x="569" y="84" on="1"/>
        <pt x="575" y="87" on="0"/>
        <pt x="583" y="88" on="0"/>
        <pt x="594" y="88" on="1"/>
      </contour>
      <contour>
        <pt x="452" y="186" on="1"/>
        <pt x="474" y="186" on="0"/>
        <pt x="516" y="210" on="0"/>
        <pt x="548" y="252" on="0"/>
        <pt x="567" y="311" on="0"/>
        <pt x="567" y="347" on="1"/>
        <pt x="567" y="382" on="0"/>
        <pt x="548" y="440" on="0"/>
        <pt x="516" y="484" on="0"/>
        <pt x="474" y="508" on="0"/>
        <pt x="451" y="508" on="1"/>
        <pt x="429" y="508" on="0"/>
        <pt x="387" y="484" on="0"/>
        <pt x="355" y="442" on="0"/>
        <pt x="336" y="383" on="0"/>
        <pt x="336" y="347" on="1"/>
        <pt x="336" y="313" on="0"/>
        <pt x="355" y="254" on="0"/>
        <pt x="387" y="210" on="0"/>
        <pt x="429" y="186" on="0"/>
      </contour>
    </TTGlyph>
    <TTGlyph name="b" xMin="85" yMin="-10" xMax="512" yMax="694">
      <contour>
        <pt x="169" y="397" on="1"/>
        <pt x="246" y="454" on="0"/>
        <pt x="343" y="454" on="1"/>
        <pt x="381" y="454" on="0"/>
        <pt x="443" y="416" on="0"/>
        <pt x="487" y="352" on="0"/>
        <pt x="512" y="268" on="0"/>
        <pt x="512" y="223" on="1"/>
        <pt x="512" y="174" on="0"/>
        <pt x="481" y="89" on="0"/>
        <pt x="428" y="26" on="0"/>
        <pt x="356" y="-10" on="0"/>
        <pt x="315" y="-10" on="1"/>
        <pt x="288" y="-10" on="0"/>
        <pt x="242" y="2" on="0"/>
        <pt x="206" y="20" on="0"/>
        <pt x="180" y="40" on="0"/>
        <pt x="172" y="47" on="1"/>
        <pt x="172" y="0" on="1"/>
        <pt x="85" y="0" on="1"/>
        <pt x="85" y="694" on="1"/>
        <pt x="169" y="694" on="1"/>
      </contour>
      <contour>
        <pt x="172" y="118" on="1"/>
        <pt x="193" y="84" on="0"/>
        <pt x="244" y="56" on="0"/>
        <pt x="272" y="56" on="1"/>
        <pt x="298" y="56" on="0"/>
        <pt x="353" y="74" on="0"/>
        <pt x="397" y="114" on="0"/>
        <pt x="425" y="177" on="0"/>
        <pt x="425" y="223" on="1"/>
        <pt x="425" y="268" on="0"/>
        <pt x="399" y="331" on="0"/>
        <pt x="359" y="370" on="0"/>
        <pt x="308" y="388" on="0"/>
        <pt x="283" y="388" on="1"/>
        <pt x="257" y="388" on="0"/>
        <pt x="218" y="373" on="0"/>
        <pt x="207" y="366" on="1"/>
        <pt x="181" y="349" on="0"/>
        <pt x="172" y="327" on="0"/>
        <pt x="172" y="315" on="1"/>
      </contour>
    </TTGlyph>
    <TTGlyph name="bracketleft" xMin="107" yMin="-250" xMax="285" yMax="750">
      <contour>
        <pt x="107" y="-250" on="1"/>
        <pt x="107" y="750" on="1"/>
        <pt x="285" y="750" on="1"/>
        <pt x="285" y="684" on="1"/>
        <pt x="187" y="684" on="1"/>
        <pt x="187" y="-184" on="1"/>
        <pt x="285" y="-184" on="1"/>
        <pt x="285" y="-250" on="1"/>
      </contour>
    </TTGlyph>
    <TTGlyph name="bracketright" xMin="23" yMin="-250" xMax="201" yMax="750">
      <contour>
        <pt x="201" y="-250" on="1"/>
        <pt x="23" y="-250" on="1"/>
        <pt x="23" y="-184" on="1"/>
        <pt x="121" y="-184" on="1"/>
        <pt x="121" y="684" on="1"/>
        <pt x="23" y="684" on="1"/>
        <pt x="23" y="750" on="1"/>
        <pt x="201" y="750" on="1"/>
      </contour>
    </TTGlyph>
    <TTGlyph name="breve" xMin="85" yMin="512" xMax="445" yMax="694">
      <contour>
        <pt x="445" y="694" on="1"/>
        <pt x="444" y="652" on="0"/>
        <pt x="413" y="585" on="0"/>
        <pt x="363" y="537" on="0"/>
        <pt x="299" y="512" on="0"/>
        <pt x="265" y="512" on="1"/>
        <pt x="231" y="512" on="0"/>
        <pt x="167" y="537" on="0"/>
        <pt x="117" y="585" on="0"/>
        <pt x="86" y="652" on="0"/>
        <pt x="85" y="694" on="1"/>
        <pt x="151" y="694" on="1"/>
        <pt x="152" y="668" on="0"/>
        <pt x="172" y="627" on="0"/>
        <pt x="205" y="599" on="0"/>
        <pt x="245" y="585" on="0"/>
        <pt x="265" y="585" on="1"/>
        <pt x="285" y="585" on="0"/>
        <pt x="325" y="599" on="0"/>
        <pt x="358" y="627" on="0"/>
        <pt x="378" y="667" on="0"/>
        <pt x="379" y="694" on="1"/>
      </contour>
    </TTGlyph>
    <TTGlyph name="c" xMin="36" yMin="-10" xMax="441" yMax="459">
      <contour>
        <pt x="441" y="36" on="1"/>
        <pt x="409" y="17" on="0"/>
        <pt x="321" y="-10" on="0"/>
        <pt x="268" y="-10" on="1"/>
        <pt x="217" y="-10" on="0"/>
        <pt x="132" y="28" on="0"/>
        <pt x="70" y="92" on="0"/>
        <pt x="36" y="176" on="0"/>
        <pt x="36" y="222" on="1"/>
        <pt x="36" y="266" on="0"/>
        <pt x="68" y="350" on="0"/>
        <pt x="128" y="418" on="0"/>
        <pt x="216" y="459" on="0"/>
        <pt x="272" y="459" on="1"/>
        <pt x="301" y="459" on="0"/>
        <pt x="343" y="454" on="0"/>
        <pt x="379" y="444" on="0"/>
        <pt x="414" y="427" on="0"/>
        <pt x="436" y="416" on="1"/>
        <pt x="423" y="344" on="1"/>
        <pt x="404" y="356" on="0"/>
        <pt x="371" y="373" on="0"/>
        <pt x="337" y="385" on="0"/>
        <pt x="298" y="390" on="0"/>
        <pt x="272" y="390" on="1"/>
        <pt x="231" y="390" on="0"/>
        <pt x="174" y="359" on="0"/>
        <pt x="139" y="311" on="0"/>
        <pt x="123" y="252" on="0"/>
        <pt x="123" y="223" on="1"/>
        <pt x="123" y="189" on="0"/>
        <pt x="143" y="130" on="0"/>
        <pt x="180" y="85" on="0"/>
        <pt x="235" y="59" on="0"/>
        <pt x="269" y="59" on="1"/>
        <pt x="316" y="59" on="0"/>
        <pt x="397" y="85" on="0"/>
        <pt x="435" y="109" on="1"/>
      </contour>
    </TTGlyph>
    <TTGlyph name="caron" xMin="84" yMin="486" xMax="446" yMax="653">
      <contour>
        <pt x="300" y="486" on="1"/>
        <pt x="230" y="486" on="1"/>
        <pt x="84" y="653" on="1"/>
        <pt x="150" y="653" on="1"/>
        <pt x="265" y="532" on="1"/>
        <pt x="380" y="653" on="1"/>
        <pt x="446" y="653" on="1"/>
      </contour>
    </TTGlyph>
    <TTGlyph name="cedilla" xMin="153" yMin="-191" xMax="298" yMax="-23">
      <contour>
        <pt x="229" y="-191" on="1"/>
        <pt x="153" y="-191" on="1"/>
        <pt x="232" y="-23" on="1"/>
        <pt x="298" y="-23" on="1"/>
      </contour>
    </TTGlyph>
    <TTGlyph name="circumflex" xMin="84" yMin="527" xMax="446" yMax="694">
      <contour>
        <pt x="446" y="527" on="1"/>
        <pt x="380" y="527" on="1"/>
        <pt x="265" y="648" on="1"/>
        <pt x="150" y="527" on="1"/>
        <pt x="84" y="527" on="1"/>
        <pt x="230" y="694" on="1"/>
        <pt x="300" y="694" on="1"/>
      </contour>
    </TTGlyph>
    <TTGlyph name="colon" xMin="102" yMin="0" xMax="192" yMax="444">
      <contour>
        <pt x="192" y="354" on="1"/>
        <pt x="102" y="354" on="1"/>
        <pt x="102" y="444" on="1"/>
        <pt x="192" y="444" on="1"/>
      </contour>
      <contour>
        <pt x="192" y="90" on="1"/>
        <pt x="192" y="0" on="1"/>
        <pt x="102" y="0" on="1"/>
        <pt x="102" y="90" on="1"/>
      </contour>
    </TTGlyph>
    <TTGlyph name="comma" xMin="101" yMin="-128" xMax="192" yMax="90">
      <contour>
        <pt x="146" y="-128" on="1"/>
        <pt x="101" y="-128" on="1"/>
        <pt x="130" y="0" on="1"/>
        <pt x="102" y="0" on="1"/>
        <pt x="102" y="90" on="1"/>
        <pt x="192" y="90" on="1"/>
        <pt x="192" y="1" on="1"/>
      </contour>
    </TTGlyph>
    <TTGlyph name="d" xMin="36" yMin="-10" xMax="463" yMax="694">
      <contour>
        <pt x="463" y="0" on="1"/>
        <pt x="376" y="0" on="1"/>
        <pt x="376" y="52" on="1"/>
        <pt x="347" y="26" on="0"/>
        <pt x="265" y="-10" on="0"/>
        <pt x="218" y="-10" on="1"/>
        <pt x="179" y="-10" on="0"/>
        <pt x="113" y="27" on="0"/>
        <pt x="64" y="90" on="0"/>
        <pt x="36" y="174" on="0"/>
        <pt x="36" y="222" on="1"/>
        <pt x="36" y="270" on="0"/>
        <pt x="64" y="354" on="0"/>
        <pt x="114" y="417" on="0"/>
        <pt x="182" y="454" on="0"/>
        <pt x="221" y="454" on="1"/>
        <pt x="232" y="454" on="0"/>
        <pt x="266" y="451" on="0"/>
        <pt x="308" y="440" on="0"/>
        <pt x="355" y="419" on="0"/>
        <pt x="379" y="401" on="1"/>
        <pt x="379" y="694" on="1"/>
        <pt x="463" y="694" on="1"/>
      </contour>
      <contour>
        <pt x="376" y="337" on="1"/>
        <pt x="337" y="388" on="0"/>
        <pt x="276" y="388" on="1"/>
        <pt x="251" y="388" on="0"/>
        <pt x="196" y="371" on="0"/>
        <pt x="152" y="332" on="0"/>
        <pt x="123" y="268" on="0"/>
        <pt x="123" y="221" on="1"/>
        <pt x="123" y="178" on="0"/>
        <pt x="148" y="115" on="0"/>
        <pt x="188" y="75" on="0"/>
        <pt x="239" y="56" on="0"/>
        <pt x="265" y="56" on="1"/>
        <pt x="301" y="56" on="0"/>
        <pt x="357" y="93" on="0"/>
        <pt x="376" y="124" on="1"/>
      </contour>
    </TTGlyph>
    <TTGlyph name="dieresis" xMin="115" yMin="592" xMax="415" yMax="686">
      <contour>
        <pt x="209" y="592" on="1"/>
        <pt x="115" y="592" on="1"/>
        <pt x="115" y="686" on="1"/>
        <pt x="209" y="686" on="1"/>
      </contour>
      <contour>
        <pt x="415" y="592" on="1"/>
        <pt x="321" y="592" on="1"/>
        <pt x="321" y="686" on="1"/>
        <pt x="415" y="686" on="1"/>
      </contour>
    </TTGlyph>
    <TTGlyph name="dollar" xMin="47" yMin="-56" xMax="471" yMax="750">
      <contour>
        <pt x="297" y="405" on="1"/>
        <pt x="341" y="397" on="0"/>
        <pt x="406" y="355" on="0"/>
        <pt x="449" y="298" on="0"/>
        <pt x="471" y="232" on="0"/>
        <pt x="471" y="199" on="1"/>
        <pt x="471" y="161" on="0"/>
        <pt x="445" y="92" on="0"/>
        <pt x="399" y="36" on="0"/>
        <pt x="335" y="-1" on="0"/>
        <pt x="297" y="-7" on="1"/>
        <pt x="297" y="-56" on="1"/>
        <pt x="234" y="-56" on="1"/>
        <pt x="234" y="-9" on="1"/>
        <pt x="196" y="-5" on="0"/>
        <pt x="98" y="23" on="0"/>
        <pt x="47" y="60" on="1"/>
        <pt x="61" y="134" on="1"/>
        <pt x="90" y="109" on="0"/>
        <pt x="174" y="67" on="0"/>
        <pt x="234" y="61" on="1"/>
        <pt x="234" y="316" on="1"/>
        <pt x="182" y="327" on="0"/>
        <pt x="114" y="373" on="0"/>
        <pt x="74" y="429" on="0"/>
        <pt x="59" y="487" on="0"/>
        <pt x="59" y="509" on="1"/>
        <pt x="59" y="545" on="0"/>
        <pt x="85" y="610" on="0"/>
        <pt x="132" y="662" on="0"/>
        <pt x="196" y="696" on="0"/>
        <pt x="234" y="702" on="1"/>
        <pt x="234" y="750" on="1"/>
        <pt x="297" y="750" on="1"/>
        <pt x="297" y="703" on="1"/>
        <pt x="344" y="699" on="0"/>
        <pt x="415" y="673" on="0"/>
        <pt x="453" y="648" on="1"/>
        <pt x="440" y="576" on="1"/>
        <pt x="411" y="598" on="0"/>
        <pt x="342" y="630" on="0"/>
        <pt x="297" y="634" on="1"/>
      </contour>
      <contour>
        <pt x="234" y="632" on="1"/>
        <pt x="189" y="621" on="0"/>
        <pt x="139" y="561" on="0"/>
        <pt x="139" y="526" on="1"/>
        <pt x="139" y="484" on="0"/>
        <pt x="196" y="428" on="0"/>
        <pt x="234" y="420" on="1"/>
      </contour>
      <contour>
        <pt x="297" y="63" on="1"/>
        <pt x="321" y="70" on="0"/>
        <pt x="357" y="95" on="0"/>
        <pt x="380" y="128" on="0"/>
        <pt x="391" y="164" on="0"/>
        <pt x="391" y="182" on="1"/>
        <pt x="391" y="197" on="0"/>
        <pt x="382" y="232" on="0"/>
        <pt x="361" y="265" on="0"/>
        <pt x="324" y="294" on="0"/>
        <pt x="297" y="301" on="1"/>
      </contour>
    </TTGlyph>
    <TTGlyph name="dotaccent" xMin="97" yMin="585" xMax="198" yMax="686">
      <contour>
        <pt x="198" y="585" on="1"/>
        <pt x="97" y="585" on="1"/>
        <pt x="97" y="686" on="1"/>
        <pt x="198" y="686" on="1"/>
      </contour>
    </TTGlyph>
    <TTGlyph name="dotlessi" xMin="84" yMin="0" xMax="168" yMax="444">
      <contour>
        <pt x="168" y="0" on="1"/>
        <pt x="84" y="0" on="1"/>
        <pt x="84" y="444" on="1"/>
        <pt x="168" y="444" on="1"/>
      </contour>
    </TTGlyph>
    <TTGlyph name="e" xMin="35" yMin="-10" xMax="440" yMax="459">
      <contour>
        <pt x="436" y="38" on="1"/>
        <pt x="398" y="15" on="0"/>
        <pt x="311" y="-10" on="0"/>
        <pt x="267" y="-10" on="1"/>
        <pt x="218" y="-10" on="0"/>
        <pt x="133" y="27" on="0"/>
        <pt x="70" y="92" on="0"/>
        <pt x="35" y="177" on="0"/>
        <pt x="35" y="225" on="1"/>
        <pt x="35" y="273" on="0"/>
        <pt x="68" y="358" on="0"/>
        <pt x="126" y="422" on="0"/>
        <pt x="205" y="459" on="0"/>
        <pt x="251" y="459" on="1"/>
        <pt x="288" y="459" on="0"/>
        <pt x="369" y="427" on="0"/>
        <pt x="396" y="389" on="1"/>
        <pt x="425" y="346" on="0"/>
        <pt x="440" y="254" on="0"/>
        <pt x="440" y="219" on="1"/>
        <pt x="112" y="219" on="1"/>
        <pt x="113" y="185" on="0"/>
        <pt x="138" y="125" on="0"/>
        <pt x="179" y="81" on="0"/>
        <pt x="235" y="56" on="0"/>
        <pt x="268" y="56" on="1"/>
        <pt x="300" y="56" on="0"/>
        <pt x="388" y="79" on="0"/>
        <pt x="430" y="109" on="1"/>
      </contour>
      <contour>
        <pt x="379" y="279" on="1"/>
        <pt x="372" y="314" on="0"/>
        <pt x="342" y="358" on="0"/>
        <pt x="306" y="384" on="0"/>
        <pt x="268" y="393" on="0"/>
        <pt x="251" y="393" on="1"/>
        <pt x="232" y="393" on="0"/>
        <pt x="193" y="380" on="0"/>
        <pt x="157" y="352" on="0"/>
        <pt x="128" y="309" on="0"/>
        <pt x="119" y="279" on="1"/>
      </contour>
    </TTGlyph>
    <TTGlyph name="eight" xMin="44" yMin="-21" xMax="486" yMax="677">
      <contour>
        <pt x="342" y="354" on="1"/>
        <pt x="408" y="334" on="0"/>
        <pt x="486" y="240" on="0"/>
        <pt x="486" y="182" on="1"/>
        <pt x="486" y="142" on="0"/>
        <pt x="452" y="68" on="0"/>
        <pt x="393" y="12" on="0"/>
        <pt x="312" y="-21" on="0"/>
        <pt x="265" y="-21" on="1"/>
        <pt x="218" y="-21" on="0"/>
        <pt x="137" y="12" on="0"/>
        <pt x="78" y="68" on="0"/>
        <pt x="44" y="142" on="0"/>
        <pt x="44" y="182" on="1"/>
        <pt x="44" y="211" on="0"/>
        <pt x="64" y="264" on="0"/>
        <pt x="102" y="309" on="0"/>
        <pt x="155" y="344" on="0"/>
        <pt x="188" y="354" on="1"/>
        <pt x="164" y="362" on="0"/>
        <pt x="118" y="389" on="0"/>
        <pt x="81" y="426" on="0"/>
        <pt x="59" y="474" on="0"/>
        <pt x="59" y="502" on="1"/>
        <pt x="59" y="536" on="0"/>
        <pt x="90" y="599" on="0"/>
        <pt x="145" y="648" on="0"/>
        <pt x="220" y="677" on="0"/>
        <pt x="265" y="677" on="1"/>
        <pt x="310" y="677" on="0"/>
        <pt x="385" y="648" on="0"/>
        <pt x="440" y="599" on="0"/>
        <pt x="471" y="536" on="0"/>
        <pt x="471" y="502" on="1"/>
        <pt x="471" y="474" on="0"/>
        <pt x="449" y="427" on="0"/>
        <pt x="413" y="389" on="0"/>
        <pt x="367" y="362" on="0"/>
      </contour>
      <contour>
        <pt x="265" y="387" on="1"/>
        <pt x="320" y="387" on="0"/>
        <pt x="394" y="447" on="0"/>
        <pt x="394" y="501" on="1"/>
        <pt x="394" y="549" on="0"/>
        <pt x="328" y="615" on="0"/>
        <pt x="265" y="615" on="1"/>
        <pt x="202" y="615" on="0"/>
        <pt x="136" y="549" on="0"/>
        <pt x="136" y="501" on="1"/>
        <pt x="136" y="474" on="0"/>
        <pt x="156" y="431" on="0"/>
        <pt x="191" y="402" on="0"/>
        <pt x="238" y="387" on="0"/>
      </contour>
      <contour>
        <pt x="265" y="45" on="1"/>
        <pt x="291" y="45" on="0"/>
        <pt x="338" y="62" on="0"/>
        <pt x="374" y="96" on="0"/>
        <pt x="395" y="148" on="0"/>
        <pt x="395" y="183" on="1"/>
        <pt x="395" y="216" on="0"/>
        <pt x="375" y="268" on="0"/>
        <pt x="339" y="303" on="0"/>
        <pt x="292" y="321" on="0"/>
        <pt x="265" y="321" on="1"/>
        <pt x="211" y="321" on="0"/>
        <pt x="135" y="251" on="0"/>
        <pt x="135" y="183" on="1"/>
        <pt x="135" y="148" on="0"/>
        <pt x="156" y="96" on="0"/>
        <pt x="192" y="62" on="0"/>
        <pt x="239" y="45" on="0"/>
      </contour>
    </TTGlyph>
    <TTGlyph name="emdash" xMin="0" yMin="241" xMax="1062" yMax="307">
      <contour>
        <pt x="0" y="241" on="1"/>
        <pt x="0" y="307" on="1"/>
        <pt x="1062" y="307" on="1"/>
        <pt x="1062" y="241" on="1"/>
      </contour>
    </TTGlyph>
    <TTGlyph name="endash" xMin="0" yMin="241" xMax="530" yMax="307">
      <contour>
        <pt x="0" y="241" on="1"/>
        <pt x="0" y="307" on="1"/>
        <pt x="530" y="307" on="1"/>
        <pt x="530" y="241" on="1"/>
      </contour>
    </TTGlyph>
    <TTGlyph name="equal" xMin="59" yMin="118" xMax="766" yMax="382">
      <contour>
        <pt x="95" y="336" on="1"/>
        <pt x="84" y="336" on="0"/>
        <pt x="59" y="342" on="0"/>
        <pt x="59" y="359" on="1"/>
        <pt x="59" y="376" on="0"/>
        <pt x="84" y="382" on="0"/>
        <pt x="95" y="382" on="1"/>
        <pt x="730" y="382" on="1"/>
        <pt x="741" y="382" on="0"/>
        <pt x="766" y="376" on="0"/>
        <pt x="766" y="359" on="1"/>
        <pt x="766" y="342" on="0"/>
        <pt x="741" y="336" on="0"/>
        <pt x="730" y="336" on="1"/>
      </contour>
      <contour>
        <pt x="95" y="118" on="1"/>
        <pt x="84" y="118" on="0"/>
        <pt x="59" y="124" on="0"/>
        <pt x="59" y="141" on="1"/>
        <pt x="59" y="158" on="0"/>
        <pt x="84" y="164" on="0"/>
        <pt x="95" y="164" on="1"/>
        <pt x="730" y="164" on="1"/>
        <pt x="741" y="164" on="0"/>
        <pt x="766" y="158" on="0"/>
        <pt x="766" y="141" on="1"/>
        <pt x="766" y="124" on="0"/>
        <pt x="741" y="118" on="0"/>
        <pt x="730" y="118" on="1"/>
      </contour>
    </TTGlyph>
    <TTGlyph name="exclam" xMin="123" yMin="0" xMax="213" yMax="694">
      <contour>
        <pt x="204" y="180" on="1"/>
        <pt x="132" y="180" on="1"/>
        <pt x="123" y="694" on="1"/>
        <pt x="213" y="694" on="1"/>
      </contour>
      <contour>
        <pt x="123" y="90" on="1"/>
        <pt x="213" y="90" on="1"/>
        <pt x="213" y="0" on="1"/>
        <pt x="123" y="0" on="1"/>
      </contour>
    </TTGlyph>
    <TTGlyph name="exclamdown" xMin="123" yMin="-194" xMax="213" yMax="500">
      <contour>
        <pt x="213" y="410" on="1"/>
        <pt x="123" y="410" on="1"/>
        <pt x="123" y="500" on="1"/>
        <pt x="213" y="500" on="1"/>
      </contour>
      <contour>
        <pt x="132" y="320" on="1"/>
        <pt x="204" y="320" on="1"/>
        <pt x="213" y="-194" on="1"/>
        <pt x="123" y="-194" on="1"/>
      </contour>
    </TTGlyph>
    <TTGlyph name="f" xMin="29" yMin="0" xMax="368" yMax="704">
      <contour>
        <pt x="190" y="0" on="1"/>
        <pt x="106" y="0" on="1"/>
        <pt x="106" y="381" on="1"/>
        <pt x="29" y="381" on="1"/>
        <pt x="29" y="444" on="1"/>
        <pt x="106" y="444" on="1"/>
        <pt x="106" y="531" on="1"/>
        <pt x="106" y="568" on="0"/>
        <pt x="133" y="631" on="0"/>
        <pt x="180" y="678" on="0"/>
        <pt x="245" y="704" on="0"/>
        <pt x="284" y="704" on="1"/>
        <pt x="304" y="704" on="0"/>
        <pt x="348" y="699" on="0"/>
        <pt x="368" y="694" on="1"/>
        <pt x="368" y="621" on="1"/>
        <pt x="340" y="632" on="0"/>
        <pt x="299" y="638" on="0"/>
        <pt x="283" y="638" on="1"/>
        <pt x="271" y="638" on="0"/>
        <pt x="238" y="633" on="0"/>
        <pt x="208" y="616" on="0"/>
        <pt x="187" y="585" on="0"/>
        <pt x="187" y="559" on="1"/>
        <pt x="187" y="444" on="1"/>
        <pt x="304" y="444" on="1"/>
        <pt x="304" y="381" on="1"/>
        <pt x="190" y="381" on="1"/>
      </contour>
    </TTGlyph>
    <TTGlyph name="f_f" xMin="29" yMin="0" xMax="663" yMax="704">
      <contour>
        <pt x="190" y="0" on="1"/>
        <pt x="106" y="0" on="1"/>
        <pt x="106" y="381" on="1"/>
        <pt x="29" y="381" on="1"/>
        <pt x="29" y="444" on="1"/>
        <pt x="106" y="444" on="1"/>
        <pt x="106" y="531" on="1"/>
        <pt x="106" y="568" on="0"/>
        <pt x="133" y="631" on="0"/>
        <pt x="180" y="678" on="0"/>
        <pt x="246" y="704" on="0"/>
        <pt x="285" y="704" on="1"/>
        <pt x="305" y="704" on="0"/>
        <pt x="349" y="699" on="0"/>
        <pt x="369" y="694" on="1"/>
        <pt x="369" y="621" on="1"/>
        <pt x="343" y="632" on="0"/>
        <pt x="301" y="638" on="0"/>
        <pt x="283" y="638" on="1"/>
        <pt x="273" y="638" on="0"/>
        <pt x="240" y="634" on="0"/>
        <pt x="209" y="617" on="0"/>
        <pt x="187" y="586" on="0"/>
        <pt x="187" y="559" on="1"/>
        <pt x="187" y="444" on="1"/>
        <pt x="305" y="444" on="1"/>
        <pt x="305" y="381" on="1"/>
        <pt x="190" y="381" on="1"/>
      </contour>
      <contour>
        <pt x="484" y="0" on="1"/>
        <pt x="400" y="0" on="1"/>
        <pt x="400" y="531" on="1"/>
        <pt x="400" y="568" on="0"/>
        <pt x="427" y="631" on="0"/>
        <pt x="474" y="678" on="0"/>
        <pt x="540" y="704" on="0"/>
        <pt x="579" y="704" on="1"/>
        <pt x="599" y="704" on="0"/>
        <pt x="643" y="699" on="0"/>
        <pt x="663" y="694" on="1"/>
        <pt x="663" y="621" on="1"/>
        <pt x="637" y="632" on="0"/>
        <pt x="595" y="638" on="0"/>
        <pt x="577" y="638" on="1"/>
        <pt x="567" y="638" on="0"/>
        <pt x="534" y="634" on="0"/>
        <pt x="503" y="617" on="0"/>
        <pt x="481" y="586" on="0"/>
        <pt x="481" y="559" on="1"/>
        <pt x="481" y="444" on="1"/>
        <pt x="599" y="444" on="1"/>
        <pt x="599" y="381" on="1"/>
        <pt x="484" y="381" on="1"/>
      </contour>
    </TTGlyph>
    <TTGlyph name="f_f_i" xMin="29" yMin="0" xMax="782" yMax="704">
      <contour>
        <pt x="782" y="605" on="1"/>
        <pt x="692" y="605" on="1"/>
        <pt x="692" y="695" on="1"/>
        <pt x="782" y="695" on="1"/>
      </contour>
      <contour>
        <pt x="779" y="0" on="1"/>
        <pt x="695" y="0" on="1"/>
        <pt x="695" y="444" on="1"/>
        <pt x="779" y="444" on="1"/>
      </contour>
      <contour>
        <pt x="485" y="0" on="1"/>
        <pt x="401" y="0" on="1"/>
        <pt x="401" y="532" on="1"/>
        <pt x="401" y="570" on="0"/>
        <pt x="423" y="633" on="0"/>
        <pt x="462" y="678" on="0"/>
        <pt x="515" y="704" on="0"/>
        <pt x="545" y="704" on="1"/>
        <pt x="569" y="704" on="0"/>
        <pt x="590" y="700" on="0"/>
        <pt x="608" y="695" on="1"/>
        <pt x="608" y="620" on="1"/>
        <pt x="601" y="625" on="0"/>
        <pt x="568" y="638" on="0"/>
        <pt x="545" y="638" on="1"/>
        <pt x="534" y="638" on="0"/>
        <pt x="511" y="631" on="0"/>
        <pt x="493" y="613" on="0"/>
        <pt x="482" y="584" on="0"/>
        <pt x="482" y="561" on="1"/>
        <pt x="482" y="444" on="1"/>
        <pt x="608" y="444" on="1"/>
        <pt x="608" y="381" on="1"/>
        <pt x="485" y="381" on="1"/>
      </contour>
      <contour>
        <pt x="190" y="0" on="1"/>
        <pt x="106" y="0" on="1"/>
        <pt x="106" y="381" on="1"/>
        <pt x="29" y="381" on="1"/>
        <pt x="29" y="444" on="1"/>
        <pt x="106" y="444" on="1"/>
        <pt x="106" y="532" on="1"/>
        <pt x="106" y="569" on="0"/>
        <pt x="130" y="632" on="0"/>
        <pt x="173" y="678" on="0"/>
        <pt x="232" y="704" on="0"/>
        <pt x="266" y="704" on="1"/>
        <pt x="291" y="704" on="0"/>
        <pt x="331" y="696" on="0"/>
        <pt x="339" y="694" on="1"/>
        <pt x="339" y="621" on="1"/>
        <pt x="302" y="638" on="0"/>
        <pt x="265" y="638" on="1"/>
        <pt x="255" y="638" on="0"/>
        <pt x="228" y="633" on="0"/>
        <pt x="204" y="616" on="0"/>
        <pt x="187" y="586" on="0"/>
        <pt x="187" y="560" on="1"/>
        <pt x="187" y="444" on="1"/>
        <pt x="313" y="444" on="1"/>
        <pt x="313" y="381" on="1"/>
        <pt x="190" y="381" on="1"/>
      </contour>
    </TTGlyph>
    <TTGlyph name="f_f_l" xMin="29" yMin="0" xMax="779" yMax="704">
      <contour>
        <pt x="190" y="0" on="1"/>
        <pt x="106" y="0" on="1"/>
        <pt x="106" y="381" on="1"/>
        <pt x="29" y="381" on="1"/>
        <pt x="29" y="444" on="1"/>
        <pt x="106" y="444" on="1"/>
        <pt x="106" y="532" on="1"/>
        <pt x="106" y="569" on="0"/>
        <pt x="130" y="632" on="0"/>
        <pt x="173" y="678" on="0"/>
        <pt x="232" y="704" on="0"/>
        <pt x="266" y="704" on="1"/>
        <pt x="291" y="704" on="0"/>
        <pt x="331" y="696" on="0"/>
        <pt x="339" y="694" on="1"/>
        <pt x="339" y="621" on="1"/>
        <pt x="302" y="638" on="0"/>
        <pt x="265" y="638" on="1"/>
        <pt x="255" y="638" on="0"/>
        <pt x="228" y="633" on="0"/>
        <pt x="204" y="616" on="0"/>
        <pt x="187" y="586" on="0"/>
        <pt x="187" y="560" on="1"/>
        <pt x="187" y="444" on="1"/>
        <pt x="313" y="444" on="1"/>
        <pt x="313" y="381" on="1"/>
        <pt x="190" y="381" on="1"/>
      </contour>
      <contour>
        <pt x="779" y="0" on="1"/>
        <pt x="695" y="0" on="1"/>
        <pt x="695" y="694" on="1"/>
        <pt x="779" y="694" on="1"/>
      </contour>
      <contour>
        <pt x="485" y="0" on="1"/>
        <pt x="401" y="0" on="1"/>
        <pt x="401" y="532" on="1"/>
        <pt x="401" y="571" on="0"/>
        <pt x="424" y="634" on="0"/>
        <pt x="463" y="679" on="0"/>
        <pt x="515" y="704" on="0"/>
        <pt x="544" y="704" on="1"/>
        <pt x="569" y="704" on="0"/>
        <pt x="606" y="695" on="0"/>
        <pt x="608" y="694" on="1"/>
        <pt x="608" y="621" on="1"/>
        <pt x="603" y="624" on="0"/>
        <pt x="568" y="638" on="0"/>
        <pt x="545" y="638" on="1"/>
        <pt x="534" y="638" on="0"/>
        <pt x="511" y="631" on="0"/>
        <pt x="493" y="613" on="0"/>
        <pt x="482" y="584" on="0"/>
        <pt x="482" y="561" on="1"/>
        <pt x="482" y="444" on="1"/>
        <pt x="608" y="444" on="1"/>
        <pt x="608" y="381" on="1"/>
        <pt x="485" y="381" on="1"/>
      </contour>
    </TTGlyph>
    <TTGlyph name="fi" xMin="29" yMin="0" xMax="486" yMax="704">
      <contour>
        <pt x="486" y="605" on="1"/>
        <pt x="396" y="605" on="1"/>
        <pt x="396" y="695" on="1"/>
        <pt x="486" y="695" on="1"/>
      </contour>
      <contour>
        <pt x="483" y="0" on="1"/>
        <pt x="399" y="0" on="1"/>
        <pt x="399" y="444" on="1"/>
        <pt x="483" y="444" on="1"/>
      </contour>
      <contour>
        <pt x="190" y="0" on="1"/>
        <pt x="106" y="0" on="1"/>
        <pt x="106" y="381" on="1"/>
        <pt x="29" y="381" on="1"/>
        <pt x="29" y="444" on="1"/>
        <pt x="106" y="444" on="1"/>
        <pt x="106" y="532" on="1"/>
        <pt x="106" y="571" on="0"/>
        <pt x="129" y="634" on="0"/>
        <pt x="168" y="679" on="0"/>
        <pt x="220" y="704" on="0"/>
        <pt x="249" y="704" on="1"/>
        <pt x="274" y="704" on="0"/>
        <pt x="311" y="695" on="0"/>
        <pt x="313" y="694" on="1"/>
        <pt x="313" y="619" on="1"/>
        <pt x="296" y="630" on="0"/>
        <pt x="262" y="638" on="0"/>
        <pt x="249" y="638" on="1"/>
        <pt x="240" y="638" on="0"/>
        <pt x="218" y="632" on="0"/>
        <pt x="200" y="615" on="0"/>
        <pt x="187" y="585" on="0"/>
        <pt x="187" y="561" on="1"/>
        <pt x="187" y="444" on="1"/>
        <pt x="313" y="444" on="1"/>
        <pt x="313" y="381" on="1"/>
        <pt x="190" y="381" on="1"/>
      </contour>
    </TTGlyph>
    <TTGlyph name="five" xMin="40" yMin="-21" xMax="477" yMax="656">
      <contour>
        <pt x="164" y="386" on="1"/>
        <pt x="187" y="405" on="0"/>
        <pt x="243" y="426" on="0"/>
        <pt x="275" y="426" on="1"/>
        <pt x="316" y="426" on="0"/>
        <pt x="390" y="391" on="0"/>
        <pt x="445" y="331" on="0"/>
        <pt x="477" y="250" on="0"/>
        <pt x="477" y="203" on="1"/>
        <pt x="477" y="157" on="0"/>
        <pt x="441" y="76" on="0"/>
        <pt x="377" y="15" on="0"/>
        <pt x="292" y="-21" on="0"/>
        <pt x="242" y="-21" on="1"/>
        <pt x="182" y="-21" on="0"/>
        <pt x="77" y="31" on="0"/>
        <pt x="40" y="77" on="1"/>
        <pt x="78" y="137" on="1"/>
        <pt x="104" y="94" on="0"/>
        <pt x="192" y="45" on="0"/>
        <pt x="242" y="45" on="1"/>
        <pt x="261" y="45" on="0"/>
        <pt x="308" y="58" on="0"/>
        <pt x="348" y="94" on="0"/>
        <pt x="376" y="156" on="0"/>
        <pt x="376" y="205" on="1"/>
        <pt x="376" y="253" on="0"/>
        <pt x="355" y="313" on="0"/>
        <pt x="324" y="347" on="0"/>
        <pt x="288" y="360" on="0"/>
        <pt x="273" y="360" on="1"/>
        <pt x="239" y="360" on="0"/>
        <pt x="175" y="323" on="0"/>
        <pt x="157" y="282" on="1"/>
        <pt x="84" y="282" on="1"/>
        <pt x="84" y="656" on="1"/>
        <pt x="441" y="656" on="1"/>
        <pt x="441" y="587" on="1"/>
        <pt x="164" y="587" on="1"/>
      </contour>
    </TTGlyph>
    <TTGlyph name="fl" xMin="29" yMin="0" xMax="483" yMax="704">
      <contour>
        <pt x="190" y="0" on="1"/>
        <pt x="106" y="0" on="1"/>
        <pt x="106" y="381" on="1"/>
        <pt x="29" y="381" on="1"/>
        <pt x="29" y="444" on="1"/>
        <pt x="106" y="444" on="1"/>
        <pt x="106" y="532" on="1"/>
        <pt x="106" y="571" on="0"/>
        <pt x="129" y="634" on="0"/>
        <pt x="168" y="679" on="0"/>
        <pt x="220" y="704" on="0"/>
        <pt x="249" y="704" on="1"/>
        <pt x="274" y="704" on="0"/>
        <pt x="311" y="695" on="0"/>
        <pt x="313" y="694" on="1"/>
        <pt x="313" y="621" on="1"/>
        <pt x="308" y="624" on="0"/>
        <pt x="273" y="638" on="0"/>
        <pt x="250" y="638" on="1"/>
        <pt x="239" y="638" on="0"/>
        <pt x="216" y="631" on="0"/>
        <pt x="198" y="613" on="0"/>
        <pt x="187" y="584" on="0"/>
        <pt x="187" y="561" on="1"/>
        <pt x="187" y="444" on="1"/>
        <pt x="313" y="444" on="1"/>
        <pt x="313" y="381" on="1"/>
        <pt x="190" y="381" on="1"/>
      </contour>
      <contour>
        <pt x="483" y="0" on="1"/>
        <pt x="399" y="0" on="1"/>
        <pt x="399" y="694" on="1"/>
        <pt x="483" y="694" on="1"/>
      </contour>
    </TTGlyph>
    <TTGlyph name="four" xMin="30" yMin="0" xMax="500" yMax="656">
      <contour>
        <pt x="396" y="0" on="1"/>
        <pt x="310" y="0" on="1"/>
        <pt x="310" y="167" on="1"/>
        <pt x="30" y="167" on="1"/>
        <pt x="30" y="233" on="1"/>
        <pt x="297" y="656" on="1"/>
        <pt x="396" y="656" on="1"/>
        <pt x="396" y="233" on="1"/>
        <pt x="500" y="233" on="1"/>
        <pt x="500" y="167" on="1"/>
        <pt x="396" y="167" on="1"/>
      </contour>
      <contour>
        <pt x="317" y="233" on="1"/>
        <pt x="317" y="607" on="1"/>
        <pt x="317" y="592" on="0"/>
        <pt x="291" y="531" on="0"/>
        <pt x="251" y="456" on="0"/>
        <pt x="203" y="374" on="0"/>
        <pt x="158" y="301" on="0"/>
        <pt x="123" y="245" on="0"/>
        <pt x="115" y="233" on="1"/>
      </contour>
    </TTGlyph>
    <TTGlyph name="g" xMin="30" yMin="-205" xMax="515" yMax="454">
      <contour>
        <pt x="515" y="386" on="1"/>
        <pt x="488" y="389" on="0"/>
        <pt x="441" y="390" on="0"/>
        <pt x="440" y="390" on="1"/>
        <pt x="438" y="390" on="0"/>
        <pt x="417" y="390" on="0"/>
        <pt x="394" y="389" on="0"/>
        <pt x="375" y="388" on="0"/>
        <pt x="375" y="386" on="1"/>
        <pt x="375" y="385" on="0"/>
        <pt x="376" y="383" on="0"/>
        <pt x="379" y="378" on="1"/>
        <pt x="406" y="338" on="0"/>
        <pt x="406" y="290" on="1"/>
        <pt x="406" y="258" on="0"/>
        <pt x="380" y="199" on="0"/>
        <pt x="334" y="154" on="0"/>
        <pt x="272" y="127" on="0"/>
        <pt x="235" y="127" on="1"/>
        <pt x="215" y="127" on="0"/>
        <pt x="164" y="139" on="0"/>
        <pt x="138" y="156" on="1"/>
        <pt x="137" y="154" on="0"/>
        <pt x="130" y="139" on="0"/>
        <pt x="130" y="124" on="1"/>
        <pt x="130" y="105" on="0"/>
        <pt x="144" y="83" on="0"/>
        <pt x="163" y="74" on="0"/>
        <pt x="183" y="72" on="0"/>
        <pt x="189" y="72" on="1"/>
        <pt x="282" y="72" on="1"/>
        <pt x="293" y="72" on="0"/>
        <pt x="333" y="71" on="0"/>
        <pt x="382" y="63" on="0"/>
        <pt x="432" y="46" on="0"/>
        <pt x="474" y="15" on="0"/>
        <pt x="500" y="-34" on="0"/>
        <pt x="500" y="-69" on="1"/>
        <pt x="500" y="-98" on="0"/>
        <pt x="463" y="-147" on="0"/>
        <pt x="400" y="-184" on="0"/>
        <pt x="314" y="-205" on="0"/>
        <pt x="265" y="-205" on="1"/>
        <pt x="216" y="-205" on="0"/>
        <pt x="131" y="-184" on="0"/>
        <pt x="67" y="-147" on="0"/>
        <pt x="30" y="-98" on="0"/>
        <pt x="30" y="-69" on="1"/>
        <pt x="30" y="-60" on="0"/>
        <pt x="35" y="-35" on="0"/>
        <pt x="50" y="-7" on="0"/>
        <pt x="75" y="21" on="0"/>
        <pt x="96" y="33" on="1"/>
        <pt x="89" y="42" on="0"/>
        <pt x="71" y="80" on="0"/>
        <pt x="71" y="109" on="1"/>
        <pt x="71" y="138" on="0"/>
        <pt x="89" y="179" on="0"/>
        <pt x="100" y="192" on="1"/>
        <pt x="83" y="213" on="0"/>
        <pt x="65" y="265" on="0"/>
        <pt x="65" y="291" on="1"/>
        <pt x="65" y="323" on="0"/>
        <pt x="91" y="382" on="0"/>
        <pt x="137" y="427" on="0"/>
        <pt x="199" y="454" on="0"/>
        <pt x="236" y="454" on="1"/>
        <pt x="258" y="454" on="0"/>
        <pt x="309" y="441" on="0"/>
        <pt x="336" y="423" on="1"/>
        <pt x="338" y="424" on="1"/>
        <pt x="367" y="435" on="0"/>
        <pt x="419" y="447" on="0"/>
        <pt x="463" y="453" on="0"/>
        <pt x="495" y="454" on="0"/>
        <pt x="503" y="454" on="1"/>
      </contour>
      <contour>
        <pt x="236" y="189" on="1"/>
        <pt x="252" y="189" on="0"/>
        <pt x="285" y="199" on="0"/>
        <pt x="312" y="223" on="0"/>
        <pt x="329" y="262" on="0"/>
        <pt x="329" y="291" on="1"/>
        <pt x="329" y="342" on="0"/>
        <pt x="276" y="392" on="0"/>
        <pt x="235" y="392" on="1"/>
        <pt x="219" y="392" on="0"/>
        <pt x="186" y="382" on="0"/>
        <pt x="159" y="358" on="0"/>
        <pt x="142" y="319" on="0"/>
        <pt x="142" y="290" on="1"/>
        <pt x="142" y="239" on="0"/>
        <pt x="195" y="189" on="0"/>
      </contour>
      <contour>
        <pt x="187" y="-6" on="1"/>
        <pt x="157" y="-6" on="0"/>
        <pt x="124" y="-25" on="0"/>
        <pt x="109" y="-48" on="0"/>
        <pt x="106" y="-68" on="0"/>
        <pt x="106" y="-70" on="1"/>
        <pt x="106" y="-86" on="0"/>
        <pt x="132" y="-113" on="0"/>
        <pt x="176" y="-132" on="0"/>
        <pt x="234" y="-143" on="0"/>
        <pt x="265" y="-143" on="1"/>
        <pt x="297" y="-143" on="0"/>
        <pt x="354" y="-132" on="0"/>
        <pt x="398" y="-113" on="0"/>
        <pt x="424" y="-86" on="0"/>
        <pt x="424" y="-70" on="1"/>
        <pt x="424" y="-46" on="0"/>
        <pt x="386" y="-20" on="0"/>
        <pt x="338" y="-8" on="0"/>
        <pt x="292" y="-6" on="0"/>
        <pt x="283" y="-6" on="1"/>
      </contour>
    </TTGlyph>
    <TTGlyph name="germandbls" xMin="85" yMin="-10" xMax="479" yMax="704">
      <contour>
        <pt x="353" y="409" on="1"/>
        <pt x="392" y="384" on="0"/>
        <pt x="441" y="322" on="0"/>
        <pt x="469" y="260" on="0"/>
        <pt x="479" y="202" on="0"/>
        <pt x="479" y="180" on="1"/>
        <pt x="479" y="139" on="0"/>
        <pt x="449" y="70" on="0"/>
        <pt x="398" y="19" on="0"/>
        <pt x="331" y="-10" on="0"/>
        <pt x="293" y="-10" on="1"/>
        <pt x="286" y="-10" on="0"/>
        <pt x="235" y="-6" on="0"/>
        <pt x="200" y="7" on="1"/>
        <pt x="223" y="70" on="1"/>
        <pt x="249" y="59" on="0"/>
        <pt x="288" y="56" on="0"/>
        <pt x="292" y="56" on="1"/>
        <pt x="335" y="56" on="0"/>
        <pt x="393" y="120" on="0"/>
        <pt x="393" y="179" on="1"/>
        <pt x="393" y="217" on="0"/>
        <pt x="371" y="288" on="0"/>
        <pt x="329" y="343" on="0"/>
        <pt x="268" y="377" on="0"/>
        <pt x="228" y="378" on="1"/>
        <pt x="228" y="444" on="1"/>
        <pt x="266" y="445" on="0"/>
        <pt x="318" y="467" on="0"/>
        <pt x="350" y="500" on="0"/>
        <pt x="364" y="539" on="0"/>
        <pt x="364" y="556" on="1"/>
        <pt x="364" y="597" on="0"/>
        <pt x="306" y="638" on="0"/>
        <pt x="267" y="638" on="1"/>
        <pt x="223" y="638" on="0"/>
        <pt x="169" y="593" on="0"/>
        <pt x="169" y="548" on="1"/>
        <pt x="169" y="0" on="1"/>
        <pt x="85" y="0" on="1"/>
        <pt x="85" y="550" on="1"/>
        <pt x="85" y="589" on="0"/>
        <pt x="118" y="646" on="0"/>
        <pt x="170" y="685" on="0"/>
        <pt x="235" y="704" on="0"/>
        <pt x="267" y="704" on="1"/>
        <pt x="306" y="704" on="0"/>
        <pt x="373" y="680" on="0"/>
        <pt x="422" y="640" on="0"/>
        <pt x="450" y="587" on="0"/>
        <pt x="450" y="557" on="1"/>
        <pt x="450" y="530" on="0"/>
        <pt x="432" y="483" on="0"/>
        <pt x="403" y="446" on="0"/>
        <pt x="369" y="418" on="0"/>
      </contour>
    </TTGlyph>
    <TTGlyph name="grave" xMin="89" yMin="527" xMax="313" yMax="694">
      <contour>
        <pt x="89" y="694" on="1"/>
        <pt x="176" y="694" on="1"/>
        <pt x="313" y="527" on="1"/>
        <pt x="247" y="527" on="1"/>
      </contour>
    </TTGlyph>
    <TTGlyph name="h" xMin="83" yMin="0" xMax="465" yMax="694">
      <contour>
        <pt x="465" y="0" on="1"/>
        <pt x="378" y="0" on="1"/>
        <pt x="378" y="289" on="1"/>
        <pt x="378" y="300" on="0"/>
        <pt x="375" y="334" on="0"/>
        <pt x="355" y="365" on="0"/>
        <pt x="314" y="388" on="0"/>
        <pt x="275" y="388" on="1"/>
        <pt x="246" y="388" on="0"/>
        <pt x="206" y="361" on="0"/>
        <pt x="181" y="319" on="0"/>
        <pt x="170" y="268" on="0"/>
        <pt x="170" y="243" on="1"/>
        <pt x="170" y="0" on="1"/>
        <pt x="83" y="0" on="1"/>
        <pt x="83" y="694" on="1"/>
        <pt x="167" y="694" on="1"/>
        <pt x="167" y="383" on="1"/>
        <pt x="175" y="391" on="0"/>
        <pt x="200" y="415" on="0"/>
        <pt x="237" y="438" on="0"/>
        <pt x="287" y="454" on="0"/>
        <pt x="319" y="454" on="1"/>
        <pt x="365" y="454" on="0"/>
        <pt x="422" y="427" on="0"/>
        <pt x="454" y="382" on="0"/>
        <pt x="465" y="325" on="0"/>
        <pt x="465" y="296" on="1"/>
      </contour>
    </TTGlyph>
    <TTGlyph name="hungarumlaut" xMin="114" yMin="527" xMax="441" yMax="694">
      <contour>
        <pt x="180" y="527" on="1"/>
        <pt x="114" y="527" on="1"/>
        <pt x="177" y="694" on="1"/>
        <pt x="264" y="694" on="1"/>
      </contour>
      <contour>
        <pt x="357" y="527" on="1"/>
        <pt x="291" y="527" on="1"/>
        <pt x="354" y="694" on="1"/>
        <pt x="441" y="694" on="1"/>
      </contour>
    </TTGlyph>
    <TTGlyph name="hyphen" xMin="12" yMin="191" xMax="294" yMax="254">
      <contour>
        <pt x="12" y="191" on="1"/>
        <pt x="12" y="254" on="1"/>
        <pt x="294" y="254" on="1"/>
        <pt x="294" y="191" on="1"/>
      </contour>
    </TTGlyph>
    <TTGlyph name="i" xMin="75" yMin="0" xMax="176" yMax="686">
      <contour>
        <pt x="176" y="585" on="1"/>
        <pt x="75" y="585" on="1"/>
        <pt x="75" y="686" on="1"/>
        <pt x="176" y="686" on="1"/>
      </contour>
      <contour>
        <pt x="168" y="0" on="1"/>
        <pt x="84" y="0" on="1"/>
        <pt x="84" y="444" on="1"/>
        <pt x="168" y="444" on="1"/>
      </contour>
    </TTGlyph>
    <TTGlyph name="j" xMin="-65" yMin="-204" xMax="198" yMax="686">
      <contour>
        <pt x="198" y="585" on="1"/>
        <pt x="97" y="585" on="1"/>
        <pt x="97" y="686" on="1"/>
        <pt x="198" y="686" on="1"/>
      </contour>
      <contour>
        <pt x="-47" y="-104" on="1"/>
        <pt x="-38" y="-112" on="0"/>
        <pt x="1" y="-134" on="0"/>
        <pt x="33" y="-134" on="1"/>
        <pt x="68" y="-134" on="0"/>
        <pt x="114" y="-104" on="0"/>
        <pt x="114" y="-66" on="1"/>
        <pt x="114" y="444" on="1"/>
        <pt x="198" y="444" on="1"/>
        <pt x="198" y="-59" on="1"/>
        <pt x="198" y="-94" on="0"/>
        <pt x="176" y="-147" on="0"/>
        <pt x="138" y="-185" on="0"/>
        <pt x="90" y="-204" on="0"/>
        <pt x="64" y="-204" on="1"/>
        <pt x="35" y="-204" on="0"/>
        <pt x="-30" y="-189" on="0"/>
        <pt x="-65" y="-170" on="1"/>
      </contour>
    </TTGlyph>
    <TTGlyph name="k" xMin="88" yMin="0" xMax="500" yMax="694">
      <contour>
        <pt x="500" y="0" on="1"/>
        <pt x="412" y="0" on="1"/>
        <pt x="247" y="222" on="1"/>
        <pt x="162" y="140" on="1"/>
        <pt x="162" y="0" on="1"/>
        <pt x="88" y="0" on="1"/>
        <pt x="88" y="694" on="1"/>
        <pt x="166" y="694" on="1"/>
        <pt x="166" y="237" on="1"/>
        <pt x="380" y="444" on="1"/>
        <pt x="477" y="444" on="1"/>
        <pt x="299" y="272" on="1"/>
      </contour>
    </TTGlyph>
    <TTGlyph name="l" xMin="84" yMin="0" xMax="168" yMax="694">
      <contour>
        <pt x="168" y="0" on="1"/>
        <pt x="84" y="0" on="1"/>
        <pt x="84" y="694" on="1"/>
        <pt x="168" y="694" on="1"/>
      </contour>
    </TTGlyph>
    <TTGlyph name="m" xMin="83" yMin="0" xMax="760" yMax="454">
      <contour>
        <pt x="760" y="0" on="1"/>
        <pt x="673" y="0" on="1"/>
        <pt x="673" y="289" on="1"/>
        <pt x="673" y="300" on="0"/>
        <pt x="670" y="334" on="0"/>
        <pt x="650" y="365" on="0"/>
        <pt x="609" y="388" on="0"/>
        <pt x="570" y="388" on="1"/>
        <pt x="541" y="388" on="0"/>
        <pt x="501" y="361" on="0"/>
        <pt x="476" y="319" on="0"/>
        <pt x="465" y="268" on="0"/>
        <pt x="465" y="243" on="1"/>
        <pt x="465" y="0" on="1"/>
        <pt x="378" y="0" on="1"/>
        <pt x="378" y="289" on="1"/>
        <pt x="378" y="300" on="0"/>
        <pt x="375" y="334" on="0"/>
        <pt x="355" y="365" on="0"/>
        <pt x="314" y="388" on="0"/>
        <pt x="275" y="388" on="1"/>
        <pt x="246" y="388" on="0"/>
        <pt x="206" y="361" on="0"/>
        <pt x="181" y="319" on="0"/>
        <pt x="170" y="268" on="0"/>
        <pt x="170" y="243" on="1"/>
        <pt x="170" y="0" on="1"/>
        <pt x="83" y="0" on="1"/>
        <pt x="83" y="451" on="1"/>
        <pt x="163" y="451" on="1"/>
        <pt x="163" y="378" on="1"/>
        <pt x="196" y="418" on="0"/>
        <pt x="276" y="454" on="0"/>
        <pt x="319" y="454" on="1"/>
        <pt x="357" y="454" on="0"/>
        <pt x="405" y="436" on="0"/>
        <pt x="435" y="411" on="0"/>
        <pt x="450" y="383" on="0"/>
        <pt x="454" y="373" on="1"/>
        <pt x="463" y="385" on="0"/>
        <pt x="492" y="413" on="0"/>
        <pt x="531" y="438" on="0"/>
        <pt x="583" y="454" on="0"/>
        <pt x="614" y="454" on="1"/>
        <pt x="660" y="454" on="0"/>
        <pt x="717" y="427" on="0"/>
        <pt x="749" y="382" on="0"/>
        <pt x="760" y="325" on="0"/>
        <pt x="760" y="296" on="1"/>
      </contour>
    </TTGlyph>
    <TTGlyph name="macron" xMin="74" yMin="566" xMax="456" yMax="636">
      <contour>
        <pt x="74" y="566" on="1"/>
        <pt x="74" y="636" on="1"/>
        <pt x="456" y="636" on="1"/>
        <pt x="456" y="566" on="1"/>
      </contour>
    </TTGlyph>
    <TTGlyph name="n" xMin="83" yMin="0" xMax="465" yMax="454">
      <contour>
        <pt x="465" y="0" on="1"/>
        <pt x="378" y="0" on="1"/>
        <pt x="378" y="289" on="1"/>
        <pt x="378" y="300" on="0"/>
        <pt x="375" y="334" on="0"/>
        <pt x="355" y="365" on="0"/>
        <pt x="314" y="388" on="0"/>
        <pt x="275" y="388" on="1"/>
        <pt x="246" y="388" on="0"/>
        <pt x="206" y="361" on="0"/>
        <pt x="181" y="319" on="0"/>
        <pt x="170" y="268" on="0"/>
        <pt x="170" y="243" on="1"/>
        <pt x="170" y="0" on="1"/>
        <pt x="83" y="0" on="1"/>
        <pt x="83" y="451" on="1"/>
        <pt x="163" y="451" on="1"/>
        <pt x="163" y="378" on="1"/>
        <pt x="196" y="418" on="0"/>
        <pt x="276" y="454" on="0"/>
        <pt x="319" y="454" on="1"/>
        <pt x="365" y="454" on="0"/>
        <pt x="422" y="427" on="0"/>
        <pt x="454" y="382" on="0"/>
        <pt x="465" y="325" on="0"/>
        <pt x="465" y="296" on="1"/>
      </contour>
    </TTGlyph>
    <TTGlyph name="nine" xMin="44" yMin="-21" xMax="486" yMax="677">
      <contour>
        <pt x="111" y="83" on="1"/>
        <pt x="128" y="69" on="0"/>
        <pt x="179" y="45" on="0"/>
        <pt x="218" y="45" on="1"/>
        <pt x="249" y="45" on="0"/>
        <pt x="307" y="72" on="0"/>
        <pt x="354" y="128" on="0"/>
        <pt x="387" y="214" on="0"/>
        <pt x="392" y="274" on="1"/>
        <pt x="390" y="272" on="0"/>
        <pt x="365" y="246" on="0"/>
        <pt x="320" y="217" on="0"/>
        <pt x="254" y="193" on="0"/>
        <pt x="212" y="193" on="1"/>
        <pt x="175" y="193" on="0"/>
        <pt x="114" y="232" on="0"/>
        <pt x="69" y="298" on="0"/>
        <pt x="44" y="385" on="0"/>
        <pt x="44" y="433" on="1"/>
        <pt x="44" y="448" on="0"/>
        <pt x="47" y="487" on="0"/>
        <pt x="59" y="532" on="0"/>
        <pt x="86" y="582" on="0"/>
        <pt x="110" y="606" on="1"/>
        <pt x="121" y="617" on="0"/>
        <pt x="148" y="642" on="0"/>
        <pt x="186" y="663" on="0"/>
        <pt x="236" y="677" on="0"/>
        <pt x="269" y="677" on="1"/>
        <pt x="305" y="677" on="0"/>
        <pt x="382" y="647" on="0"/>
        <pt x="445" y="570" on="0"/>
        <pt x="486" y="437" on="0"/>
        <pt x="486" y="335" on="1"/>
        <pt x="486" y="254" on="0"/>
        <pt x="442" y="123" on="0"/>
        <pt x="367" y="30" on="0"/>
        <pt x="271" y="-21" on="0"/>
        <pt x="218" y="-21" on="1"/>
        <pt x="183" y="-21" on="0"/>
        <pt x="114" y="-2" on="0"/>
        <pt x="77" y="25" on="1"/>
      </contour>
      <contour>
        <pt x="389" y="434" on="1"/>
        <pt x="388" y="458" on="0"/>
        <pt x="377" y="521" on="0"/>
        <pt x="350" y="576" on="0"/>
        <pt x="304" y="615" on="0"/>
        <pt x="268" y="615" on="1"/>
        <pt x="230" y="615" on="0"/>
        <pt x="183" y="584" on="0"/>
        <pt x="167" y="561" on="1"/>
        <pt x="144" y="528" on="0"/>
        <pt x="136" y="462" on="0"/>
        <pt x="136" y="433" on="1"/>
        <pt x="136" y="399" on="0"/>
        <pt x="144" y="340" on="0"/>
        <pt x="164" y="311" on="1"/>
        <pt x="184" y="280" on="0"/>
        <pt x="229" y="259" on="0"/>
        <pt x="258" y="259" on="1"/>
        <pt x="291" y="259" on="0"/>
        <pt x="340" y="286" on="0"/>
        <pt x="373" y="330" on="0"/>
        <pt x="390" y="384" on="0"/>
        <pt x="390" y="412" on="1"/>
        <pt x="390" y="417" on="0"/>
        <pt x="390" y="429" on="0"/>
      </contour>
    </TTGlyph>
    <TTGlyph name="numbersign" xMin="59" yMin="-194" xMax="825" yMax="694">
      <contour>
        <pt x="466" y="-169" on="1"/>
        <pt x="463" y="-179" on="0"/>
        <pt x="455" y="-194" on="0"/>
        <pt x="442" y="-194" on="1"/>
        <pt x="432" y="-194" on="0"/>
        <pt x="419" y="-181" on="0"/>
        <pt x="419" y="-171" on="1"/>
        <pt x="419" y="-164" on="0"/>
        <pt x="423" y="-152" on="1"/>
        <pt x="501" y="118" on="1"/>
        <pt x="306" y="118" on="1"/>
        <pt x="224" y="-169" on="1"/>
        <pt x="221" y="-179" on="0"/>
        <pt x="213" y="-194" on="0"/>
        <pt x="200" y="-194" on="1"/>
        <pt x="190" y="-194" on="0"/>
        <pt x="177" y="-181" on="0"/>
        <pt x="177" y="-171" on="1"/>
        <pt x="177" y="-164" on="0"/>
        <pt x="181" y="-152" on="1"/>
        <pt x="259" y="118" on="1"/>
        <pt x="95" y="118" on="1"/>
        <pt x="84" y="118" on="0"/>
        <pt x="59" y="124" on="0"/>
        <pt x="59" y="141" on="1"/>
        <pt x="59" y="158" on="0"/>
        <pt x="84" y="164" on="0"/>
        <pt x="95" y="164" on="1"/>
        <pt x="273" y="164" on="1"/>
        <pt x="322" y="336" on="1"/>
        <pt x="95" y="336" on="1"/>
        <pt x="84" y="336" on="0"/>
        <pt x="59" y="342" on="0"/>
        <pt x="59" y="359" on="1"/>
        <pt x="59" y="376" on="0"/>
        <pt x="84" y="382" on="0"/>
        <pt x="95" y="382" on="1"/>
        <pt x="336" y="382" on="1"/>
        <pt x="418" y="669" on="1"/>
        <pt x="421" y="679" on="0"/>
        <pt x="429" y="694" on="0"/>
        <pt x="442" y="694" on="1"/>
        <pt x="452" y="694" on="0"/>
        <pt x="465" y="681" on="0"/>
        <pt x="465" y="671" on="1"/>
        <pt x="465" y="664" on="0"/>
        <pt x="461" y="652" on="1"/>
        <pt x="383" y="382" on="1"/>
        <pt x="578" y="382" on="1"/>
        <pt x="660" y="669" on="1"/>
        <pt x="663" y="679" on="0"/>
        <pt x="671" y="694" on="0"/>
        <pt x="684" y="694" on="1"/>
        <pt x="694" y="694" on="0"/>
        <pt x="707" y="681" on="0"/>
        <pt x="707" y="671" on="1"/>
        <pt x="707" y="664" on="0"/>
        <pt x="703" y="652" on="1"/>
        <pt x="625" y="382" on="1"/>
        <pt x="789" y="382" on="1"/>
        <pt x="800" y="382" on="0"/>
        <pt x="825" y="376" on="0"/>
        <pt x="825" y="359" on="1"/>
        <pt x="825" y="342" on="0"/>
        <pt x="800" y="336" on="0"/>
        <pt x="789" y="336" on="1"/>
        <pt x="611" y="336" on="1"/>
        <pt x="562" y="164" on="1"/>
        <pt x="789" y="164" on="1"/>
        <pt x="800" y="164" on="0"/>
        <pt x="825" y="158" on="0"/>
        <pt x="825" y="141" on="1"/>
        <pt x="825" y="124" on="0"/>
        <pt x="800" y="118" on="0"/>
        <pt x="789" y="118" on="1"/>
        <pt x="548" y="118" on="1"/>
      </contour>
      <contour>
        <pt x="515" y="164" on="1"/>
        <pt x="564" y="336" on="1"/>
        <pt x="369" y="336" on="1"/>
        <pt x="320" y="164" on="1"/>
      </contour>
    </TTGlyph>
    <TTGlyph name="o" xMin="30" yMin="-10" xMax="500" yMax="459">
      <contour>
        <pt x="500" y="219" on="1"/>
        <pt x="500" y="171" on="0"/>
        <pt x="463" y="88" on="0"/>
        <pt x="399" y="26" on="0"/>
        <pt x="314" y="-10" on="0"/>
        <pt x="265" y="-10" on="1"/>
        <pt x="217" y="-10" on="0"/>
        <pt x="131" y="26" on="0"/>
        <pt x="67" y="88" on="0"/>
        <pt x="30" y="171" on="0"/>
        <pt x="30" y="219" on="1"/>
        <pt x="30" y="268" on="0"/>
        <pt x="67" y="355" on="0"/>
        <pt x="131" y="421" on="0"/>
        <pt x="216" y="459" on="0"/>
        <pt x="265" y="459" on="1"/>
        <pt x="314" y="459" on="0"/>
        <pt x="399" y="421" on="0"/>
        <pt x="463" y="356" on="0"/>
        <pt x="500" y="269" on="0"/>
      </contour>
      <contour>
        <pt x="265" y="59" on="1"/>
        <pt x="294" y="59" on="0"/>
        <pt x="347" y="80" on="0"/>
        <pt x="388" y="123" on="0"/>
        <pt x="413" y="187" on="0"/>
        <pt x="413" y="230" on="1"/>
        <pt x="413" y="272" on="0"/>
        <pt x="388" y="333" on="0"/>
        <pt x="346" y="373" on="0"/>
        <pt x="293" y="393" on="0"/>
        <pt x="265" y="393" on="1"/>
        <pt x="237" y="393" on="0"/>
        <pt x="184" y="374" on="0"/>
        <pt x="142" y="334" on="0"/>
        <pt x="117" y="272" on="0"/>
        <pt x="117" y="230" on="1"/>
        <pt x="117" y="188" on="0"/>
        <pt x="141" y="124" on="0"/>
        <pt x="182" y="81" on="0"/>
        <pt x="235" y="59" on="0"/>
      </contour>
    </TTGlyph>
    <TTGlyph name="oe" xMin="30" yMin="-10" xMax="795" yMax="459">
      <contour>
        <pt x="486" y="219" on="1"/>
        <pt x="488" y="182" on="0"/>
        <pt x="514" y="122" on="0"/>
        <pt x="555" y="79" on="0"/>
        <pt x="608" y="56" on="0"/>
        <pt x="637" y="56" on="1"/>
        <pt x="672" y="56" on="0"/>
        <pt x="750" y="81" on="0"/>
        <pt x="784" y="109" on="1"/>
        <pt x="784" y="105" on="0"/>
        <pt x="786" y="88" on="0"/>
        <pt x="786" y="85" on="1"/>
        <pt x="786" y="83" on="0"/>
        <pt x="787" y="70" on="0"/>
        <pt x="788" y="55" on="0"/>
        <pt x="790" y="41" on="0"/>
        <pt x="790" y="38" on="1"/>
        <pt x="780" y="31" on="0"/>
        <pt x="750" y="15" on="0"/>
        <pt x="710" y="0" on="0"/>
        <pt x="662" y="-10" on="0"/>
        <pt x="635" y="-10" on="1"/>
        <pt x="620" y="-10" on="0"/>
        <pt x="575" y="-4" on="0"/>
        <pt x="524" y="15" on="0"/>
        <pt x="469" y="54" on="0"/>
        <pt x="443" y="87" on="1"/>
        <pt x="431" y="70" on="0"/>
        <pt x="394" y="35" on="0"/>
        <pt x="347" y="7" on="0"/>
        <pt x="290" y="-10" on="0"/>
        <pt x="257" y="-10" on="1"/>
        <pt x="210" y="-10" on="0"/>
        <pt x="127" y="27" on="0"/>
        <pt x="66" y="90" on="0"/>
        <pt x="30" y="176" on="0"/>
        <pt x="30" y="225" on="1"/>
        <pt x="30" y="273" on="0"/>
        <pt x="65" y="358" on="0"/>
        <pt x="127" y="422" on="0"/>
        <pt x="209" y="459" on="0"/>
        <pt x="257" y="459" on="1"/>
        <pt x="290" y="459" on="0"/>
        <pt x="347" y="442" on="0"/>
        <pt x="394" y="414" on="0"/>
        <pt x="430" y="380" on="0"/>
        <pt x="442" y="363" on="1"/>
        <pt x="466" y="398" on="0"/>
        <pt x="521" y="436" on="0"/>
        <pt x="571" y="455" on="0"/>
        <pt x="610" y="459" on="0"/>
        <pt x="619" y="459" on="1"/>
        <pt x="663" y="459" on="0"/>
        <pt x="723" y="428" on="0"/>
        <pt x="762" y="380" on="0"/>
        <pt x="784" y="323" on="0"/>
        <pt x="793" y="270" on="0"/>
        <pt x="795" y="228" on="0"/>
        <pt x="795" y="219" on="1"/>
      </contour>
      <contour>
        <pt x="731" y="279" on="1"/>
        <pt x="725" y="317" on="0"/>
        <pt x="697" y="362" on="0"/>
        <pt x="664" y="386" on="0"/>
        <pt x="631" y="393" on="0"/>
        <pt x="620" y="393" on="1"/>
        <pt x="578" y="393" on="0"/>
        <pt x="507" y="332" on="0"/>
        <pt x="493" y="279" on="1"/>
      </contour>
      <contour>
        <pt x="256" y="56" on="1"/>
        <pt x="284" y="56" on="0"/>
        <pt x="335" y="77" on="0"/>
        <pt x="375" y="121" on="0"/>
        <pt x="399" y="186" on="0"/>
        <pt x="399" y="230" on="1"/>
        <pt x="399" y="272" on="0"/>
        <pt x="375" y="334" on="0"/>
        <pt x="334" y="374" on="0"/>
        <pt x="283" y="393" on="0"/>
        <pt x="256" y="393" on="1"/>
        <pt x="228" y="393" on="0"/>
        <pt x="175" y="373" on="0"/>
        <pt x="135" y="333" on="0"/>
        <pt x="110" y="272" on="0"/>
        <pt x="110" y="230" on="1"/>
        <pt x="110" y="187" on="0"/>
        <pt x="135" y="121" on="0"/>
        <pt x="175" y="78" on="0"/>
        <pt x="228" y="56" on="0"/>
      </contour>
    </TTGlyph>
    <TTGlyph name="one" xMin="92" yMin="0" xMax="454" yMax="677">
      <contour>
        <pt x="321" y="63" on="1"/>
        <pt x="454" y="63" on="1"/>
        <pt x="454" y="0" on="1"/>
        <pt x="98" y="0" on="1"/>
        <pt x="98" y="63" on="1"/>
        <pt x="231" y="63" on="1"/>
        <pt x="231" y="571" on="1"/>
        <pt x="193" y="556" on="0"/>
        <pt x="121" y="549" on="0"/>
        <pt x="92" y="548" on="1"/>
        <pt x="92" y="611" on="1"/>
        <pt x="115" y="612" on="0"/>
        <pt x="167" y="616" on="0"/>
        <pt x="221" y="629" on="0"/>
        <pt x="275" y="655" on="0"/>
        <pt x="299" y="677" on="1"/>
        <pt x="321" y="677" on="1"/>
      </contour>
    </TTGlyph>
    <TTGlyph name="oslash" xMin="33" yMin="-114" xMax="497" yMax="559">
      <contour>
        <pt x="413" y="404" on="1"/>
        <pt x="452" y="368" on="0"/>
        <pt x="497" y="273" on="0"/>
        <pt x="497" y="219" on="1"/>
        <pt x="497" y="171" on="0"/>
        <pt x="461" y="88" on="0"/>
        <pt x="398" y="26" on="0"/>
        <pt x="313" y="-10" on="0"/>
        <pt x="265" y="-10" on="1"/>
        <pt x="216" y="-10" on="0"/>
        <pt x="175" y="8" on="1"/>
        <pt x="102" y="-114" on="1"/>
        <pt x="45" y="-80" on="1"/>
        <pt x="118" y="42" on="1"/>
        <pt x="76" y="76" on="0"/>
        <pt x="33" y="169" on="0"/>
        <pt x="33" y="219" on="1"/>
        <pt x="33" y="269" on="0"/>
        <pt x="70" y="356" on="0"/>
        <pt x="133" y="421" on="0"/>
        <pt x="217" y="459" on="0"/>
        <pt x="265" y="459" on="1"/>
        <pt x="292" y="459" on="0"/>
        <pt x="340" y="447" on="0"/>
        <pt x="357" y="439" on="1"/>
        <pt x="428" y="559" on="1"/>
        <pt x="485" y="525" on="1"/>
      </contour>
      <contour>
        <pt x="322" y="382" on="1"/>
        <pt x="321" y="383" on="0"/>
        <pt x="289" y="393" on="0"/>
        <pt x="265" y="393" on="1"/>
        <pt x="234" y="393" on="0"/>
        <pt x="179" y="370" on="0"/>
        <pt x="138" y="326" on="0"/>
        <pt x="114" y="261" on="0"/>
        <pt x="114" y="220" on="1"/>
        <pt x="114" y="211" on="0"/>
        <pt x="116" y="184" on="0"/>
        <pt x="124" y="152" on="0"/>
        <pt x="140" y="118" on="0"/>
        <pt x="154" y="102" on="1"/>
      </contour>
      <contour>
        <pt x="210" y="66" on="1"/>
        <pt x="230" y="58" on="0"/>
        <pt x="260" y="56" on="0"/>
        <pt x="265" y="56" on="1"/>
        <pt x="294" y="56" on="0"/>
        <pt x="349" y="76" on="0"/>
        <pt x="391" y="116" on="0"/>
        <pt x="416" y="178" on="0"/>
        <pt x="416" y="220" on="1"/>
        <pt x="416" y="252" on="0"/>
        <pt x="399" y="315" on="0"/>
        <pt x="376" y="343" on="1"/>
      </contour>
    </TTGlyph>
    <TTGlyph name="p" xMin="85" yMin="-194" xMax="512" yMax="454">
      <contour>
        <pt x="172" y="-194" on="1"/>
        <pt x="85" y="-194" on="1"/>
        <pt x="85" y="444" on="1"/>
        <pt x="169" y="444" on="1"/>
        <pt x="169" y="396" on="1"/>
        <pt x="191" y="413" on="0"/>
        <pt x="239" y="435" on="0"/>
        <pt x="287" y="449" on="0"/>
        <pt x="330" y="454" on="0"/>
        <pt x="347" y="454" on="1"/>
        <pt x="384" y="454" on="0"/>
        <pt x="445" y="416" on="0"/>
        <pt x="488" y="351" on="0"/>
        <pt x="512" y="268" on="0"/>
        <pt x="512" y="223" on="1"/>
        <pt x="512" y="174" on="0"/>
        <pt x="481" y="88" on="0"/>
        <pt x="427" y="26" on="0"/>
        <pt x="356" y="-10" on="0"/>
        <pt x="316" y="-10" on="1"/>
        <pt x="290" y="-10" on="0"/>
        <pt x="212" y="11" on="0"/>
        <pt x="172" y="47" on="1"/>
      </contour>
      <contour>
        <pt x="172" y="136" on="1"/>
        <pt x="172" y="118" on="0"/>
        <pt x="191" y="89" on="0"/>
        <pt x="221" y="68" on="0"/>
        <pt x="256" y="56" on="0"/>
        <pt x="272" y="56" on="1"/>
        <pt x="301" y="56" on="0"/>
        <pt x="356" y="80" on="0"/>
        <pt x="399" y="124" on="0"/>
        <pt x="425" y="186" on="0"/>
        <pt x="425" y="223" on="1"/>
        <pt x="425" y="256" on="0"/>
        <pt x="403" y="315" on="0"/>
        <pt x="364" y="359" on="0"/>
        <pt x="312" y="385" on="0"/>
        <pt x="282" y="385" on="1"/>
        <pt x="246" y="385" on="0"/>
        <pt x="189" y="353" on="0"/>
        <pt x="172" y="332" on="1"/>
      </contour>
    </TTGlyph>
    <TTGlyph name="parenleft" xMin="84" yMin="-250" xMax="353" yMax="750">
      <contour>
        <pt x="353" y="750" on="1"/>
        <pt x="348" y="746" on="0"/>
        <pt x="317" y="716" on="0"/>
        <pt x="277" y="663" on="0"/>
        <pt x="232" y="584" on="0"/>
        <pt x="195" y="475" on="0"/>
        <pt x="171" y="336" on="0"/>
        <pt x="171" y="250" on="1"/>
        <pt x="171" y="175" on="0"/>
        <pt x="189" y="50" on="0"/>
        <pt x="207" y="-9" on="1"/>
        <pt x="224" y="-68" on="0"/>
        <pt x="273" y="-157" on="0"/>
        <pt x="319" y="-218" on="0"/>
        <pt x="352" y="-249" on="0"/>
        <pt x="353" y="-250" on="1"/>
        <pt x="305" y="-250" on="1"/>
        <pt x="292" y="-250" on="0"/>
        <pt x="283" y="-247" on="0"/>
        <pt x="273" y="-237" on="1"/>
        <pt x="224" y="-194" on="0"/>
        <pt x="152" y="-84" on="0"/>
        <pt x="106" y="42" on="0"/>
        <pt x="84" y="179" on="0"/>
        <pt x="84" y="250" on="1"/>
        <pt x="84" y="402" on="0"/>
        <pt x="179" y="656" on="0"/>
        <pt x="274" y="739" on="1"/>
        <pt x="283" y="747" on="0"/>
        <pt x="292" y="750" on="0"/>
        <pt x="305" y="750" on="1"/>
      </contour>
    </TTGlyph>
    <TTGlyph name="parenright" xMin="59" yMin="-250" xMax="328" yMax="750">
      <contour>
        <pt x="59" y="-250" on="1"/>
        <pt x="67" y="-244" on="0"/>
        <pt x="125" y="-183" on="0"/>
        <pt x="190" y="-64" on="0"/>
        <pt x="241" y="120" on="0"/>
        <pt x="241" y="250" on="1"/>
        <pt x="241" y="325" on="0"/>
        <pt x="223" y="450" on="0"/>
        <pt x="205" y="509" on="1"/>
        <pt x="188" y="568" on="0"/>
        <pt x="139" y="657" on="0"/>
        <pt x="93" y="718" on="0"/>
        <pt x="60" y="749" on="0"/>
        <pt x="59" y="750" on="1"/>
        <pt x="107" y="750" on="1"/>
        <pt x="120" y="750" on="0"/>
        <pt x="129" y="747" on="0"/>
        <pt x="139" y="737" on="1"/>
        <pt x="189" y="694" on="0"/>
        <pt x="260" y="584" on="0"/>
        <pt x="306" y="458" on="0"/>
        <pt x="328" y="321" on="0"/>
        <pt x="328" y="250" on="1"/>
        <pt x="328" y="98" on="0"/>
        <pt x="233" y="-156" on="0"/>
        <pt x="138" y="-239" on="1"/>
        <pt x="129" y="-247" on="0"/>
        <pt x="120" y="-250" on="0"/>
        <pt x="107" y="-250" on="1"/>
      </contour>
    </TTGlyph>
    <TTGlyph name="percent" xMin="59" yMin="-56" xMax="825" yMax="750">
      <contour>
        <pt x="230" y="-40" on="1"/>
        <pt x="225" y="-48" on="0"/>
        <pt x="217" y="-56" on="0"/>
        <pt x="208" y="-56" on="1"/>
        <pt x="198" y="-56" on="0"/>
        <pt x="185" y="-43" on="0"/>
        <pt x="185" y="-33" on="1"/>
        <pt x="185" y="-28" on="0"/>
        <pt x="189" y="-20" on="0"/>
        <pt x="194" y="-12" on="1"/>
        <pt x="656" y="731" on="1"/>
        <pt x="662" y="741" on="0"/>
        <pt x="671" y="750" on="0"/>
        <pt x="680" y="750" on="1"/>
        <pt x="690" y="750" on="0"/>
        <pt x="703" y="737" on="0"/>
        <pt x="703" y="727" on="1"/>
        <pt x="703" y="722" on="0"/>
        <pt x="699" y="714" on="0"/>
        <pt x="694" y="706" on="1"/>
      </contour>
      <contour>
        <pt x="825" y="145" on="1"/>
        <pt x="825" y="103" on="0"/>
        <pt x="802" y="29" on="0"/>
        <pt x="762" y="-25" on="0"/>
        <pt x="709" y="-56" on="0"/>
        <pt x="679" y="-56" on="1"/>
        <pt x="652" y="-56" on="0"/>
        <pt x="599" y="-27" on="0"/>
        <pt x="557" y="26" on="0"/>
        <pt x="531" y="100" on="0"/>
        <pt x="531" y="146" on="1"/>
        <pt x="531" y="190" on="0"/>
        <pt x="556" y="264" on="0"/>
        <pt x="598" y="317" on="0"/>
        <pt x="651" y="347" on="0"/>
        <pt x="679" y="347" on="1"/>
        <pt x="708" y="347" on="0"/>
        <pt x="761" y="317" on="0"/>
        <pt x="801" y="263" on="0"/>
        <pt x="825" y="189" on="0"/>
      </contour>
      <contour>
        <pt x="679" y="10" on="1"/>
        <pt x="694" y="10" on="0"/>
        <pt x="721" y="31" on="0"/>
        <pt x="740" y="68" on="0"/>
        <pt x="751" y="118" on="0"/>
        <pt x="751" y="146" on="1"/>
        <pt x="751" y="173" on="0"/>
        <pt x="741" y="221" on="0"/>
        <pt x="722" y="259" on="0"/>
        <pt x="695" y="281" on="0"/>
        <pt x="679" y="281" on="1"/>
        <pt x="673" y="281" on="0"/>
        <pt x="651" y="274" on="0"/>
        <pt x="629" y="247" on="0"/>
        <pt x="612" y="193" on="0"/>
        <pt x="612" y="145" on="1"/>
        <pt x="612" y="122" on="0"/>
        <pt x="617" y="77" on="0"/>
        <pt x="625" y="55" on="1"/>
        <pt x="634" y="35" on="0"/>
        <pt x="662" y="10" on="0"/>
      </contour>
      <contour>
        <pt x="353" y="548" on="1"/>
        <pt x="353" y="506" on="0"/>
        <pt x="330" y="432" on="0"/>
        <pt x="290" y="378" on="0"/>
        <pt x="237" y="347" on="0"/>
        <pt x="207" y="347" on="1"/>
        <pt x="179" y="347" on="0"/>
        <pt x="126" y="376" on="0"/>
        <pt x="84" y="429" on="0"/>
        <pt x="59" y="503" on="0"/>
        <pt x="59" y="548" on="1"/>
        <pt x="59" y="594" on="0"/>
        <pt x="85" y="668" on="0"/>
        <pt x="127" y="721" on="0"/>
        <pt x="180" y="750" on="0"/>
        <pt x="207" y="750" on="1"/>
        <pt x="236" y="750" on="0"/>
        <pt x="289" y="720" on="0"/>
        <pt x="329" y="666" on="0"/>
        <pt x="353" y="592" on="0"/>
      </contour>
      <contour>
        <pt x="207" y="413" on="1"/>
        <pt x="222" y="413" on="0"/>
        <pt x="249" y="434" on="0"/>
        <pt x="268" y="471" on="0"/>
        <pt x="279" y="521" on="0"/>
        <pt x="279" y="549" on="1"/>
        <pt x="279" y="576" on="0"/>
        <pt x="269" y="624" on="0"/>
        <pt x="250" y="662" on="0"/>
        <pt x="223" y="684" on="0"/>
        <pt x="207" y="684" on="1"/>
        <pt x="201" y="684" on="0"/>
        <pt x="179" y="677" on="0"/>
        <pt x="157" y="650" on="0"/>
        <pt x="140" y="596" on="0"/>
        <pt x="140" y="548" on="1"/>
        <pt x="140" y="525" on="0"/>
        <pt x="145" y="480" on="0"/>
        <pt x="153" y="458" on="1"/>
        <pt x="162" y="438" on="0"/>
        <pt x="190" y="413" on="0"/>
      </contour>
    </TTGlyph>
    <TTGlyph name="period" xMin="102" yMin="0" xMax="192" yMax="90">
      <contour>
        <pt x="192" y="0" on="1"/>
        <pt x="102" y="0" on="1"/>
        <pt x="102" y="90" on="1"/>
        <pt x="192" y="90" on="1"/>
      </contour>
    </TTGlyph>
    <TTGlyph name="plus" xMin="59" yMin="-104" xMax="766" yMax="604">
      <contour>
        <pt x="436" y="-68" on="1"/>
        <pt x="436" y="-79" on="0"/>
        <pt x="430" y="-104" on="0"/>
        <pt x="413" y="-104" on="1"/>
        <pt x="396" y="-104" on="0"/>
        <pt x="390" y="-79" on="0"/>
        <pt x="390" y="-68" on="1"/>
        <pt x="390" y="227" on="1"/>
        <pt x="95" y="227" on="1"/>
        <pt x="84" y="227" on="0"/>
        <pt x="59" y="233" on="0"/>
        <pt x="59" y="250" on="1"/>
        <pt x="59" y="267" on="0"/>
        <pt x="84" y="273" on="0"/>
        <pt x="95" y="273" on="1"/>
        <pt x="390" y="273" on="1"/>
        <pt x="390" y="568" on="1"/>
        <pt x="390" y="579" on="0"/>
        <pt x="396" y="604" on="0"/>
        <pt x="413" y="604" on="1"/>
        <pt x="430" y="604" on="0"/>
        <pt x="436" y="579" on="0"/>
        <pt x="436" y="568" on="1"/>
        <pt x="436" y="273" on="1"/>
        <pt x="730" y="273" on="1"/>
        <pt x="741" y="273" on="0"/>
        <pt x="766" y="267" on="0"/>
        <pt x="766" y="250" on="1"/>
        <pt x="766" y="233" on="0"/>
        <pt x="741" y="227" on="0"/>
        <pt x="730" y="227" on="1"/>
        <pt x="436" y="227" on="1"/>
      </contour>
    </TTGlyph>
    <TTGlyph name="q" xMin="36" yMin="-194" xMax="463" yMax="454">
      <contour>
        <pt x="463" y="-194" on="1"/>
        <pt x="376" y="-194" on="1"/>
        <pt x="376" y="49" on="1"/>
        <pt x="352" y="30" on="0"/>
        <pt x="305" y="7" on="0"/>
        <pt x="261" y="-6" on="0"/>
        <pt x="225" y="-10" on="0"/>
        <pt x="212" y="-10" on="1"/>
        <pt x="175" y="-10" on="0"/>
        <pt x="110" y="27" on="0"/>
        <pt x="63" y="90" on="0"/>
        <pt x="36" y="174" on="0"/>
        <pt x="36" y="221" on="1"/>
        <pt x="36" y="271" on="0"/>
        <pt x="67" y="356" on="0"/>
        <pt x="121" y="419" on="0"/>
        <pt x="192" y="454" on="0"/>
        <pt x="232" y="454" on="1"/>
        <pt x="276" y="454" on="0"/>
        <pt x="352" y="417" on="0"/>
        <pt x="379" y="387" on="1"/>
        <pt x="379" y="454" on="1"/>
        <pt x="463" y="454" on="1"/>
      </contour>
      <contour>
        <pt x="379" y="278" on="1"/>
        <pt x="379" y="294" on="0"/>
        <pt x="365" y="331" on="0"/>
        <pt x="339" y="363" on="0"/>
        <pt x="301" y="385" on="0"/>
        <pt x="276" y="385" on="1"/>
        <pt x="247" y="385" on="0"/>
        <pt x="192" y="361" on="0"/>
        <pt x="149" y="318" on="0"/>
        <pt x="123" y="258" on="0"/>
        <pt x="123" y="221" on="1"/>
        <pt x="123" y="188" on="0"/>
        <pt x="145" y="128" on="0"/>
        <pt x="183" y="83" on="0"/>
        <pt x="236" y="56" on="0"/>
        <pt x="266" y="56" on="1"/>
        <pt x="277" y="56" on="0"/>
        <pt x="305" y="61" on="0"/>
        <pt x="335" y="76" on="0"/>
        <pt x="366" y="102" on="0"/>
        <pt x="379" y="123" on="1"/>
      </contour>
    </TTGlyph>
    <TTGlyph name="question" xMin="59" yMin="0" xMax="442" yMax="704">
      <contour>
        <pt x="272" y="180" on="1"/>
        <pt x="200" y="180" on="1"/>
        <pt x="200" y="230" on="1"/>
        <pt x="200" y="305" on="0"/>
        <pt x="263" y="433" on="0"/>
        <pt x="315" y="475" on="1"/>
        <pt x="330" y="487" on="0"/>
        <pt x="355" y="518" on="0"/>
        <pt x="355" y="550" on="1"/>
        <pt x="355" y="582" on="0"/>
        <pt x="331" y="617" on="0"/>
        <pt x="295" y="634" on="0"/>
        <pt x="255" y="638" on="0"/>
        <pt x="240" y="638" on="1"/>
        <pt x="232" y="638" on="0"/>
        <pt x="201" y="636" on="0"/>
        <pt x="159" y="626" on="0"/>
        <pt x="110" y="604" on="0"/>
        <pt x="83" y="584" on="1"/>
        <pt x="59" y="652" on="1"/>
        <pt x="104" y="680" on="0"/>
        <pt x="192" y="704" on="0"/>
        <pt x="238" y="704" on="1"/>
        <pt x="295" y="704" on="0"/>
        <pt x="373" y="677" on="0"/>
        <pt x="421" y="634" on="0"/>
        <pt x="442" y="578" on="0"/>
        <pt x="442" y="548" on="1"/>
        <pt x="442" y="514" on="0"/>
        <pt x="415" y="455" on="0"/>
        <pt x="388" y="433" on="1"/>
        <pt x="377" y="424" on="0"/>
        <pt x="338" y="390" on="0"/>
        <pt x="300" y="339" on="0"/>
        <pt x="272" y="270" on="0"/>
        <pt x="272" y="226" on="1"/>
      </contour>
      <contour>
        <pt x="191" y="90" on="1"/>
        <pt x="281" y="90" on="1"/>
        <pt x="281" y="0" on="1"/>
        <pt x="191" y="0" on="1"/>
      </contour>
    </TTGlyph>
    <TTGlyph name="questiondown" xMin="59" yMin="-204" xMax="442" yMax="500">
      <contour>
        <pt x="281" y="410" on="1"/>
        <pt x="191" y="410" on="1"/>
        <pt x="191" y="500" on="1"/>
        <pt x="281" y="500" on="1"/>
      </contour>
      <contour>
        <pt x="442" y="-152" on="1"/>
        <pt x="388" y="-181" on="0"/>
        <pt x="283" y="-204" on="0"/>
        <pt x="238" y="-204" on="1"/>
        <pt x="200" y="-204" on="0"/>
        <pt x="135" y="-186" on="0"/>
        <pt x="87" y="-148" on="0"/>
        <pt x="59" y="-89" on="0"/>
        <pt x="59" y="-48" on="1"/>
        <pt x="59" y="-22" on="0"/>
        <pt x="77" y="40" on="0"/>
        <pt x="106" y="66" on="1"/>
        <pt x="153" y="109" on="0"/>
        <pt x="200" y="214" on="0"/>
        <pt x="200" y="272" on="1"/>
        <pt x="200" y="320" on="1"/>
        <pt x="272" y="320" on="1"/>
        <pt x="272" y="269" on="1"/>
        <pt x="272" y="193" on="0"/>
        <pt x="216" y="66" on="0"/>
        <pt x="176" y="24" on="1"/>
        <pt x="165" y="13" on="0"/>
        <pt x="146" y="-17" on="0"/>
        <pt x="146" y="-51" on="1"/>
        <pt x="146" y="-77" on="0"/>
        <pt x="158" y="-111" on="0"/>
        <pt x="182" y="-131" on="0"/>
        <pt x="216" y="-138" on="0"/>
        <pt x="238" y="-138" on="1"/>
        <pt x="273" y="-138" on="0"/>
        <pt x="363" y="-117" on="0"/>
        <pt x="418" y="-84" on="1"/>
      </contour>
    </TTGlyph>
    <TTGlyph name="quotedblleft" xMin="198" yMin="476" xMax="496" yMax="694">
      <contour>
        <pt x="260" y="566" on="1"/>
        <pt x="288" y="566" on="1"/>
        <pt x="288" y="476" on="1"/>
        <pt x="198" y="476" on="1"/>
        <pt x="198" y="565" on="1"/>
        <pt x="244" y="694" on="1"/>
        <pt x="289" y="694" on="1"/>
      </contour>
      <contour>
        <pt x="467" y="566" on="1"/>
        <pt x="495" y="566" on="1"/>
        <pt x="495" y="476" on="1"/>
        <pt x="405" y="476" on="1"/>
        <pt x="405" y="565" on="1"/>
        <pt x="451" y="694" on="1"/>
        <pt x="496" y="694" on="1"/>
      </contour>
    </TTGlyph>
    <TTGlyph name="quotedblright" xMin="34" yMin="476" xMax="332" yMax="694">
      <contour>
        <pt x="79" y="476" on="1"/>
        <pt x="34" y="476" on="1"/>
        <pt x="63" y="604" on="1"/>
        <pt x="35" y="604" on="1"/>
        <pt x="35" y="694" on="1"/>
        <pt x="125" y="694" on="1"/>
        <pt x="125" y="605" on="1"/>
      </contour>
      <contour>
        <pt x="286" y="476" on="1"/>
        <pt x="241" y="476" on="1"/>
        <pt x="270" y="604" on="1"/>
        <pt x="242" y="604" on="1"/>
        <pt x="242" y="694" on="1"/>
        <pt x="332" y="694" on="1"/>
        <pt x="332" y="605" on="1"/>
      </contour>
    </TTGlyph>
    <TTGlyph name="quoteleft" xMin="102" yMin="476" xMax="193" yMax="694">
      <contour>
        <pt x="164" y="566" on="1"/>
        <pt x="192" y="566" on="1"/>
        <pt x="192" y="476" on="1"/>
        <pt x="102" y="476" on="1"/>
        <pt x="102" y="565" on="1"/>
        <pt x="148" y="694" on="1"/>
        <pt x="193" y="694" on="1"/>
      </contour>
    </TTGlyph>
    <TTGlyph name="quoteright" xMin="101" yMin="476" xMax="192" yMax="694">
      <contour>
        <pt x="146" y="476" on="1"/>
        <pt x="101" y="476" on="1"/>
        <pt x="130" y="604" on="1"/>
        <pt x="102" y="604" on="1"/>
        <pt x="102" y="694" on="1"/>
        <pt x="192" y="694" on="1"/>
        <pt x="192" y="605" on="1"/>
      </contour>
    </TTGlyph>
    <TTGlyph name="r" xMin="85" yMin="0" xMax="347" yMax="454">
      <contour>
        <pt x="169" y="0" on="1"/>
        <pt x="85" y="0" on="1"/>
        <pt x="85" y="451" on="1"/>
        <pt x="162" y="451" on="1"/>
        <pt x="162" y="359" on="1"/>
        <pt x="192" y="399" on="0"/>
        <pt x="284" y="453" on="0"/>
        <pt x="347" y="454" on="1"/>
        <pt x="347" y="380" on="1"/>
        <pt x="314" y="380" on="0"/>
        <pt x="250" y="358" on="0"/>
        <pt x="200" y="316" on="0"/>
        <pt x="169" y="254" on="0"/>
        <pt x="169" y="213" on="1"/>
      </contour>
    </TTGlyph>
    <TTGlyph name="ring" xMin="235" yMin="527" xMax="472" yMax="694">
      <contour>
        <pt x="472" y="610" on="1"/>
        <pt x="472" y="578" on="0"/>
        <pt x="407" y="527" on="0"/>
        <pt x="353" y="527" on="1"/>
        <pt x="329" y="527" on="0"/>
        <pt x="286" y="540" on="0"/>
        <pt x="254" y="563" on="0"/>
        <pt x="235" y="593" on="0"/>
        <pt x="235" y="611" on="1"/>
        <pt x="235" y="643" on="0"/>
        <pt x="300" y="694" on="0"/>
        <pt x="354" y="694" on="1"/>
        <pt x="378" y="694" on="0"/>
        <pt x="421" y="681" on="0"/>
        <pt x="453" y="658" on="0"/>
        <pt x="472" y="628" on="0"/>
      </contour>
      <contour>
        <pt x="354" y="569" on="1"/>
        <pt x="359" y="569" on="0"/>
        <pt x="379" y="571" on="0"/>
        <pt x="398" y="579" on="0"/>
        <pt x="412" y="596" on="0"/>
        <pt x="412" y="611" on="1"/>
        <pt x="412" y="626" on="0"/>
        <pt x="396" y="643" on="0"/>
        <pt x="376" y="651" on="0"/>
        <pt x="357" y="652" on="0"/>
        <pt x="353" y="652" on="1"/>
        <pt x="348" y="652" on="0"/>
        <pt x="328" y="650" on="0"/>
        <pt x="309" y="642" on="0"/>
        <pt x="295" y="625" on="0"/>
        <pt x="295" y="610" on="1"/>
        <pt x="295" y="595" on="0"/>
        <pt x="311" y="578" on="0"/>
        <pt x="331" y="570" on="0"/>
        <pt x="350" y="569" on="0"/>
      </contour>
    </TTGlyph>
    <TTGlyph name="s" xMin="30" yMin="-10" xMax="383" yMax="459">
      <contour>
        <pt x="352" y="357" on="1"/>
        <pt x="314" y="377" on="0"/>
        <pt x="244" y="395" on="0"/>
        <pt x="201" y="395" on="1"/>
        <pt x="195" y="395" on="0"/>
        <pt x="166" y="393" on="0"/>
        <pt x="136" y="383" on="0"/>
        <pt x="113" y="359" on="0"/>
        <pt x="113" y="338" on="1"/>
        <pt x="113" y="322" on="0"/>
        <pt x="129" y="300" on="0"/>
        <pt x="158" y="287" on="0"/>
        <pt x="196" y="278" on="0"/>
        <pt x="218" y="274" on="1"/>
        <pt x="254" y="267" on="0"/>
        <pt x="311" y="250" on="0"/>
        <pt x="339" y="225" on="1"/>
        <pt x="355" y="211" on="0"/>
        <pt x="372" y="183" on="0"/>
        <pt x="381" y="157" on="0"/>
        <pt x="383" y="137" on="0"/>
        <pt x="383" y="130" on="1"/>
        <pt x="383" y="91" on="0"/>
        <pt x="354" y="38" on="0"/>
        <pt x="305" y="5" on="0"/>
        <pt x="242" y="-10" on="0"/>
        <pt x="208" y="-10" on="1"/>
        <pt x="145" y="-10" on="0"/>
        <pt x="56" y="21" on="0"/>
        <pt x="30" y="34" on="1"/>
        <pt x="44" y="109" on="1"/>
        <pt x="74" y="88" on="0"/>
        <pt x="160" y="58" on="0"/>
        <pt x="208" y="58" on="1"/>
        <pt x="213" y="58" on="0"/>
        <pt x="245" y="60" on="0"/>
        <pt x="279" y="72" on="0"/>
        <pt x="305" y="97" on="0"/>
        <pt x="305" y="121" on="1"/>
        <pt x="305" y="139" on="0"/>
        <pt x="287" y="162" on="0"/>
        <pt x="258" y="176" on="0"/>
        <pt x="222" y="185" on="0"/>
        <pt x="204" y="188" on="1"/>
        <pt x="164" y="196" on="0"/>
        <pt x="100" y="215" on="0"/>
        <pt x="74" y="241" on="1"/>
        <pt x="64" y="250" on="0"/>
        <pt x="35" y="291" on="0"/>
        <pt x="35" y="326" on="1"/>
        <pt x="35" y="376" on="0"/>
        <pt x="83" y="430" on="0"/>
        <pt x="144" y="455" on="0"/>
        <pt x="202" y="459" on="0"/>
        <pt x="211" y="459" on="1"/>
        <pt x="238" y="459" on="0"/>
        <pt x="314" y="449" on="0"/>
        <pt x="365" y="428" on="1"/>
      </contour>
    </TTGlyph>
    <TTGlyph name="semicolon" xMin="101" yMin="-128" xMax="192" yMax="444">
      <contour>
        <pt x="192" y="354" on="1"/>
        <pt x="102" y="354" on="1"/>
        <pt x="102" y="444" on="1"/>
        <pt x="192" y="444" on="1"/>
      </contour>
      <contour>
        <pt x="130" y="0" on="1"/>
        <pt x="102" y="0" on="1"/>
        <pt x="102" y="90" on="1"/>
        <pt x="192" y="90" on="1"/>
        <pt x="192" y="1" on="1"/>
        <pt x="146" y="-128" on="1"/>
        <pt x="101" y="-128" on="1"/>
      </contour>
    </TTGlyph>
    <TTGlyph name="seven" xMin="44" yMin="-10" xMax="486" yMax="656">
      <contour>
        <pt x="44" y="579" on="1"/>
        <pt x="44" y="656" on="1"/>
        <pt x="486" y="656" on="1"/>
        <pt x="486" y="586" on="1"/>
        <pt x="452" y="551" on="0"/>
        <pt x="371" y="438" on="0"/>
        <pt x="301" y="287" on="0"/>
        <pt x="254" y="100" on="0"/>
        <pt x="254" y="-10" on="1"/>
        <pt x="160" y="-10" on="1"/>
        <pt x="160" y="77" on="0"/>
        <pt x="195" y="241" on="0"/>
        <pt x="260" y="391" on="0"/>
        <pt x="352" y="524" on="0"/>
        <pt x="409" y="580" on="1"/>
        <pt x="283" y="580" on="1"/>
        <pt x="274" y="580" on="0"/>
        <pt x="256" y="579" on="0"/>
        <pt x="247" y="579" on="1"/>
      </contour>
    </TTGlyph>
    <TTGlyph name="six" xMin="44" yMin="-21" xMax="486" yMax="677">
      <contour>
        <pt x="439" y="594" on="1"/>
        <pt x="401" y="608" on="0"/>
        <pt x="344" y="615" on="0"/>
        <pt x="329" y="615" on="1"/>
        <pt x="289" y="615" on="0"/>
        <pt x="222" y="581" on="0"/>
        <pt x="173" y="520" on="0"/>
        <pt x="143" y="434" on="0"/>
        <pt x="138" y="383" on="1"/>
        <pt x="149" y="394" on="0"/>
        <pt x="180" y="422" on="0"/>
        <pt x="224" y="446" on="0"/>
        <pt x="281" y="463" on="0"/>
        <pt x="318" y="463" on="1"/>
        <pt x="354" y="463" on="0"/>
        <pt x="416" y="425" on="0"/>
        <pt x="461" y="359" on="0"/>
        <pt x="486" y="272" on="0"/>
        <pt x="486" y="223" on="1"/>
        <pt x="486" y="210" on="0"/>
        <pt x="484" y="171" on="0"/>
        <pt x="471" y="125" on="0"/>
        <pt x="445" y="75" on="0"/>
        <pt x="421" y="49" on="1"/>
        <pt x="409" y="37" on="0"/>
        <pt x="381" y="12" on="0"/>
        <pt x="344" y="-8" on="0"/>
        <pt x="297" y="-21" on="0"/>
        <pt x="267" y="-21" on="1"/>
        <pt x="229" y="-21" on="0"/>
        <pt x="150" y="10" on="0"/>
        <pt x="85" y="88" on="0"/>
        <pt x="44" y="221" on="0"/>
        <pt x="44" y="323" on="1"/>
        <pt x="44" y="402" on="0"/>
        <pt x="90" y="533" on="0"/>
        <pt x="168" y="626" on="0"/>
        <pt x="271" y="677" on="0"/>
        <pt x="328" y="677" on="1"/>
        <pt x="342" y="677" on="0"/>
        <pt x="398" y="672" on="0"/>
        <pt x="439" y="657" on="1"/>
      </contour>
      <contour>
        <pt x="139" y="220" on="1"/>
        <pt x="141" y="204" on="0"/>
        <pt x="152" y="145" on="0"/>
        <pt x="179" y="87" on="0"/>
        <pt x="227" y="45" on="0"/>
        <pt x="267" y="45" on="1"/>
        <pt x="302" y="45" on="0"/>
        <pt x="349" y="74" on="0"/>
        <pt x="367" y="101" on="1"/>
        <pt x="387" y="133" on="0"/>
        <pt x="394" y="194" on="0"/>
        <pt x="394" y="223" on="1"/>
        <pt x="394" y="236" on="0"/>
        <pt x="390" y="293" on="0"/>
        <pt x="367" y="352" on="0"/>
        <pt x="318" y="397" on="0"/>
        <pt x="272" y="397" on="1"/>
        <pt x="239" y="397" on="0"/>
        <pt x="189" y="369" on="0"/>
        <pt x="156" y="325" on="0"/>
        <pt x="140" y="272" on="0"/>
        <pt x="140" y="246" on="1"/>
        <pt x="139" y="242" on="0"/>
        <pt x="139" y="225" on="0"/>
      </contour>
    </TTGlyph>
    <TTGlyph name="slash" xMin="59" yMin="-250" xMax="471" yMax="750">
      <contour>
        <pt x="107" y="-226" on="1"/>
        <pt x="103" y="-235" on="0"/>
        <pt x="94" y="-250" on="0"/>
        <pt x="82" y="-250" on="1"/>
        <pt x="72" y="-250" on="0"/>
        <pt x="59" y="-237" on="0"/>
        <pt x="59" y="-227" on="1"/>
        <pt x="59" y="-225" on="0"/>
        <pt x="60" y="-218" on="0"/>
        <pt x="64" y="-209" on="1"/>
        <pt x="423" y="726" on="1"/>
        <pt x="427" y="735" on="0"/>
        <pt x="436" y="750" on="0"/>
        <pt x="448" y="750" on="1"/>
        <pt x="458" y="750" on="0"/>
        <pt x="471" y="737" on="0"/>
        <pt x="471" y="727" on="1"/>
        <pt x="471" y="725" on="0"/>
        <pt x="470" y="718" on="0"/>
        <pt x="466" y="709" on="1"/>
      </contour>
    </TTGlyph>
    <TTGlyph name="suppress" xMin="-9" yMin="265" xMax="261" yMax="398">
      <contour>
        <pt x="9" y="265" on="1"/>
        <pt x="-9" y="326" on="1"/>
        <pt x="244" y="398" on="1"/>
        <pt x="261" y="337" on="1"/>
      </contour>
    </TTGlyph>
    <TTGlyph name="t" xMin="20" yMin="-10" xMax="354" yMax="571">
      <contour>
        <pt x="188" y="146" on="1"/>
        <pt x="188" y="129" on="0"/>
        <pt x="193" y="97" on="0"/>
        <pt x="205" y="73" on="0"/>
        <pt x="225" y="59" on="0"/>
        <pt x="241" y="59" on="1"/>
        <pt x="262" y="59" on="0"/>
        <pt x="312" y="73" on="0"/>
        <pt x="337" y="91" on="1"/>
        <pt x="354" y="27" on="1"/>
        <pt x="331" y="16" on="0"/>
        <pt x="251" y="-10" on="0"/>
        <pt x="197" y="-10" on="1"/>
        <pt x="170" y="-10" on="0"/>
        <pt x="135" y="14" on="0"/>
        <pt x="116" y="53" on="0"/>
        <pt x="108" y="103" on="0"/>
        <pt x="108" y="128" on="1"/>
        <pt x="108" y="381" on="1"/>
        <pt x="20" y="381" on="1"/>
        <pt x="20" y="444" on="1"/>
        <pt x="111" y="444" on="1"/>
        <pt x="111" y="571" on="1"/>
        <pt x="188" y="571" on="1"/>
        <pt x="188" y="444" on="1"/>
        <pt x="336" y="444" on="1"/>
        <pt x="336" y="381" on="1"/>
        <pt x="188" y="381" on="1"/>
      </contour>
    </TTGlyph>
    <TTGlyph name="three" xMin="44" yMin="-21" xMax="486" yMax="677">
      <contour>
        <pt x="59" y="571" on="1"/>
        <pt x="91" y="616" on="0"/>
        <pt x="196" y="677" on="0"/>
        <pt x="262" y="677" on="1"/>
        <pt x="302" y="677" on="0"/>
        <pt x="373" y="653" on="0"/>
        <pt x="425" y="612" on="0"/>
        <pt x="456" y="556" on="0"/>
        <pt x="456" y="524" on="1"/>
        <pt x="456" y="475" on="0"/>
        <pt x="398" y="382" on="0"/>
        <pt x="341" y="353" on="1"/>
        <pt x="371" y="344" on="0"/>
        <pt x="423" y="312" on="0"/>
        <pt x="463" y="267" on="0"/>
        <pt x="486" y="213" on="0"/>
        <pt x="486" y="182" on="1"/>
        <pt x="486" y="143" on="0"/>
        <pt x="453" y="69" on="0"/>
        <pt x="393" y="13" on="0"/>
        <pt x="310" y="-21" on="0"/>
        <pt x="261" y="-21" on="1"/>
        <pt x="202" y="-21" on="0"/>
        <pt x="88" y="29" on="0"/>
        <pt x="44" y="78" on="1"/>
        <pt x="57" y="143" on="1"/>
        <pt x="95" y="95" on="0"/>
        <pt x="205" y="45" on="0"/>
        <pt x="259" y="45" on="1"/>
        <pt x="288" y="45" on="0"/>
        <pt x="335" y="66" on="0"/>
        <pt x="368" y="103" on="0"/>
        <pt x="385" y="154" on="0"/>
        <pt x="385" y="183" on="1"/>
        <pt x="385" y="207" on="0"/>
        <pt x="371" y="256" on="0"/>
        <pt x="340" y="296" on="0"/>
        <pt x="291" y="321" on="0"/>
        <pt x="255" y="321" on="1"/>
        <pt x="177" y="321" on="1"/>
        <pt x="177" y="387" on="1"/>
        <pt x="202" y="389" on="0"/>
        <pt x="230" y="391" on="0"/>
        <pt x="245" y="392" on="0"/>
        <pt x="250" y="393" on="0"/>
        <pt x="252" y="393" on="1"/>
        <pt x="281" y="398" on="0"/>
        <pt x="323" y="425" on="0"/>
        <pt x="350" y="462" on="0"/>
        <pt x="364" y="504" on="0"/>
        <pt x="364" y="524" on="1"/>
        <pt x="364" y="567" on="0"/>
        <pt x="306" y="615" on="0"/>
        <pt x="261" y="615" on="1"/>
        <pt x="243" y="615" on="0"/>
        <pt x="200" y="606" on="0"/>
        <pt x="156" y="582" on="0"/>
        <pt x="115" y="543" on="0"/>
        <pt x="100" y="513" on="1"/>
      </contour>
    </TTGlyph>
    <TTGlyph name="tilde" xMin="89" yMin="555" xMax="441" yMax="680">
      <contour>
        <pt x="441" y="680" on="1"/>
        <pt x="441" y="650" on="0"/>
        <pt x="422" y="604" on="0"/>
        <pt x="393" y="572" on="0"/>
        <pt x="356" y="555" on="0"/>
        <pt x="337" y="555" on="1"/>
        <pt x="316" y="555" on="0"/>
        <pt x="279" y="575" on="0"/>
        <pt x="256" y="589" on="1"/>
        <pt x="248" y="595" on="0"/>
        <pt x="214" y="614" on="0"/>
        <pt x="195" y="614" on="1"/>
        <pt x="174" y="614" on="0"/>
        <pt x="156" y="579" on="0"/>
        <pt x="155" y="555" on="1"/>
        <pt x="89" y="555" on="1"/>
        <pt x="89" y="585" on="0"/>
        <pt x="108" y="631" on="0"/>
        <pt x="137" y="663" on="0"/>
        <pt x="174" y="680" on="0"/>
        <pt x="193" y="680" on="1"/>
        <pt x="214" y="680" on="0"/>
        <pt x="251" y="660" on="0"/>
        <pt x="274" y="646" on="1"/>
        <pt x="282" y="640" on="0"/>
        <pt x="316" y="621" on="0"/>
        <pt x="335" y="621" on="1"/>
        <pt x="356" y="621" on="0"/>
        <pt x="374" y="656" on="0"/>
        <pt x="375" y="680" on="1"/>
      </contour>
    </TTGlyph>
    <TTGlyph name="two" xMin="44" yMin="0" xMax="477" yMax="677">
      <contour>
        <pt x="477" y="77" on="1"/>
        <pt x="477" y="0" on="1"/>
        <pt x="53" y="0" on="1"/>
        <pt x="53" y="69" on="1"/>
        <pt x="64" y="78" on="0"/>
        <pt x="98" y="110" on="0"/>
        <pt x="135" y="145" on="0"/>
        <pt x="169" y="177" on="0"/>
        <pt x="180" y="187" on="1"/>
        <pt x="188" y="195" on="0"/>
        <pt x="214" y="217" on="0"/>
        <pt x="242" y="242" on="0"/>
        <pt x="268" y="265" on="0"/>
        <pt x="275" y="272" on="1"/>
        <pt x="298" y="293" on="0"/>
        <pt x="337" y="334" on="0"/>
        <pt x="367" y="378" on="0"/>
        <pt x="384" y="428" on="0"/>
        <pt x="384" y="459" on="1"/>
        <pt x="384" y="493" on="0"/>
        <pt x="361" y="548" on="0"/>
        <pt x="322" y="587" on="0"/>
        <pt x="268" y="608" on="0"/>
        <pt x="236" y="608" on="1"/>
        <pt x="203" y="608" on="0"/>
        <pt x="156" y="585" on="0"/>
        <pt x="123" y="545" on="0"/>
        <pt x="100" y="491" on="0"/>
        <pt x="91" y="459" on="1"/>
        <pt x="44" y="518" on="1"/>
        <pt x="70" y="595" on="0"/>
        <pt x="170" y="677" on="0"/>
        <pt x="250" y="677" on="1"/>
        <pt x="304" y="677" on="0"/>
        <pt x="388" y="641" on="0"/>
        <pt x="446" y="581" on="0"/>
        <pt x="477" y="503" on="0"/>
        <pt x="477" y="461" on="1"/>
        <pt x="477" y="428" on="0"/>
        <pt x="457" y="376" on="0"/>
        <pt x="427" y="332" on="0"/>
        <pt x="391" y="297" on="0"/>
        <pt x="374" y="282" on="1"/>
        <pt x="367" y="276" on="0"/>
        <pt x="343" y="257" on="0"/>
        <pt x="318" y="238" on="0"/>
        <pt x="295" y="219" on="0"/>
        <pt x="288" y="213" on="1"/>
        <pt x="133" y="76" on="1"/>
        <pt x="247" y="76" on="1"/>
        <pt x="256" y="76" on="0"/>
        <pt x="274" y="77" on="0"/>
        <pt x="283" y="77" on="1"/>
      </contour>
    </TTGlyph>
    <TTGlyph name="u" xMin="83" yMin="-10" xMax="465" yMax="444">
      <contour>
        <pt x="465" y="0" on="1"/>
        <pt x="381" y="0" on="1"/>
        <pt x="381" y="46" on="1"/>
        <pt x="359" y="28" on="0"/>
        <pt x="305" y="6" on="0"/>
        <pt x="253" y="-6" on="0"/>
        <pt x="207" y="-10" on="0"/>
        <pt x="192" y="-10" on="1"/>
        <pt x="139" y="-10" on="0"/>
        <pt x="83" y="42" on="0"/>
        <pt x="83" y="109" on="1"/>
        <pt x="83" y="444" on="1"/>
        <pt x="170" y="444" on="1"/>
        <pt x="170" y="115" on="1"/>
        <pt x="170" y="98" on="0"/>
        <pt x="175" y="73" on="0"/>
        <pt x="192" y="57" on="0"/>
        <pt x="224" y="49" on="0"/>
        <pt x="252" y="49" on="1"/>
        <pt x="274" y="49" on="0"/>
        <pt x="319" y="59" on="0"/>
        <pt x="355" y="84" on="0"/>
        <pt x="378" y="124" on="0"/>
        <pt x="378" y="154" on="1"/>
        <pt x="378" y="444" on="1"/>
        <pt x="465" y="444" on="1"/>
      </contour>
    </TTGlyph>
    <TTGlyph name="uni00AD" xMin="12" yMin="191" xMax="294" yMax="254">
      <contour>
        <pt x="12" y="191" on="1"/>
        <pt x="12" y="254" on="1"/>
        <pt x="294" y="254" on="1"/>
        <pt x="294" y="191" on="1"/>
      </contour>
    </TTGlyph>
    <TTGlyph name="uni0237" xMin="-65" yMin="-204" xMax="198" yMax="444">
      <contour>
        <pt x="198" y="-59" on="1"/>
        <pt x="198" y="-94" on="0"/>
        <pt x="176" y="-147" on="0"/>
        <pt x="138" y="-185" on="0"/>
        <pt x="90" y="-204" on="0"/>
        <pt x="64" y="-204" on="1"/>
        <pt x="35" y="-204" on="0"/>
        <pt x="-30" y="-189" on="0"/>
        <pt x="-65" y="-170" on="1"/>
        <pt x="-41" y="-104" on="1"/>
        <pt x="-33" y="-112" on="0"/>
        <pt x="5" y="-134" on="0"/>
        <pt x="36" y="-134" on="1"/>
        <pt x="50" y="-134" on="0"/>
        <pt x="78" y="-128" on="0"/>
        <pt x="100" y="-113" on="0"/>
        <pt x="114" y="-87" on="0"/>
        <pt x="114" y="-67" on="1"/>
        <pt x="114" y="444" on="1"/>
        <pt x="198" y="444" on="1"/>
      </contour>
    </TTGlyph>
    <TTGlyph name="uni0394" xMin="44" yMin="0" xMax="840" yMax="694">
      <contour>
        <pt x="840" y="0" on="1"/>
        <pt x="44" y="0" on="1"/>
        <pt x="392" y="694" on="1"/>
        <pt x="492" y="694" on="1"/>
      </contour>
      <contour>
        <pt x="177" y="94" on="1"/>
        <pt x="679" y="94" on="1"/>
        <pt x="493" y="471" on="1"/>
        <pt x="484" y="488" on="0"/>
        <pt x="465" y="528" on="0"/>
        <pt x="447" y="567" on="0"/>
        <pt x="433" y="603" on="0"/>
        <pt x="428" y="618" on="1"/>
        <pt x="423" y="602" on="0"/>
        <pt x="397" y="543" on="0"/>
        <pt x="366" y="475" on="0"/>
        <pt x="333" y="408" on="0"/>
        <pt x="321" y="384" on="1"/>
      </contour>
    </TTGlyph>
    <TTGlyph name="uni03A9" xMin="47" yMin="0" xMax="719" yMax="715">
      <contour>
        <pt x="719" y="0" on="1"/>
        <pt x="457" y="0" on="1"/>
        <pt x="458" y="63" on="0"/>
        <pt x="501" y="169" on="0"/>
        <pt x="530" y="228" on="1"/>
        <pt x="559" y="286" on="0"/>
        <pt x="606" y="400" on="0"/>
        <pt x="606" y="461" on="1"/>
        <pt x="606" y="501" on="0"/>
        <pt x="573" y="570" on="0"/>
        <pt x="513" y="620" on="0"/>
        <pt x="431" y="649" on="0"/>
        <pt x="383" y="649" on="1"/>
        <pt x="335" y="649" on="0"/>
        <pt x="253" y="621" on="0"/>
        <pt x="194" y="570" on="0"/>
        <pt x="160" y="502" on="0"/>
        <pt x="160" y="461" on="1"/>
        <pt x="160" y="400" on="0"/>
        <pt x="207" y="286" on="0"/>
        <pt x="241" y="219" on="1"/>
        <pt x="269" y="163" on="0"/>
        <pt x="308" y="61" on="0"/>
        <pt x="309" y="0" on="1"/>
        <pt x="47" y="0" on="1"/>
        <pt x="47" y="77" on="1"/>
        <pt x="138" y="77" on="1"/>
        <pt x="147" y="77" on="0"/>
        <pt x="165" y="76" on="0"/>
        <pt x="174" y="76" on="1"/>
        <pt x="231" y="76" on="1"/>
        <pt x="226" y="92" on="0"/>
        <pt x="214" y="121" on="0"/>
        <pt x="197" y="155" on="0"/>
        <pt x="173" y="196" on="0"/>
        <pt x="156" y="223" on="1"/>
        <pt x="137" y="254" on="0"/>
        <pt x="101" y="312" on="0"/>
        <pt x="75" y="371" on="0"/>
        <pt x="59" y="430" on="0"/>
        <pt x="59" y="462" on="1"/>
        <pt x="59" y="513" on="0"/>
        <pt x="108" y="604" on="0"/>
        <pt x="195" y="674" on="0"/>
        <pt x="314" y="715" on="0"/>
        <pt x="383" y="715" on="1"/>
        <pt x="452" y="715" on="0"/>
        <pt x="571" y="674" on="0"/>
        <pt x="658" y="605" on="0"/>
        <pt x="707" y="513" on="0"/>
        <pt x="707" y="462" on="1"/>
        <pt x="707" y="431" on="0"/>
        <pt x="692" y="372" on="0"/>
        <pt x="666" y="314" on="0"/>
        <pt x="632" y="257" on="0"/>
        <pt x="613" y="227" on="1"/>
        <pt x="595" y="200" on="0"/>
        <pt x="571" y="158" on="0"/>
        <pt x="553" y="124" on="0"/>
        <pt x="540" y="93" on="0"/>
        <pt x="535" y="76" on="1"/>
        <pt x="592" y="76" on="1"/>
        <pt x="601" y="76" on="0"/>
        <pt x="619" y="77" on="0"/>
        <pt x="628" y="77" on="1"/>
        <pt x="719" y="77" on="1"/>
      </contour>
    </TTGlyph>
    <TTGlyph name="v" xMin="15" yMin="0" xMax="474" yMax="444">
      <contour>
        <pt x="291" y="0" on="1"/>
        <pt x="198" y="0" on="1"/>
        <pt x="15" y="444" on="1"/>
        <pt x="99" y="444" on="1"/>
        <pt x="179" y="245" on="1"/>
        <pt x="202" y="187" on="0"/>
        <pt x="240" y="88" on="0"/>
        <pt x="246" y="59" on="1"/>
        <pt x="247" y="59" on="1"/>
        <pt x="248" y="65" on="0"/>
        <pt x="252" y="80" on="0"/>
        <pt x="261" y="109" on="0"/>
        <pt x="280" y="160" on="0"/>
        <pt x="312" y="241" on="0"/>
        <pt x="360" y="360" on="0"/>
        <pt x="394" y="444" on="1"/>
        <pt x="474" y="444" on="1"/>
      </contour>
    </TTGlyph>
    <TTGlyph name="w" xMin="15" yMin="0" xMax="710" yMax="444">
      <contour>
        <pt x="564" y="0" on="1"/>
        <pt x="472" y="0" on="1"/>
        <pt x="395" y="241" on="1"/>
        <pt x="390" y="258" on="0"/>
        <pt x="379" y="297" on="0"/>
        <pt x="374" y="316" on="1"/>
        <pt x="369" y="335" on="0"/>
        <pt x="361" y="368" on="0"/>
        <pt x="359" y="384" on="1"/>
        <pt x="358" y="383" on="1"/>
        <pt x="356" y="367" on="0"/>
        <pt x="344" y="317" on="0"/>
        <pt x="329" y="264" on="0"/>
        <pt x="314" y="212" on="0"/>
        <pt x="308" y="194" on="1"/>
        <pt x="295" y="152" on="0"/>
        <pt x="272" y="82" on="0"/>
        <pt x="255" y="31" on="0"/>
        <pt x="245" y="2" on="0"/>
        <pt x="245" y="0" on="1"/>
        <pt x="161" y="0" on="1"/>
        <pt x="15" y="444" on="1"/>
        <pt x="97" y="444" on="1"/>
        <pt x="99" y="438" on="0"/>
        <pt x="101" y="429" on="0"/>
        <pt x="104" y="421" on="0"/>
        <pt x="107" y="410" on="0"/>
        <pt x="110" y="401" on="1"/>
        <pt x="114" y="389" on="0"/>
        <pt x="131" y="339" on="0"/>
        <pt x="151" y="275" on="0"/>
        <pt x="173" y="204" on="0"/>
        <pt x="192" y="136" on="0"/>
        <pt x="206" y="79" on="0"/>
        <pt x="208" y="61" on="1"/>
        <pt x="209" y="61" on="1"/>
        <pt x="211" y="79" on="0"/>
        <pt x="225" y="138" on="0"/>
        <pt x="245" y="209" on="0"/>
        <pt x="269" y="286" on="0"/>
        <pt x="293" y="359" on="0"/>
        <pt x="314" y="423" on="0"/>
        <pt x="321" y="444" on="1"/>
        <pt x="397" y="444" on="1"/>
        <pt x="471" y="215" on="1"/>
        <pt x="472" y="212" on="0"/>
        <pt x="484" y="175" on="0"/>
        <pt x="498" y="125" on="0"/>
        <pt x="512" y="74" on="0"/>
        <pt x="514" y="59" on="1"/>
        <pt x="515" y="59" on="1"/>
        <pt x="517" y="76" on="0"/>
        <pt x="530" y="121" on="0"/>
        <pt x="536" y="143" on="1"/>
        <pt x="548" y="182" on="0"/>
        <pt x="578" y="278" on="0"/>
        <pt x="607" y="366" on="0"/>
        <pt x="629" y="434" on="0"/>
        <pt x="632" y="444" on="1"/>
        <pt x="710" y="444" on="1"/>
      </contour>
    </TTGlyph>
    <TTGlyph name="x" xMin="0" yMin="0" xMax="489" yMax="444">
      <contour>
        <pt x="489" y="0" on="1"/>
        <pt x="399" y="0" on="1"/>
        <pt x="241" y="188" on="1"/>
        <pt x="89" y="0" on="1"/>
        <pt x="0" y="0" on="1"/>
        <pt x="206" y="229" on="1"/>
        <pt x="6" y="444" on="1"/>
        <pt x="96" y="444" on="1"/>
        <pt x="241" y="280" on="1"/>
        <pt x="383" y="444" on="1"/>
        <pt x="471" y="444" on="1"/>
        <pt x="277" y="229" on="1"/>
      </contour>
    </TTGlyph>
    <TTGlyph name="y" xMin="15" yMin="-204" xMax="474" yMax="444">
      <contour>
        <pt x="239" y="-93" on="1"/>
        <pt x="223" y="-129" on="0"/>
        <pt x="194" y="-173" on="0"/>
        <pt x="165" y="-196" on="0"/>
        <pt x="136" y="-204" on="0"/>
        <pt x="121" y="-204" on="1"/>
        <pt x="98" y="-204" on="0"/>
        <pt x="51" y="-198" on="0"/>
        <pt x="44" y="-196" on="1"/>
        <pt x="38" y="-126" on="1"/>
        <pt x="70" y="-140" on="0"/>
        <pt x="119" y="-144" on="0"/>
        <pt x="122" y="-144" on="1"/>
        <pt x="142" y="-144" on="0"/>
        <pt x="168" y="-120" on="0"/>
        <pt x="184" y="-88" on="1"/>
        <pt x="186" y="-83" on="0"/>
        <pt x="195" y="-63" on="0"/>
        <pt x="206" y="-37" on="0"/>
        <pt x="218" y="-11" on="0"/>
        <pt x="222" y="0" on="1"/>
        <pt x="15" y="444" on="1"/>
        <pt x="101" y="444" on="1"/>
        <pt x="164" y="307" on="1"/>
        <pt x="178" y="278" on="0"/>
        <pt x="202" y="218" on="0"/>
        <pt x="214" y="188" on="1"/>
        <pt x="228" y="153" on="0"/>
        <pt x="250" y="84" on="0"/>
        <pt x="252" y="63" on="1"/>
        <pt x="255" y="109" on="0"/>
        <pt x="332" y="300" on="0"/>
        <pt x="393" y="444" on="1"/>
        <pt x="474" y="444" on="1"/>
      </contour>
    </TTGlyph>
    <TTGlyph name="z" xMin="30" yMin="0" xMax="427" yMax="444">
      <contour>
        <pt x="149" y="66" on="1"/>
        <pt x="236" y="66" on="1"/>
        <pt x="245" y="66" on="0"/>
        <pt x="263" y="67" on="0"/>
        <pt x="272" y="67" on="1"/>
        <pt x="427" y="67" on="1"/>
        <pt x="427" y="0" on="1"/>
        <pt x="30" y="0" on="1"/>
        <pt x="30" y="44" on="1"/>
        <pt x="305" y="381" on="1"/>
        <pt x="227" y="381" on="1"/>
        <pt x="218" y="381" on="0"/>
        <pt x="200" y="380" on="0"/>
        <pt x="191" y="380" on="1"/>
        <pt x="44" y="380" on="1"/>
        <pt x="44" y="444" on="1"/>
        <pt x="424" y="444" on="1"/>
        <pt x="424" y="402" on="1"/>
      </contour>
    </TTGlyph>
    <TTGlyph name="zero" xMin="42" yMin="-21" xMax="488" yMax="677">
      <contour>
        <pt x="488" y="325" on="1"/>
        <pt x="488" y="302" on="0"/>
        <pt x="486" y="246" on="0"/>
        <pt x="478" y="186" on="0"/>
        <pt x="463" y="127" on="0"/>
        <pt x="450" y="100" on="1"/>
        <pt x="439" y="76" on="0"/>
        <pt x="406" y="33" on="0"/>
        <pt x="361" y="-1" on="0"/>
        <pt x="303" y="-21" on="0"/>
        <pt x="265" y="-21" on="1"/>
        <pt x="243" y="-21" on="0"/>
        <pt x="194" y="-11" on="0"/>
        <pt x="147" y="13" on="0"/>
        <pt x="105" y="54" on="0"/>
        <pt x="88" y="84" on="1"/>
        <pt x="72" y="113" on="0"/>
        <pt x="54" y="174" on="0"/>
        <pt x="45" y="236" on="0"/>
        <pt x="42" y="297" on="0"/>
        <pt x="42" y="325" on="1"/>
        <pt x="42" y="349" on="0"/>
        <pt x="44" y="411" on="0"/>
        <pt x="54" y="478" on="0"/>
        <pt x="74" y="547" on="0"/>
        <pt x="92" y="577" on="1"/>
        <pt x="111" y="609" on="0"/>
        <pt x="157" y="649" on="0"/>
        <pt x="204" y="670" on="0"/>
        <pt x="248" y="677" on="0"/>
        <pt x="265" y="677" on="1"/>
        <pt x="283" y="677" on="0"/>
        <pt x="328" y="670" on="0"/>
        <pt x="376" y="647" on="0"/>
        <pt x="422" y="606" on="0"/>
        <pt x="441" y="572" on="1"/>
        <pt x="459" y="541" on="0"/>
        <pt x="478" y="470" on="0"/>
        <pt x="487" y="402" on="0"/>
        <pt x="488" y="343" on="0"/>
      </contour>
      <contour>
        <pt x="265" y="45" on="1"/>
        <pt x="277" y="45" on="0"/>
        <pt x="308" y="52" on="0"/>
        <pt x="338" y="72" on="0"/>
        <pt x="367" y="106" on="0"/>
        <pt x="377" y="133" on="1"/>
        <pt x="395" y="181" on="0"/>
        <pt x="401" y="288" on="0"/>
        <pt x="401" y="338" on="1"/>
        <pt x="401" y="373" on="0"/>
        <pt x="397" y="466" on="0"/>
        <pt x="371" y="552" on="0"/>
        <pt x="316" y="611" on="0"/>
        <pt x="265" y="611" on="1"/>
        <pt x="214" y="611" on="0"/>
        <pt x="159" y="552" on="0"/>
        <pt x="133" y="466" on="0"/>
        <pt x="129" y="373" on="0"/>
        <pt x="129" y="338" on="1"/>
        <pt x="129" y="283" on="0"/>
        <pt x="135" y="187" on="0"/>
        <pt x="150" y="141" on="1"/>
        <pt x="169" y="87" on="0"/>
        <pt x="233" y="45" on="0"/>
      </contour>
    </TTGlyph>
</ttFont>
